SplineFontDB: 3.0
FontName: NovaSquare
FullName: Nova Square
FamilyName: Nova Square
Weight: Book
Copyright: Copyright (c) 2011, wmk69 (wmk69@o2.pl)\nwith Reserved Font Names 'NovaSquare' and 'Nova Square'.\n\nThis Font Software is licensed under the SIL Open Font License, Version 1.1.\nThis license is available with a FAQ at:\nhttp://scripts.sil.org/OFL
Version: 2.000
ItalicAngle: 0
UnderlinePosition: -81
UnderlineWidth: 122
Ascent: 1638
Descent: 410
LayerCount: 2
Layer: 0 1 "Warstwa t+AUIA-a"  1
Layer: 1 1 "Plan pierwszy"  0
XUID: [1021 783 23647091 8360855]
FSType: 0
OS2Version: 3
OS2_WeightWidthSlopeOnly: 0
OS2_UseTypoMetrics: 1
CreationTime: 1260698820
ModificationTime: 1313914627
PfmFamily: 33
TTFWeight: 400
TTFWidth: 5
LineGap: 0
VLineGap: 0
Panose: 2 12 5 4 2 4 4 6 2 4
OS2TypoAscent: 1966
OS2TypoAOffset: 0
OS2TypoDescent: -506
OS2TypoDOffset: 0
OS2TypoLinegap: 0
OS2WinAscent: 1966
OS2WinAOffset: 0
OS2WinDescent: 506
OS2WinDOffset: 0
HheadAscent: 1966
HheadAOffset: 0
HheadDescent: -506
HheadDOffset: 0
OS2SubXSize: 1434
OS2SubYSize: 1331
OS2SubXOff: 0
OS2SubYOff: 287
OS2SupXSize: 1434
OS2SupYSize: 1331
OS2SupXOff: 0
OS2SupYOff: 977
OS2StrikeYSize: 102
OS2StrikeYPos: 512
OS2Vendor: '    '
OS2CodePages: 20000093.00000000
OS2UnicodeRanges: 8000002f.4000204b.00000000.00000000
Lookup: 258 0 0 "'kern' Kerning poziomy w tablicy 0"  {"Podtablica 'kern' Kerning poziomy w tablicy 0"  } ['kern' ('DFLT' <'dflt' > 'grek' <'dflt' > 'latn' <'dflt' > ) ]
DEI: 91125
KernClass2: 28 18 "Podtablica 'kern' Kerning poziomy w tablicy 0" 
 380 A C G M N O Q S Agrave Aacute Acircumflex Atilde Adieresis Aring Ccedilla Ntilde Ograve Oacute Ocircumflex Otilde Odieresis Oslash Amacron Abreve Aogonek Cacute Ccircumflex Cdotaccent Ccaron Gcircumflex Gbreve Gdotaccent Gcommaaccent Nacute Ncommaaccent Ncaron Eng Omacron Obreve Ohungarumlaut OE Sacute Scircumflex Scedilla Scaron uni01E4 Scommaaccent uni1E40 uni1E60 Oslashacute
 20 B germandbls uni1E02
 27 D Eth Dcaron Dcroat uni1E0A

StartChar: .notdef
Encoding: 65536 -1 0
Width: 894
Flags: W
HStem: 0 118<268 626> 1392 118<268 626>
VStem: 150 118<118 1392> 626 118<118 1392>
LayerCount: 2
Fore
SplineSet
150 0 m 1,0,-1
 150 1510 l 1,1,-1
 744 1510 l 1,2,-1
 744 0 l 1,3,-1
 150 0 l 1,0,-1
268 1392 m 1,4,-1
 268 118 l 1,5,-1
 626 118 l 1,6,-1
 626 1392 l 1,7,-1
 268 1392 l 1,4,-1
EndSplineSet
Validated: 3073
EndChar

StartChar: exclam
Encoding: 33 33 4
Width: 600
GlyphClass: 2
Flags: W
HStem: -20 245<216.097 383.903> 1530 20G<347.778 400>
VStem: 180 240<17.1285 187.871> 200 200<510 1460>
LayerCount: 2
Fore
SplineSet
180 102.5 m 128,-1,1
 180 153 180 153 215 189 c 128,-1,2
 250 225 250 225 300 225 c 128,-1,3
 350 225 350 225 385 189 c 128,-1,4
 420 153 420 153 420 102.5 c 128,-1,5
 420 52 420 52 385 16 c 128,-1,6
 350 -20 350 -20 300 -20 c 128,-1,7
 250 -20 250 -20 215 16 c 128,-1,0
 180 52 180 52 180 102.5 c 128,-1,1
390 1550 m 1,8,-1
 400 1550 l 1,9,-1
 400 510 l 1,10,-1
 210 420 l 1,11,-1
 200 420 l 1,12,-1
 200 1460 l 1,13,-1
 390 1550 l 1,8,-1
EndSplineSet
Validated: 1
EndChar

StartChar: quotedbl
Encoding: 34 34 5
Width: 747
GlyphClass: 2
Flags: W
HStem: 992 558
VStem: 150 166<1066 1476> 431 166<1066 1476>
LayerCount: 2
Fore
SplineSet
587 1550 m 1,0,-1
 597 1550 l 1,1,-1
 597 1066 l 1,2,-1
 441 992 l 1,3,-1
 431 992 l 1,4,-1
 431 1476 l 1,5,-1
 587 1550 l 1,0,-1
306 1550 m 1,6,-1
 316 1550 l 1,7,-1
 316 1066 l 1,8,-1
 160 992 l 1,9,-1
 150 992 l 1,10,-1
 150 1476 l 1,11,-1
 306 1550 l 1,6,-1
EndSplineSet
Validated: 3073
EndChar

StartChar: numbersign
Encoding: 35 35 6
Width: 1368
GlyphClass: 2
Flags: W
HStem: 520 182<231 448 630 738 920 1137> 810 182<231 448 630 738 920 1137>
VStem: 448 182<303 520 702 810 992 1209> 738 182<303 520 702 810 992 1209>
LayerCount: 2
Fore
SplineSet
458 222 m 1,0,-1
 448 222 l 1,1,-1
 448 520 l 1,2,-1
 150 520 l 1,3,-1
 150 530 l 1,4,-1
 231 702 l 1,5,-1
 448 702 l 1,6,-1
 448 810 l 1,7,-1
 150 810 l 1,8,-1
 150 820 l 1,9,-1
 231 992 l 1,10,-1
 448 992 l 1,11,-1
 448 1209 l 1,12,-1
 620 1290 l 1,13,-1
 630 1290 l 1,14,-1
 630 992 l 1,15,-1
 738 992 l 1,16,-1
 738 1209 l 1,17,-1
 910 1290 l 1,18,-1
 920 1290 l 1,19,-1
 920 992 l 1,20,-1
 1218 992 l 1,21,-1
 1218 982 l 1,22,-1
 1137 810 l 1,23,-1
 920 810 l 1,24,-1
 920 702 l 1,25,-1
 1218 702 l 1,26,-1
 1218 692 l 1,27,-1
 1137 520 l 1,28,-1
 920 520 l 1,29,-1
 920 303 l 1,30,-1
 748 222 l 1,31,-1
 738 222 l 1,32,-1
 738 520 l 1,33,-1
 630 520 l 1,34,-1
 630 303 l 1,35,-1
 458 222 l 1,0,-1
630 702 m 1,36,-1
 738 702 l 1,37,-1
 738 810 l 1,38,-1
 630 810 l 1,39,-1
 630 702 l 1,36,-1
EndSplineSet
Validated: 3073
EndChar

StartChar: dollar
Encoding: 36 36 7
Width: 1330
GlyphClass: 2
Flags: W
HStem: 0 180<400.027 607 723 929.973> 730 180<471.558 607 723 929.973> 1330 180<471.558 607 723 858.442>
VStem: 160 200<222.253 460> 250 200<928.047 1311.95> 607 116<-190 0 180 730 910 1330 1510 1700> 880 200<1157 1311.95> 970 200<222.253 687.747>
LayerCount: 2
Fore
SplineSet
510 0 m 2,0,1
 160 0 160 0 160 350 c 2,2,-1
 160 460 l 1,3,-1
 350 550 l 1,4,-1
 360 550 l 1,5,-1
 360 350 l 2,6,7
 360 180 360 180 510 180 c 2,8,-1
 607 180 l 1,9,-1
 607 730 l 1,10,-1
 550 730 l 2,11,12
 250 730 250 730 250 1030 c 2,13,-1
 250 1210 l 2,14,15
 250 1510 250 1510 550 1510 c 2,16,-1
 607 1510 l 1,17,-1
 607 1700 l 1,18,-1
 713 1750 l 1,19,-1
 723 1750 l 1,20,-1
 723 1510 l 1,21,-1
 780 1510 l 2,22,23
 1080 1510 1080 1510 1080 1210 c 2,24,-1
 1080 1157 l 1,25,-1
 890 1067 l 1,26,-1
 880 1067 l 1,27,-1
 880 1210 l 2,28,29
 880 1330 880 1330 780 1330 c 2,30,-1
 723 1330 l 1,31,-1
 723 910 l 1,32,-1
 820 910 l 2,33,34
 1170 910 1170 910 1170 560 c 2,35,-1
 1170 350 l 2,36,37
 1170 0 1170 0 820 0 c 2,38,-1
 723 -0 l 1,39,-1
 723 -190 l 1,40,-1
 617 -240 l 1,41,-1
 607 -240 l 1,42,-1
 607 0 l 1,43,-1
 510 0 l 2,0,1
607 910 m 1,44,-1
 607 1330 l 1,45,-1
 550 1330 l 2,46,47
 450 1330 450 1330 450 1210 c 2,48,-1
 450 1030 l 2,49,50
 450 910 450 910 550 910 c 2,51,-1
 607 910 l 1,44,-1
723 730 m 1,52,-1
 723 180 l 1,53,-1
 820 180 l 2,54,55
 970 180 970 180 970 350 c 2,56,-1
 970 560 l 2,57,58
 970 730 970 730 820 730 c 2,59,-1
 723 730 l 1,52,-1
EndSplineSet
Validated: 1
EndChar

StartChar: percent
Encoding: 37 37 8
Width: 2144
GlyphClass: 2
Flags: W
HStem: -40 21G<746.529 807.317> 0 180<1385.56 1772.44> 580 180<1385.56 1772.44> 750 180<371.558 758.442> 1330 180<371.558 758.442> 1530 20G<1346.68 1407.47>
VStem: 150 200<948.047 1311.95> 780 200<948.047 1311.95> 1164 200<198.047 561.953> 1794 200<198.047 561.953>
DStem2: 647 28 798 -40 0.422266 0.906472<2.12205 1679.04>
LayerCount: 2
Fore
SplineSet
1464 180 m 2,0,-1
 1694 180 l 2,1,2
 1794 180 1794 180 1794 300 c 2,3,-1
 1794 460 l 2,4,5
 1794 580 1794 580 1694 580 c 2,6,-1
 1464 580 l 2,7,8
 1364 580 1364 580 1364 460 c 2,9,-1
 1364 300 l 2,10,11
 1364 180 1364 180 1464 180 c 2,0,-1
1464 0 m 2,12,13
 1164 0 1164 0 1164 300 c 2,14,-1
 1164 460 l 2,15,16
 1164 760 1164 760 1464 760 c 2,17,-1
 1694 760 l 2,18,19
 1994 760 1994 760 1994 460 c 2,20,-1
 1994 300 l 2,21,22
 1994 0 1994 0 1694 0 c 2,23,-1
 1464 0 l 2,12,13
450 930 m 2,24,-1
 680 930 l 2,25,26
 780 930 780 930 780 1050 c 2,27,-1
 780 1210 l 2,28,29
 780 1330 780 1330 680 1330 c 2,30,-1
 450 1330 l 2,31,32
 350 1330 350 1330 350 1210 c 2,33,-1
 350 1050 l 2,34,35
 350 930 350 930 450 930 c 2,24,-1
450 750 m 2,36,37
 150 750 150 750 150 1050 c 2,38,-1
 150 1210 l 2,39,40
 150 1510 150 1510 450 1510 c 2,41,-1
 680 1510 l 2,42,43
 980 1510 980 1510 980 1210 c 2,44,-1
 980 1050 l 2,45,46
 980 750 980 750 680 750 c 2,47,-1
 450 750 l 2,36,37
788 -40 m 1,48,-1
 647 28 l 1,49,-1
 1356 1550 l 1,50,-1
 1366 1550 l 1,51,-1
 1507 1482 l 1,52,-1
 798 -40 l 1,53,-1
 788 -40 l 1,48,-1
EndSplineSet
Validated: 1
EndChar

StartChar: ampersand
Encoding: 38 38 9
Width: 1720
GlyphClass: 2
Flags: W
HStem: -40 21G<1359.33 1428.44> 0 180<400.027 778> 746 180<466.787 726> 1330 180<471.558 858.442>
VStem: 160 200<222.253 711.095> 250 200<940.18 1311.95> 880 200<1137 1311.95>
DStem2: 818 926 726 746 0.642908 -0.765944<78.7224 477.065 676.893 1098.64> 1124 560 1240 418 0.6 0.8<0 420>
LayerCount: 2
Fore
SplineSet
778 180 m 17,0,1
 934 342 934 342 1006 416 c 1,2,-1
 726 746 l 9,3,-1
 510 746 l 2,4,5
 360 746 360 746 360 576 c 2,6,-1
 360 350 l 2,7,8
 360 180 360 180 510 180 c 2,9,-1
 778 180 l 17,0,1
858 0 m 9,10,-1
 510 0 l 2,11,12
 160 0 160 0 160 350 c 2,13,-1
 160 576 l 2,14,15
 160 787 160 787 308 871 c 1,16,17
 250 936 250 936 250 1046 c 2,18,-1
 250 1210 l 2,19,20
 250 1510 250 1510 550 1510 c 2,21,-1
 780 1510 l 2,22,23
 1080 1510 1080 1510 1080 1210 c 2,24,-1
 1080 1137 l 17,25,-1
 890 1047 l 1,26,-1
 880 1047 l 9,27,-1
 880 1210 l 2,28,29
 880 1330 880 1330 780 1330 c 2,30,-1
 550 1330 l 2,31,32
 450 1330 450 1330 450 1210 c 2,33,-1
 450 1046 l 2,34,35
 450 926 450 926 550 926 c 2,36,-1
 818 926 l 17,37,-1
 1124 560 l 1,38,-1
 1376 896 l 1,39,-1
 1386 896 l 1,40,-1
 1558 814 l 1,41,-1
 1240 418 l 1,42,-1
 1560 42 l 1,43,-1
 1386 -40 l 1,44,-1
 1376 -40 l 1,45,-1
 1106 284 l 1,46,-1
 858 0 l 9,10,-1
EndSplineSet
Validated: 1
EndChar

StartChar: quotesingle
Encoding: 39 39 10
Width: 466
GlyphClass: 2
Flags: W
HStem: 992 558
VStem: 150 166<1066 1476>
LayerCount: 2
Fore
SplineSet
306 1550 m 1,0,-1
 316 1550 l 1,1,-1
 316 1066 l 1,2,-1
 160 992 l 1,3,-1
 150 992 l 1,4,-1
 150 1476 l 1,5,-1
 306 1550 l 1,0,-1
EndSplineSet
Validated: 3073
EndChar

StartChar: parenleft
Encoding: 40 40 11
Width: 755
GlyphClass: 2
Flags: W
HStem: -240 180<496.162 705> 1570 180<496.162 705>
VStem: 200 200<14.1963 1495.8>
LayerCount: 2
Fore
SplineSet
705 1750 m 1,0,-1
 705 1570 l 1,1,2
 605 1570 605 1570 521 1537 c 0,3,4
 400 1489 400 1489 400 1420 c 2,5,-1
 400 90 l 2,6,7
 400 21 400 21 521 -27 c 0,8,9
 605 -60 605 -60 705 -60 c 1,10,-1
 705 -240 l 1,11,12
 554 -240 554 -240 427 -187 c 0,13,14
 200 -93 200 -93 200 90 c 2,15,-1
 200 1420 l 2,16,17
 200 1603 200 1603 427 1697 c 0,18,19
 554 1750 554 1750 705 1750 c 1,0,-1
EndSplineSet
Validated: 1
EndChar

StartChar: parenright
Encoding: 41 41 12
Width: 755
GlyphClass: 2
Flags: W
HStem: -240 180<50 258.838> 1570 180<50 258.838>
VStem: 355 200<14.1963 1495.8>
LayerCount: 2
Fore
SplineSet
50 1750 m 1,0,1
 201 1750 201 1750 328 1697 c 0,2,3
 555 1603 555 1603 555 1420 c 2,4,-1
 555 90 l 2,5,6
 555 -93 555 -93 328 -187 c 0,7,8
 201 -240 201 -240 50 -240 c 1,9,-1
 50 -60 l 1,10,11
 150 -60 150 -60 234 -27 c 0,12,13
 355 21 355 21 355 90 c 2,14,-1
 355 1420 l 2,15,16
 355 1489 355 1489 234 1537 c 0,17,18
 150 1570 150 1570 50 1570 c 1,19,-1
 50 1750 l 1,0,1
EndSplineSet
Validated: 1
EndChar

StartChar: asterisk
Encoding: 42 42 13
Width: 1183
GlyphClass: 2
Flags: W
HStem: 1530 20G<629.531 682>
VStem: 500 182<717 955 1231 1469>
LayerCount: 2
Fore
SplineSet
682 1550 m 1,0,-1
 682 1231 l 1,1,-1
 871 1360 l 1,2,-1
 1028 1251 l 1,3,-1
 1033 1243 l 1,4,-1
 753 1093 l 1,5,-1
 1033 943 l 1,6,-1
 1028 935 l 1,7,-1
 871 826 l 1,8,-1
 682 955 l 1,9,-1
 682 717 l 1,10,-1
 510 636 l 1,11,-1
 500 636 l 1,12,-1
 500 955 l 1,13,-1
 311 826 l 1,14,-1
 155 935 l 1,15,-1
 150 943 l 1,16,-1
 429 1093 l 1,17,-1
 150 1243 l 1,18,-1
 155 1251 l 1,19,-1
 311 1360 l 1,20,-1
 500 1231 l 1,21,-1
 500 1469 l 1,22,-1
 672 1550 l 1,23,-1
 682 1550 l 1,0,-1
EndSplineSet
Validated: 1
EndChar

StartChar: plus
Encoding: 43 43 14
Width: 1214
GlyphClass: 2
Flags: W
HStem: 664 182<231 516 698 983>
VStem: 516 182<379 664 846 1131>
LayerCount: 2
Fore
SplineSet
698 1212 m 1,0,-1
 698 846 l 1,1,-1
 1064 846 l 1,2,-1
 1064 836 l 1,3,-1
 983 664 l 1,4,-1
 698 664 l 1,5,-1
 698 379 l 1,6,-1
 526 298 l 1,7,-1
 516 298 l 1,8,-1
 516 664 l 1,9,-1
 150 664 l 1,10,-1
 150 674 l 1,11,-1
 231 846 l 1,12,-1
 516 846 l 1,13,-1
 516 1131 l 1,14,-1
 688 1212 l 1,15,-1
 698 1212 l 1,0,-1
EndSplineSet
Validated: 3073
EndChar

StartChar: comma
Encoding: 44 44 15
Width: 609
GlyphClass: 2
Flags: W
HStem: -286 564
VStem: 284 175<-116.943 108.616>
LayerCount: 2
Fore
SplineSet
340 278 m 1,0,-1
 350 278 l 1,1,2
 459 171 459 171 459 34 c 0,3,4
 459 -157 459 -157 214 -286 c 1,5,-1
 171 -236 l 1,6,7
 284 -121 284 -121 284 -20 c 0,8,9
 284 101 284 101 150 188 c 1,10,-1
 340 278 l 1,0,-1
EndSplineSet
Validated: 1
EndChar

StartChar: hyphen
Encoding: 45 45 16
Width: 1214
GlyphClass: 2
Flags: W
HStem: 664 182<231 983>
LayerCount: 2
Fore
SplineSet
150 664 m 1,0,-1
 150 674 l 1,1,-1
 231 846 l 1,2,-1
 1064 846 l 1,3,-1
 1064 836 l 1,4,-1
 983 664 l 1,5,-1
 150 664 l 1,0,-1
EndSplineSet
Validated: 3073
EndChar

StartChar: period
Encoding: 46 46 17
Width: 600
GlyphClass: 2
Flags: W
HStem: -20 245<216.097 383.903>
VStem: 180 240<17.1285 187.871>
LayerCount: 2
Fore
SplineSet
180 102.5 m 128,-1,1
 180 153 180 153 215 189 c 128,-1,2
 250 225 250 225 300 225 c 128,-1,3
 350 225 350 225 385 189 c 128,-1,4
 420 153 420 153 420 102.5 c 128,-1,5
 420 52 420 52 385 16 c 128,-1,6
 350 -20 350 -20 300 -20 c 128,-1,7
 250 -20 250 -20 215 16 c 128,-1,0
 180 52 180 52 180 102.5 c 128,-1,1
EndSplineSet
Validated: 1
EndChar

StartChar: slash
Encoding: 47 47 18
Width: 974
GlyphClass: 2
Flags: W
DStem2: 10 -72 161 -140 0.422626 0.906304<2.18787 1899.6>
LayerCount: 2
Fore
SplineSet
151 -140 m 1,0,-1
 10 -72 l 1,1,-1
 812 1650 l 1,2,-1
 822 1650 l 1,3,-1
 964 1582 l 1,4,-1
 161 -140 l 1,5,-1
 151 -140 l 1,0,-1
EndSplineSet
Validated: 3073
EndChar

StartChar: zero
Encoding: 48 48 19
Width: 1410
GlyphClass: 2
Flags: W
HStem: 0 180<440.027 969.973> 1330 180<440.027 969.973>
VStem: 200 200<222.253 1287.75> 1010 200<222.253 1287.75>
LayerCount: 2
Fore
SplineSet
550 180 m 2,0,-1
 860 180 l 2,1,2
 1010 180 1010 180 1010 350 c 2,3,-1
 1010 1160 l 2,4,5
 1010 1330 1010 1330 860 1330 c 2,6,-1
 550 1330 l 2,7,8
 400 1330 400 1330 400 1160 c 2,9,-1
 400 350 l 2,10,11
 400 180 400 180 550 180 c 2,0,-1
550 0 m 2,12,13
 200 0 200 0 200 350 c 2,14,-1
 200 1160 l 2,15,16
 200 1510 200 1510 550 1510 c 2,17,-1
 860 1510 l 2,18,19
 1210 1510 1210 1510 1210 1160 c 2,20,-1
 1210 350 l 2,21,22
 1210 0 1210 0 860 0 c 2,23,-1
 550 0 l 2,12,13
EndSplineSet
Validated: 1
EndChar

StartChar: one
Encoding: 49 49 20
Width: 714
GlyphClass: 2
Flags: W
HStem: -40 21G<264 316.222> 1138 21G<20 56.4179> 1530 20G<412.068 464>
VStem: 264 200<50 1272>
LayerCount: 2
Fore
SplineSet
264 -40 m 1,0,-1
 264 1272 l 1,1,-1
 20 1138 l 1,2,-1
 20 1343 l 1,3,-1
 454 1550 l 1,4,-1
 464 1550 l 1,5,-1
 464 50 l 1,6,-1
 274 -40 l 1,7,-1
 264 -40 l 1,0,-1
EndSplineSet
Validated: 1
EndChar

StartChar: two
Encoding: 50 50 21
Width: 1333
GlyphClass: 2
Flags: W
HStem: 0 182<472 1092> 1330 180<400.027 909.973>
VStem: 160 200<1050 1287.75> 950 200<878.433 1287.75>
DStem2: 231 182 472 182 0.718264 0.695771<173.102 1012.68>
LayerCount: 2
Fore
SplineSet
150 0 m 1,0,-1
 150 10 l 1,1,-1
 231 182 l 1,2,-1
 710 646 l 17,3,4
 950 882 950 882 950 997 c 2,5,-1
 950 1160 l 2,6,7
 950 1330 950 1330 800 1330 c 2,8,-1
 510 1330 l 2,9,10
 360 1330 360 1330 360 1160 c 2,11,-1
 360 1050 l 1,12,-1
 170 960 l 1,13,-1
 160 960 l 1,14,-1
 160 1160 l 2,15,16
 160 1510 160 1510 510 1510 c 2,17,-1
 800 1510 l 2,18,19
 1150 1510 1150 1510 1150 1160 c 2,20,-1
 1150 987 l 2,21,22
 1150 797 1150 797 893 570 c 9,23,-1
 472 182 l 1,24,-1
 1173 182 l 1,25,-1
 1173 172 l 1,26,-1
 1092 0 l 1,27,-1
 150 0 l 1,0,-1
EndSplineSet
Validated: 1
EndChar

StartChar: three
Encoding: 51 51 22
Width: 1330
GlyphClass: 2
Flags: W
HStem: 0 180<400.027 929.973> 752 180<751 929.973> 1328 182<330 773>
VStem: 160 200<222.253 460> 970 200<222.253 709.747>
LayerCount: 2
Fore
SplineSet
510 0 m 2,0,1
 160 0 160 0 160 350 c 2,2,-1
 160 460 l 1,3,-1
 350 550 l 1,4,-1
 360 550 l 1,5,-1
 360 350 l 2,6,7
 360 180 360 180 510 180 c 2,8,-1
 820 180 l 2,9,10
 970 180 970 180 970 350 c 2,11,-1
 970 582 l 2,12,13
 970 752 970 752 820 752 c 2,14,15
 466 752 l 17,16,-1
 773 1328 l 1,17,-1
 249 1328 l 1,18,-1
 249 1338 l 1,19,-1
 330 1510 l 1,20,-1
 1083 1510 l 1,21,-1
 751 932 l 9,22,-1
 820 932 l 2,23,24
 1170 932 1170 932 1170 582 c 2,25,-1
 1170 350 l 2,26,27
 1170 0 1170 0 820 0 c 2,28,-1
 510 0 l 2,0,1
EndSplineSet
Validated: 1
EndChar

StartChar: four
Encoding: 52 52 23
Width: 1188
GlyphClass: 2
Flags: W
HStem: -40 21G<738 790.222> 358 182<303 738 938 1007> 1530 20G<885.778 938>
VStem: 738 200<50 358 540 1186>
LayerCount: 2
Fore
SplineSet
738 540 m 1,0,-1
 738 1186 l 1,1,-1
 303 540 l 1,2,-1
 738 540 l 1,0,-1
738 -40 m 1,3,-1
 738 358 l 1,4,-1
 5 358 l 1,5,-1
 5 368 l 1,6,-1
 86 540 l 1,7,-1
 738 1460 l 1,8,-1
 928 1550 l 1,9,-1
 938 1550 l 1,10,-1
 938 540 l 1,11,-1
 1088 540 l 1,12,-1
 1088 530 l 1,13,-1
 1007 358 l 1,14,-1
 938 358 l 1,15,-1
 938 50 l 1,16,-1
 748 -40 l 1,17,-1
 738 -40 l 1,3,-1
EndSplineSet
Validated: 1
EndChar

StartChar: five
Encoding: 53 53 24
Width: 1330
GlyphClass: 2
Flags: W
HStem: 0 180<400.027 929.973> 752 180<450 929.973> 1328 182<552 1012>
VStem: 160 200<222.253 460> 970 200<222.253 709.747>
DStem2: 233 853 450 932 0.246352 0.96918<130.024 538.947>
LayerCount: 2
Fore
SplineSet
510 0 m 2,0,1
 160 0 160 0 160 350 c 2,2,-1
 160 460 l 1,3,-1
 350 550 l 1,4,-1
 360 550 l 1,5,-1
 360 350 l 2,6,7
 360 180 360 180 510 180 c 2,8,-1
 820 180 l 2,9,10
 970 180 970 180 970 350 c 2,11,-1
 970 582 l 2,12,13
 970 752 970 752 820 752 c 2,14,-1
 442 752 l 17,15,-1
 233 853 l 1,16,-1
 400 1510 l 1,17,-1
 1093 1510 l 1,18,-1
 1093 1500 l 1,19,-1
 1012 1328 l 1,20,-1
 552 1328 l 1,21,-1
 450 932 l 9,22,-1
 820 932 l 2,23,24
 1170 932 1170 932 1170 582 c 2,25,-1
 1170 350 l 2,26,27
 1170 0 1170 0 820 0 c 2,28,-1
 510 0 l 2,0,1
EndSplineSet
Validated: 1
EndChar

StartChar: six
Encoding: 54 54 25
Width: 1410
GlyphClass: 2
Flags: W
HStem: 0 180<440.027 969.973> 778 180<437.5 969.973> 1330 180<440.027 949.973>
VStem: 200 200<222.253 743.095 916 1287.75> 990 200<1130 1287.75> 1010 200<222.253 735.747>
LayerCount: 2
Fore
SplineSet
550 180 m 2,0,-1
 860 180 l 2,1,2
 1010 180 1010 180 1010 350 c 2,3,-1
 1010 608 l 2,4,5
 1010 778 1010 778 860 778 c 2,6,-1
 550 778 l 2,7,8
 400 778 400 778 400 608 c 2,9,-1
 400 350 l 2,10,11
 400 180 400 180 550 180 c 2,0,-1
550 0 m 2,12,13
 200 0 200 0 200 350 c 2,14,-1
 200 1160 l 2,15,16
 200 1510 200 1510 550 1510 c 2,17,-1
 840 1510 l 2,18,19
 1190 1510 1190 1510 1190 1160 c 2,20,-1
 1190 1130 l 1,21,-1
 1000 1040 l 1,22,-1
 990 1040 l 1,23,-1
 990 1160 l 2,24,25
 990 1330 990 1330 840 1330 c 2,26,-1
 550 1330 l 2,27,28
 400 1330 400 1330 400 1160 c 2,29,-1
 400 916 l 1,30,31
 470 958 470 958 550 958 c 2,32,-1
 860 958 l 2,33,34
 1210 958 1210 958 1210 608 c 2,35,-1
 1210 350 l 2,36,37
 1210 0 1210 0 860 0 c 2,38,-1
 550 0 l 2,12,13
EndSplineSet
Validated: 1
EndChar

StartChar: seven
Encoding: 55 55 26
Width: 1047
GlyphClass: 2
Flags: W
HStem: -40 21G<405.647 465> 1328 182<131 726>
DStem2: 268 45 458 -40 0.33035 0.943858<0 1362.27>
LayerCount: 2
Fore
SplineSet
458 -40 m 1,0,-1
 448 -40 l 1,1,-1
 268 45 l 1,2,-1
 726 1328 l 1,3,-1
 50 1328 l 1,4,-1
 50 1338 l 1,5,-1
 131 1510 l 1,6,-1
 997 1510 l 1,7,-1
 997 1500 l 1,8,-1
 458 -40 l 1,0,-1
EndSplineSet
Validated: 1
EndChar

StartChar: eight
Encoding: 56 56 27
Width: 1330
GlyphClass: 2
Flags: W
HStem: 0 180<400.027 929.973> 746 180<466.787 863.213> 1330 180<471.558 858.442>
VStem: 160 200<222.253 711.095> 250 200<940.18 1311.95> 880 200<940.18 1311.95> 970 200<222.253 711.095>
LayerCount: 2
Fore
SplineSet
510 0 m 2,0,1
 160 0 160 0 160 350 c 2,2,-1
 160 576 l 2,3,4
 160 787 160 787 308 871 c 1,5,6
 250 936 250 936 250 1046 c 2,7,-1
 250 1210 l 2,8,9
 250 1510 250 1510 550 1510 c 2,10,-1
 780 1510 l 2,11,12
 1080 1510 1080 1510 1080 1210 c 2,13,-1
 1080 1046 l 2,14,15
 1080 936 1080 936 1022 871 c 1,16,17
 1170 787 1170 787 1170 576 c 2,18,-1
 1170 350 l 2,19,20
 1170 0 1170 0 820 0 c 2,21,-1
 510 0 l 2,0,1
510 180 m 2,22,-1
 820 180 l 2,23,24
 970 180 970 180 970 350 c 2,25,-1
 970 576 l 2,26,27
 970 746 970 746 820 746 c 2,28,-1
 510 746 l 2,29,30
 360 746 360 746 360 576 c 2,31,-1
 360 350 l 2,32,33
 360 180 360 180 510 180 c 2,22,-1
550 926 m 2,34,-1
 780 926 l 2,35,36
 880 926 880 926 880 1046 c 2,37,-1
 880 1210 l 2,38,39
 880 1330 880 1330 780 1330 c 2,40,-1
 550 1330 l 2,41,42
 450 1330 450 1330 450 1210 c 2,43,-1
 450 1046 l 2,44,45
 450 926 450 926 550 926 c 2,34,-1
EndSplineSet
Validated: 1
EndChar

StartChar: nine
Encoding: 57 57 28
Width: 1410
GlyphClass: 2
Flags: W
HStem: 0 180<460.027 969.973> 552 180<440.027 972.5> 1330 180<440.027 969.973>
VStem: 200 200<774.253 1287.75> 220 200<222.253 380> 1010 200<222.253 594 766.905 1287.75>
LayerCount: 2
Fore
SplineSet
550 732 m 2,0,-1
 860 732 l 2,1,2
 1010 732 1010 732 1010 902 c 2,3,-1
 1010 1160 l 2,4,5
 1010 1330 1010 1330 860 1330 c 2,6,-1
 550 1330 l 2,7,8
 400 1330 400 1330 400 1160 c 2,9,-1
 400 902 l 2,10,11
 400 732 400 732 550 732 c 2,0,-1
570 0 m 2,12,13
 220 0 220 0 220 350 c 2,14,-1
 220 380 l 1,15,-1
 410 470 l 1,16,-1
 420 470 l 1,17,-1
 420 350 l 2,18,19
 420 180 420 180 570 180 c 2,20,-1
 860 180 l 2,21,22
 1010 180 1010 180 1010 350 c 2,23,-1
 1010 594 l 1,24,25
 940 552 940 552 860 552 c 2,26,-1
 550 552 l 2,27,28
 200 552 200 552 200 902 c 2,29,-1
 200 1160 l 2,30,31
 200 1510 200 1510 550 1510 c 2,32,-1
 860 1510 l 2,33,34
 1210 1510 1210 1510 1210 1160 c 2,35,-1
 1210 350 l 2,36,37
 1210 0 1210 0 860 0 c 2,38,-1
 570 0 l 2,12,13
EndSplineSet
Validated: 1
EndChar

StartChar: colon
Encoding: 58 58 29
Width: 600
GlyphClass: 2
Flags: W
HStem: -20 245<216.097 383.903> 631 245<216.097 383.903>
VStem: 180 240<17.1285 187.871 668.129 838.871>
LayerCount: 2
Fore
SplineSet
180 753.5 m 128,-1,1
 180 804 180 804 215 840 c 128,-1,2
 250 876 250 876 300 876 c 128,-1,3
 350 876 350 876 385 840 c 128,-1,4
 420 804 420 804 420 753.5 c 128,-1,5
 420 703 420 703 385 667 c 128,-1,6
 350 631 350 631 300 631 c 128,-1,7
 250 631 250 631 215 667 c 128,-1,0
 180 703 180 703 180 753.5 c 128,-1,1
180 102.5 m 128,-1,9
 180 153 180 153 215 189 c 128,-1,10
 250 225 250 225 300 225 c 128,-1,11
 350 225 350 225 385 189 c 128,-1,12
 420 153 420 153 420 102.5 c 128,-1,13
 420 52 420 52 385 16 c 128,-1,14
 350 -20 350 -20 300 -20 c 128,-1,15
 250 -20 250 -20 215 16 c 128,-1,8
 180 52 180 52 180 102.5 c 128,-1,9
EndSplineSet
Validated: 1
EndChar

StartChar: semicolon
Encoding: 59 59 30
Width: 600
GlyphClass: 2
Flags: W
HStem: 631 245<216.097 383.903>
VStem: 180 240<668.129 838.871> 275 175<-116.943 108.616>
LayerCount: 2
Fore
SplineSet
205 -286 m 1,0,1
 162 -236 l 1,2,3
 275 -121 275 -121 275 -20 c 0,4,5
 275 101 275 101 141 188 c 1,6,7
 331 278 l 1,8,-1
 341 278 l 1,9,10
 450 171 450 171 450 34 c 0,11,12
 450 -157 450 -157 205 -286 c 1,0,1
180 753.5 m 128,-1,14
 180 804 180 804 215 840 c 128,-1,15
 250 876 250 876 300 876 c 128,-1,16
 350 876 350 876 385 840 c 128,-1,17
 420 804 420 804 420 753.5 c 128,-1,18
 420 703 420 703 385 667 c 128,-1,19
 350 631 350 631 300 631 c 128,-1,20
 250 631 250 631 215 667 c 128,-1,13
 180 703 180 703 180 753.5 c 128,-1,14
EndSplineSet
Validated: 1
EndChar

StartChar: less
Encoding: 60 60 31
Width: 1338
GlyphClass: 2
Flags: W
DStem2: 454 738 150 664 0.919983 -0.391958<0 734.13> 232 847 454 738 0.920009 0.391897<161.525 895.643>
LayerCount: 2
Fore
SplineSet
150 664 m 1,0,-1
 150 674 l 1,1,-1
 232 847 l 1,2,-1
 1056 1198 l 1,3,-1
 1138 1025 l 1,4,-1
 1138 1015 l 1,5,-1
 454 738 l 1,6,-1
 1138 461 l 1,7,-1
 1138 451 l 1,8,-1
 1056 278 l 1,9,-1
 150 664 l 1,0,-1
EndSplineSet
Validated: 1
EndChar

StartChar: equal
Encoding: 61 61 32
Width: 1214
GlyphClass: 2
Flags: W
HStem: 482 182<231 983> 846 182<231 983>
LayerCount: 2
Fore
SplineSet
150 846 m 1,0,-1
 150 856 l 1,1,-1
 231 1028 l 1,2,-1
 1064 1028 l 1,3,-1
 1064 1018 l 1,4,-1
 983 846 l 1,5,-1
 150 846 l 1,0,-1
150 482 m 1,6,-1
 150 492 l 1,7,-1
 231 664 l 1,8,-1
 1064 664 l 1,9,-1
 1064 654 l 1,10,-1
 983 482 l 1,11,-1
 150 482 l 1,6,-1
EndSplineSet
Validated: 3073
EndChar

StartChar: greater
Encoding: 62 62 33
Width: 1338
GlyphClass: 2
Flags: W
DStem2: 282 1198 200 1015 0.919983 -0.391958<0 734.13> 200 461 282 278 0.920009 0.391897<3.72358 737.842>
LayerCount: 2
Fore
SplineSet
1188 812 m 1,0,-1
 1188 802 l 1,1,-1
 1106 629 l 1,2,-1
 282 278 l 1,3,-1
 200 451 l 1,4,-1
 200 461 l 1,5,-1
 884 738 l 1,6,-1
 200 1015 l 1,7,-1
 200 1025 l 1,8,-1
 282 1198 l 1,9,-1
 1188 812 l 1,0,-1
EndSplineSet
Validated: 1
EndChar

StartChar: question
Encoding: 63 63 34
Width: 1310
GlyphClass: 2
Flags: W
HStem: -20 245<561.097 728.903> 1330 180<390.027 919.973>
VStem: 150 200<1050 1287.75> 525 240<17.1285 187.871> 528 203<454 554.418> 960 200<914.208 1287.75>
LayerCount: 2
Fore
SplineSet
150 960 m 1,0,-1
 150 1160 l 2,1,2
 150 1510 150 1510 500 1510 c 2,3,-1
 810 1510 l 2,4,5
 1160 1510 1160 1510 1160 1160 c 2,6,-1
 1160 1050 l 2,7,8
 1160 803 1160 803 821 591 c 24,9,10
 734 537 734 537 731 454 c 1,11,-1
 538 361 l 1,12,-1
 528 361 l 1,13,14
 529 615 529 615 703 722 c 24,15,16
 960 880 960 880 960 1051 c 2,17,-1
 960 1160 l 2,18,19
 960 1330 960 1330 810 1330 c 2,20,-1
 500 1330 l 2,21,22
 350 1330 350 1330 350 1160 c 2,23,-1
 350 1050 l 1,24,-1
 160 960 l 1,25,-1
 150 960 l 1,0,-1
525 102.5 m 128,-1,27
 525 153 525 153 560 189 c 128,-1,28
 595 225 595 225 645 225 c 128,-1,29
 695 225 695 225 730 189 c 128,-1,30
 765 153 765 153 765 102.5 c 128,-1,31
 765 52 765 52 730 16 c 128,-1,32
 695 -20 695 -20 645 -20 c 128,-1,33
 595 -20 595 -20 560 16 c 128,-1,26
 525 52 525 52 525 102.5 c 128,-1,27
EndSplineSet
Validated: 1
EndChar

StartChar: at
Encoding: 64 64 35
Width: 1370
GlyphClass: 2
Flags: W
HStem: -410 180<420.027 800> -40 21G<990 1042.22> 0 180<710.558 974.236> 494 180<710.558 974.236> 920 180<420.027 968.442>
VStem: 180 200<-187.747 877.747> 489 200<198.047 475.953> 990 200<194.18 479.82 664 901.953>
LayerCount: 2
Fore
SplineSet
789 0 m 2,0,1
 489 0 489 0 489 300 c 2,2,-1
 489 374 l 2,3,4
 489 674 489 674 789 674 c 2,5,-1
 890 674 l 2,6,7
 945 674 945 674 990 664 c 1,8,-1
 990 800 l 2,9,10
 990 920 990 920 890 920 c 2,11,-1
 530 920 l 2,12,13
 380 920 380 920 380 750 c 2,14,-1
 380 -60 l 2,15,16
 380 -230 380 -230 530 -230 c 2,17,-1
 800 -230 l 25,18,-1
 800 -410 l 25,19,-1
 530 -410 l 2,20,21
 180 -410 180 -410 180 -60 c 2,22,-1
 180 750 l 2,23,24
 180 1100 180 1100 530 1100 c 2,25,-1
 890 1100 l 2,26,27
 1190 1100 1190 1100 1190 800 c 2,28,-1
 1190 50 l 1,29,-1
 1000 -40 l 1,30,-1
 990 -40 l 1,31,-1
 990 10 l 1,32,33
 945 0 945 0 890 0 c 2,34,-1
 789 0 l 2,0,1
789 180 m 2,35,-1
 890 180 l 2,36,37
 990 180 990 180 990 300 c 2,38,-1
 990 374 l 2,39,40
 990 494 990 494 890 494 c 2,41,-1
 789 494 l 2,42,43
 689 494 689 494 689 374 c 2,44,-1
 689 300 l 2,45,46
 689 180 689 180 789 180 c 2,35,-1
EndSplineSet
Validated: 1
EndChar

StartChar: A
Encoding: 65 65 36
Width: 1410
GlyphClass: 2
Flags: W
HStem: -40 21G<200 252.222 1010 1062.22> 664 182<400 1010> 1330 180<440.027 969.973>
VStem: 200 200<50 664 846 1287.75> 1010 200<50 664 846 1287.75>
LayerCount: 2
Fore
SplineSet
200 -40 m 1,0,-1
 200 1160 l 2,1,2
 200 1510 200 1510 550 1510 c 2,3,-1
 860 1510 l 2,4,5
 1210 1510 1210 1510 1210 1160 c 2,6,-1
 1210 50 l 1,7,-1
 1020 -40 l 1,8,-1
 1010 -40 l 1,9,-1
 1010 664 l 1,10,-1
 400 664 l 1,11,-1
 400 50 l 1,12,-1
 210 -40 l 1,13,-1
 200 -40 l 1,0,-1
400 846 m 1,14,-1
 1010 846 l 1,15,-1
 1010 1160 l 2,16,17
 1010 1330 1010 1330 860 1330 c 2,18,-1
 550 1330 l 2,19,20
 400 1330 400 1330 400 1160 c 2,21,-1
 400 846 l 1,14,-1
EndSplineSet
Validated: 1
EndChar

StartChar: B
Encoding: 66 66 37
Width: 1370
GlyphClass: 2
Flags: W
HStem: 0 180<400 949.973> 746 180<400 883.213> 1330 180<400 878.442>
VStem: 200 200<180 746 926 1330> 900 200<940.18 1311.95> 990 200<222.253 711.095>
LayerCount: 2
Fore
SplineSet
200 0 m 1,0,-1
 200 1460 l 1,1,-1
 306 1510 l 1,2,-1
 800 1510 l 2,3,4
 1100 1510 1100 1510 1100 1210 c 2,5,-1
 1100 1046 l 2,6,7
 1100 936 1100 936 1042 871 c 1,8,9
 1190 787 1190 787 1190 576 c 2,10,-1
 1190 350 l 2,11,12
 1190 0 1190 0 840 0 c 2,13,-1
 200 0 l 1,0,-1
400 180 m 1,14,-1
 840 180 l 2,15,16
 990 180 990 180 990 350 c 2,17,-1
 990 576 l 2,18,19
 990 746 990 746 840 746 c 2,20,-1
 400 746 l 1,21,-1
 400 180 l 1,14,-1
400 926 m 1,22,-1
 800 926 l 2,23,24
 900 926 900 926 900 1046 c 2,25,-1
 900 1210 l 2,26,27
 900 1330 900 1330 800 1330 c 2,28,-1
 400 1330 l 1,29,-1
 400 926 l 1,22,-1
EndSplineSet
Validated: 1
EndChar

StartChar: C
Encoding: 67 67 38
Width: 1410
GlyphClass: 2
Flags: W
HStem: 0 180<440.027 969.973> 1330 180<440.027 969.973>
VStem: 200 200<222.253 1287.75> 1010 200<222.253 460 1050 1287.75>
LayerCount: 2
Fore
SplineSet
550 0 m 2,0,1
 200 0 200 0 200 350 c 2,2,-1
 200 1160 l 2,3,4
 200 1510 200 1510 550 1510 c 2,5,-1
 860 1510 l 2,6,7
 1210 1510 1210 1510 1210 1160 c 2,8,-1
 1210 1050 l 1,9,-1
 1020 960 l 1,10,-1
 1010 960 l 1,11,-1
 1010 1160 l 2,12,13
 1010 1330 1010 1330 860 1330 c 2,14,-1
 550 1330 l 2,15,16
 400 1330 400 1330 400 1160 c 2,17,-1
 400 350 l 2,18,19
 400 180 400 180 550 180 c 2,20,-1
 860 180 l 2,21,22
 1010 180 1010 180 1010 350 c 2,23,-1
 1010 460 l 1,24,-1
 1200 550 l 1,25,-1
 1210 550 l 1,26,-1
 1210 350 l 2,27,28
 1210 0 1210 0 860 0 c 2,29,-1
 550 0 l 2,0,1
EndSplineSet
Validated: 1
EndChar

StartChar: D
Encoding: 68 68 39
Width: 1390
GlyphClass: 2
Flags: W
HStem: 0 180<400 949.973> 1330 180<400 949.973>
VStem: 200 200<180 1330> 990 200<222.253 1287.75>
LayerCount: 2
Fore
SplineSet
400 180 m 1,0,-1
 840 180 l 2,1,2
 990 180 990 180 990 350 c 2,3,-1
 990 1160 l 2,4,5
 990 1330 990 1330 840 1330 c 2,6,-1
 400 1330 l 1,7,-1
 400 180 l 1,0,-1
200 0 m 1,8,-1
 200 1460 l 1,9,-1
 306 1510 l 1,10,-1
 840 1510 l 2,11,12
 1190 1510 1190 1510 1190 1160 c 2,13,-1
 1190 350 l 2,14,15
 1190 0 1190 0 840 0 c 2,16,-1
 200 0 l 1,8,-1
EndSplineSet
Validated: 1
EndChar

StartChar: E
Encoding: 69 69 40
Width: 1157
GlyphClass: 2
Flags: W
HStem: 0 182<400 1026> 664 182<400 859> 1328 182<400 859>
VStem: 200 200<182 664 846 1328>
CounterMasks: 1 e0
LayerCount: 2
Fore
SplineSet
200 0 m 1,0,-1
 200 1460 l 1,1,-1
 306 1510 l 1,2,-1
 940 1510 l 1,3,-1
 940 1500 l 1,4,-1
 859 1328 l 1,5,-1
 400 1328 l 1,6,-1
 400 846 l 1,7,-1
 940 846 l 1,8,-1
 940 836 l 1,9,-1
 859 664 l 1,10,-1
 400 664 l 1,11,-1
 400 182 l 1,12,-1
 1107 182 l 1,13,-1
 1107 172 l 1,14,-1
 1026 0 l 1,15,-1
 200 0 l 1,0,-1
EndSplineSet
Validated: 1
EndChar

StartChar: F
Encoding: 70 70 41
Width: 1120
GlyphClass: 2
Flags: W
HStem: -40 21G<200 252.222> 664 182<400 859> 1328 182<400 859>
VStem: 200 200<50 664 846 1328>
LayerCount: 2
Fore
SplineSet
200 -40 m 1,0,-1
 200 1460 l 1,1,-1
 306 1510 l 1,2,-1
 940 1510 l 1,3,-1
 940 1500 l 1,4,-1
 859 1328 l 1,5,-1
 400 1328 l 1,6,-1
 400 846 l 1,7,-1
 940 846 l 1,8,-1
 940 836 l 1,9,-1
 859 664 l 1,10,-1
 400 664 l 1,11,-1
 400 50 l 1,12,-1
 210 -40 l 1,13,-1
 200 -40 l 1,0,-1
EndSplineSet
Validated: 1
EndChar

StartChar: G
Encoding: 71 71 42
Width: 1410
GlyphClass: 2
Flags: W
HStem: 0 180<440.027 969.973> 664 182<743 1010> 1330 180<440.027 969.973>
VStem: 200 200<222.253 1287.75> 1010 200<222.253 664 1050 1287.75>
CounterMasks: 1 e0
LayerCount: 2
Fore
SplineSet
550 0 m 2,0,1
 200 0 200 0 200 350 c 2,2,-1
 200 1160 l 2,3,4
 200 1510 200 1510 550 1510 c 2,5,-1
 860 1510 l 2,6,7
 1210 1510 1210 1510 1210 1160 c 2,8,-1
 1210 1050 l 1,9,-1
 1020 960 l 1,10,-1
 1010 960 l 1,11,-1
 1010 1160 l 2,12,13
 1010 1330 1010 1330 860 1330 c 2,14,-1
 550 1330 l 2,15,16
 400 1330 400 1330 400 1160 c 2,17,-1
 400 350 l 2,18,19
 400 180 400 180 550 180 c 2,20,-1
 860 180 l 2,21,22
 1010 180 1010 180 1010 350 c 2,23,-1
 1010 664 l 1,24,-1
 662 664 l 1,25,-1
 662 674 l 1,26,-1
 743 846 l 1,27,-1
 1210 846 l 1,28,-1
 1210 350 l 2,29,30
 1210 0 1210 0 860 0 c 2,31,-1
 550 0 l 2,0,1
EndSplineSet
Validated: 1
EndChar

StartChar: H
Encoding: 72 72 43
Width: 1390
GlyphClass: 2
Flags: W
HStem: -40 21G<200 252.222 990 1042.22> 664 182<400 990> 1530 20G<347.778 400 1137.78 1190>
VStem: 200 200<50 664 846 1460> 990 200<50 664 846 1460>
LayerCount: 2
Fore
SplineSet
200 -40 m 1,0,-1
 200 1460 l 1,1,-1
 390 1550 l 1,2,-1
 400 1550 l 1,3,-1
 400 846 l 1,4,-1
 990 846 l 1,5,-1
 990 1460 l 1,6,-1
 1180 1550 l 1,7,-1
 1190 1550 l 1,8,-1
 1190 50 l 1,9,-1
 1000 -40 l 1,10,-1
 990 -40 l 1,11,-1
 990 664 l 1,12,-1
 400 664 l 1,13,-1
 400 50 l 1,14,-1
 210 -40 l 1,15,-1
 200 -40 l 1,0,-1
EndSplineSet
Validated: 1
EndChar

StartChar: I
Encoding: 73 73 44
Width: 600
GlyphClass: 2
Flags: W
HStem: -40 21G<200 252.222> 1530 20G<347.778 400>
VStem: 200 200<50 1460>
LayerCount: 2
Fore
SplineSet
200 -40 m 1,0,-1
 200 1460 l 1,1,-1
 390 1550 l 1,2,-1
 400 1550 l 1,3,-1
 400 50 l 1,4,-1
 210 -40 l 1,5,-1
 200 -40 l 1,0,-1
EndSplineSet
Validated: 3073
EndChar

StartChar: J
Encoding: 74 74 45
Width: 1270
GlyphClass: 2
Flags: W
HStem: 0 180<320.027 829.973> 1328 182<378 870>
VStem: 80 200<222.253 460> 870 200<222.253 1328>
LayerCount: 2
Fore
SplineSet
430 0 m 2,0,1
 80 0 80 0 80 350 c 2,2,-1
 80 460 l 25,3,-1
 270 550 l 1,4,-1
 280 550 l 9,5,-1
 280 350 l 2,6,7
 280 180 280 180 430 180 c 2,8,-1
 720 180 l 2,9,10
 870 180 870 180 870 350 c 2,11,-1
 870 1328 l 17,12,-1
 297 1328 l 1,13,-1
 297 1338 l 1,14,-1
 378 1510 l 1,15,-1
 1070 1510 l 9,16,-1
 1070 350 l 2,17,18
 1070 0 1070 0 720 0 c 2,19,-1
 430 0 l 2,0,1
EndSplineSet
Validated: 1
EndChar

StartChar: K
Encoding: 75 75 46
Width: 1360
GlyphClass: 2
Flags: W
HStem: -40 21G<200 252.222 980 1032.22> 693 180<683 939.973> 1530 20G<347.778 400 928.598 995.41>
VStem: 200 200<50 658.095 852 1460> 980 200<50 650.747>
LayerCount: 2
Fore
SplineSet
200 -40 m 1,0,-1
 200 523 l 1,1,-1
 200 1460 l 1,2,-1
 390 1550 l 1,3,-1
 400 1550 l 1,4,-1
 400 852 l 1,5,6
 423 860 423 860 449 864 c 1,7,-1
 943 1550 l 1,8,-1
 953 1550 l 1,9,-1
 1129 1467 l 1,10,-1
 683 873 l 1,11,-1
 830 873 l 2,12,13
 1180 873 1180 873 1180 523 c 2,14,-1
 1180 50 l 1,15,-1
 990 -40 l 1,16,-1
 980 -40 l 1,17,-1
 980 523 l 2,18,19
 980 693 980 693 830 693 c 2,20,-1
 550 693 l 2,21,22
 400 693 400 693 400 523 c 2,23,-1
 400 50 l 1,24,-1
 210 -40 l 1,25,-1
 200 -40 l 1,0,-1
EndSplineSet
Validated: 1
EndChar

StartChar: L
Encoding: 76 76 47
Width: 1090
GlyphClass: 2
Flags: W
HStem: 0 182<400 1004> 1530 20G<347.778 400>
VStem: 200 200<182 1460>
LayerCount: 2
Fore
SplineSet
200 0 m 1,0,-1
 200 1460 l 1,1,-1
 390 1550 l 1,2,-1
 400 1550 l 1,3,-1
 400 182 l 1,4,-1
 1085 182 l 1,5,-1
 1085 172 l 1,6,-1
 1004 0 l 1,7,-1
 200 0 l 1,0,-1
EndSplineSet
Validated: 1
EndChar

StartChar: M
Encoding: 77 77 48
Width: 2220
GlyphClass: 2
Flags: W
HStem: -40 21G<200 252.222 1010 1062.22 1820 1872.22> 1330 180<440.027 970.752 1249.44 1779.97>
VStem: 200 200<50 1287.75> 1010 200<50 1295.1> 1820 200<50 1287.75>
CounterMasks: 1 38
LayerCount: 2
Fore
SplineSet
200 -40 m 1,0,-1
 200 1160 l 2,1,2
 200 1510 200 1510 550 1510 c 2,3,-1
 860 1510 l 2,4,5
 1040 1510 1040 1510 1110 1414 c 1,6,7
 1190 1510 1190 1510 1360 1510 c 2,8,-1
 1670 1510 l 2,9,10
 2020 1510 2020 1510 2020 1160 c 2,11,-1
 2020 50 l 1,12,-1
 1830 -40 l 1,13,-1
 1820 -40 l 1,14,-1
 1820 1160 l 2,15,16
 1820 1330 1820 1330 1670 1330 c 2,17,-1
 1360 1330 l 2,18,19
 1210 1330 1210 1330 1210 1160 c 2,20,-1
 1210 50 l 1,21,-1
 1020 -40 l 1,22,-1
 1010 -40 l 1,23,-1
 1010 1160 l 2,24,25
 1010 1330 1010 1330 860 1330 c 2,26,-1
 550 1330 l 2,27,28
 400 1330 400 1330 400 1160 c 2,29,-1
 400 50 l 1,30,-1
 210 -40 l 1,31,-1
 200 -40 l 1,0,-1
EndSplineSet
Validated: 1
EndChar

StartChar: N
Encoding: 78 78 49
Width: 1410
GlyphClass: 2
Flags: W
HStem: -40 21G<200 252.222 1010 1062.22> 1330 180<440.027 969.973>
VStem: 200 200<50 1287.75> 1010 200<50 1287.75>
LayerCount: 2
Fore
SplineSet
200 -40 m 9,0,-1
 200 1160 l 2,1,2
 200 1510 200 1510 550 1510 c 2,3,-1
 860 1510 l 2,4,5
 1210 1510 1210 1510 1210 1160 c 2,6,-1
 1210 50 l 25,7,-1
 1020 -40 l 1,8,-1
 1010 -40 l 9,9,-1
 1010 1160 l 2,10,11
 1010 1330 1010 1330 860 1330 c 2,12,-1
 550 1330 l 2,13,14
 400 1330 400 1330 400 1160 c 2,15,-1
 400 50 l 25,16,-1
 210 -40 l 1,17,-1
 200 -40 l 9,0,-1
EndSplineSet
Validated: 1
EndChar

StartChar: O
Encoding: 79 79 50
Width: 1410
GlyphClass: 2
Flags: W
HStem: 0 180<440.027 969.973> 1330 180<440.027 969.973>
VStem: 200 200<222.253 1287.75> 1010 200<222.253 1287.75>
LayerCount: 2
Fore
SplineSet
550 180 m 2,0,-1
 860 180 l 2,1,2
 1010 180 1010 180 1010 350 c 2,3,-1
 1010 1160 l 2,4,5
 1010 1330 1010 1330 860 1330 c 2,6,-1
 550 1330 l 2,7,8
 400 1330 400 1330 400 1160 c 2,9,-1
 400 350 l 2,10,11
 400 180 400 180 550 180 c 2,0,-1
550 0 m 2,12,13
 200 0 200 0 200 350 c 2,14,-1
 200 1160 l 2,15,16
 200 1510 200 1510 550 1510 c 2,17,-1
 860 1510 l 2,18,19
 1210 1510 1210 1510 1210 1160 c 2,20,-1
 1210 350 l 2,21,22
 1210 0 1210 0 860 0 c 2,23,-1
 550 0 l 2,12,13
EndSplineSet
Validated: 1
EndChar

StartChar: P
Encoding: 80 80 51
Width: 1340
GlyphClass: 2
Flags: W
HStem: -40 21G<200 252.222> 510 180<400 949.973> 1330 180<400 949.973>
VStem: 200 200<50 510 690 1330> 990 200<732.253 1287.75>
LayerCount: 2
Fore
SplineSet
200 -40 m 1,0,-1
 200 1460 l 1,1,-1
 306 1510 l 1,2,-1
 840 1510 l 2,3,4
 1190 1510 1190 1510 1190 1160 c 2,5,-1
 1190 860 l 2,6,7
 1190 510 1190 510 840 510 c 2,8,-1
 400 510 l 1,9,-1
 400 50 l 1,10,-1
 210 -40 l 1,11,-1
 200 -40 l 1,0,-1
400 1330 m 1,12,-1
 400 690 l 1,13,-1
 840 690 l 2,14,15
 990 690 990 690 990 860 c 2,16,-1
 990 1160 l 2,17,18
 990 1330 990 1330 840 1330 c 2,19,-1
 400 1330 l 1,12,-1
EndSplineSet
Validated: 1
EndChar

StartChar: Q
Encoding: 81 81 52
Width: 1410
GlyphClass: 2
Flags: W
HStem: -40 21G<963.087 1029.41> 0 180<440.027 823> 1330 180<440.027 969.973>
VStem: 200 200<222.253 1287.75> 1010 200<276.003 1287.75>
DStem2: 817 538 631 455 0.572907 -0.819621<0 296.862 529.489 565.406>
LayerCount: 2
Fore
SplineSet
631 455 m 1,0,-1
 807 538 l 1,1,-1
 817 538 l 1,2,-1
 1001 275 l 1,3,4
 1010 307 1010 307 1010 350 c 2,5,-1
 1010 1160 l 2,6,7
 1010 1330 1010 1330 860 1330 c 2,8,-1
 550 1330 l 2,9,10
 400 1330 400 1330 400 1160 c 2,11,-1
 400 350 l 2,12,13
 400 180 400 180 550 180 c 2,14,-1
 823 180 l 1,15,-1
 631 455 l 1,0,-1
550 0 m 2,16,17
 200 0 200 0 200 350 c 2,18,-1
 200 1160 l 2,19,20
 200 1510 200 1510 550 1510 c 2,21,-1
 860 1510 l 2,22,23
 1210 1510 1210 1510 1210 1160 c 2,24,-1
 1210 350 l 2,25,26
 1210 181 1210 181 1128 93 c 1,27,-1
 1163 43 l 1,28,-1
 987 -40 l 1,29,-1
 977 -40 l 1,30,-1
 945 6 l 1,31,32
 905 0 905 0 860 0 c 2,33,-1
 550 0 l 2,16,17
EndSplineSet
Validated: 1
EndChar

StartChar: R
Encoding: 82 82 53
Width: 1364
GlyphClass: 2
Flags: W
HStem: -40 21G<200 252.222 1014 1080.41> 510 180<400 643> 1330 180<400 949.973>
VStem: 200 200<50 510 690 1330> 990 200<731.922 1287.75>
DStem2: 887 512 643 510 0.573462 -0.819232<0 533.074>
LayerCount: 2
Fore
SplineSet
400 1330 m 1,0,-1
 400 690 l 1,1,-1
 840 690 l 2,2,3
 990 690 990 690 990 860 c 2,4,-1
 990 1160 l 2,5,6
 990 1330 990 1330 840 1330 c 2,7,-1
 400 1330 l 1,0,-1
200 -40 m 1,8,-1
 200 1460 l 1,9,-1
 306 1510 l 1,10,-1
 840 1510 l 2,11,12
 1190 1510 1190 1510 1190 1160 c 2,13,-1
 1190 860 l 2,14,15
 1190 534 1190 534 887 512 c 1,16,-1
 1214 43 l 1,17,-1
 1038 -40 l 1,18,-1
 1028 -40 l 1,19,-1
 643 510 l 1,20,-1
 400 510 l 1,21,-1
 400 50 l 1,22,-1
 210 -40 l 1,23,-1
 200 -40 l 1,8,-1
EndSplineSet
Validated: 1
EndChar

StartChar: S
Encoding: 83 83 54
Width: 1330
GlyphClass: 2
Flags: W
HStem: 0 180<400.027 929.973> 730 180<471.558 929.973> 1330 180<471.558 858.442>
VStem: 160 200<222.253 460> 250 200<928.047 1311.95> 880 200<1157 1311.95> 970 200<222.253 687.747>
LayerCount: 2
Fore
SplineSet
510 0 m 2,0,1
 160 0 160 0 160 350 c 2,2,-1
 160 460 l 1,3,-1
 350 550 l 1,4,-1
 360 550 l 1,5,-1
 360 350 l 2,6,7
 360 180 360 180 510 180 c 2,8,-1
 820 180 l 2,9,10
 970 180 970 180 970 350 c 2,11,-1
 970 560 l 2,12,13
 970 730 970 730 820 730 c 2,14,-1
 550 730 l 2,15,16
 250 730 250 730 250 1030 c 2,17,-1
 250 1210 l 2,18,19
 250 1510 250 1510 550 1510 c 2,20,-1
 780 1510 l 2,21,22
 1080 1510 1080 1510 1080 1210 c 2,23,-1
 1080 1157 l 1,24,-1
 890 1067 l 1,25,-1
 880 1067 l 1,26,-1
 880 1210 l 2,27,28
 880 1330 880 1330 780 1330 c 2,29,-1
 550 1330 l 2,30,31
 450 1330 450 1330 450 1210 c 2,32,-1
 450 1030 l 2,33,34
 450 910 450 910 550 910 c 2,35,-1
 820 910 l 2,36,37
 1170 910 1170 910 1170 560 c 2,38,-1
 1170 350 l 2,39,40
 1170 0 1170 0 820 0 c 2,41,-1
 510 0 l 2,0,1
EndSplineSet
Validated: 1
EndChar

StartChar: T
Encoding: 84 84 55
Width: 1066
GlyphClass: 2
Flags: W
HStem: -40 21G<433 485.222> 1328 182<86 433 633 980>
VStem: 433 200<50 1328>
LayerCount: 2
Fore
SplineSet
433 -40 m 1,0,-1
 433 1328 l 1,1,-1
 5 1328 l 1,2,-1
 5 1338 l 1,3,-1
 86 1510 l 1,4,-1
 1061 1510 l 1,5,-1
 1061 1500 l 1,6,-1
 980 1328 l 1,7,-1
 633 1328 l 1,8,-1
 633 50 l 1,9,-1
 443 -40 l 1,10,-1
 433 -40 l 1,0,-1
EndSplineSet
Validated: 1
EndChar

StartChar: U
Encoding: 85 85 56
Width: 1410
GlyphClass: 2
Flags: W
HStem: 0 180<440.027 969.973> 1530 20G<347.778 400 1157.78 1210>
VStem: 200 200<222.253 1460> 1010 200<222.253 1460>
LayerCount: 2
Fore
SplineSet
550 0 m 2,0,1
 200 0 200 0 200 350 c 2,2,-1
 200 1460 l 25,3,-1
 390 1550 l 1,4,-1
 400 1550 l 9,5,-1
 400 350 l 2,6,7
 400 180 400 180 550 180 c 2,8,-1
 860 180 l 2,9,10
 1010 180 1010 180 1010 350 c 2,11,-1
 1010 1460 l 25,12,-1
 1200 1550 l 1,13,-1
 1210 1550 l 9,14,-1
 1210 350 l 2,15,16
 1210 0 1210 0 860 0 c 2,17,-1
 550 0 l 2,0,1
EndSplineSet
Validated: 1
EndChar

StartChar: V
Encoding: 86 86 57
Width: 1181
GlyphClass: 2
Flags: W
HStem: -40 21G<508.236 567.195> 1530 20G<135.805 194.592 986.774 1045.2>
DStem2: 188 1550 5 1468 0.320371 -0.947292<19.0501 1322.43>
LayerCount: 2
Fore
SplineSet
515 -40 m 1,0,-1
 5 1468 l 1,1,-1
 178 1550 l 1,2,-1
 188 1550 l 1,3,-1
 602 294 l 1,4,-1
 993 1550 l 1,5,-1
 1003 1550 l 1,6,-1
 1176 1468 l 1,7,-1
 698 42 l 1,8,-1
 525 -40 l 1,9,-1
 515 -40 l 1,0,-1
EndSplineSet
Validated: 1
EndChar

StartChar: W
Encoding: 87 87 58
Width: 2220
GlyphClass: 2
Flags: W
HStem: 0 180<440.027 970.564 1249.25 1779.97> 1530 20G<347.778 400 1157.78 1210 1967.78 2020>
VStem: 200 200<222.253 1460> 1010 200<214.905 1460> 1820 200<222.253 1460>
CounterMasks: 1 38
LayerCount: 2
Fore
SplineSet
550 0 m 2,0,1
 200 0 200 0 200 350 c 2,2,-1
 200 1460 l 1,3,-1
 390 1550 l 1,4,-1
 400 1550 l 1,5,-1
 400 350 l 2,6,7
 400 180 400 180 550 180 c 2,8,-1
 860 180 l 2,9,10
 1010 180 1010 180 1010 350 c 2,11,-1
 1010 1460 l 1,12,-1
 1200 1550 l 1,13,-1
 1210 1550 l 1,14,-1
 1210 350 l 2,15,16
 1210 180 1210 180 1360 180 c 2,17,-1
 1670 180 l 2,18,19
 1820 180 1820 180 1820 350 c 2,20,-1
 1820 1460 l 1,21,-1
 2010 1550 l 1,22,-1
 2020 1550 l 1,23,-1
 2020 350 l 2,24,25
 2020 0 2020 0 1670 0 c 2,26,-1
 1360 0 l 2,27,28
 1180 0 1180 0 1110 96 c 1,29,30
 1030 0 1030 0 860 0 c 2,31,-1
 550 0 l 2,0,1
EndSplineSet
Validated: 1
EndChar

StartChar: X
Encoding: 88 88 59
Width: 1278
GlyphClass: 2
Flags: W
HStem: -40 21G<231.561 295.489 982.511 1046.44> 578 354<462 816> 1530 20G<232.831 296.456 981.544 1045.17>
DStem2: 285 1550 100 1467 0.509537 -0.860449<0 712.133 1016.73 1729.38> 100 42 284 -40 0.509537 0.860449<23.1979 735.841 1040.44 1752.57>
LayerCount: 2
Fore
SplineSet
274 -40 m 1,0,-1
 100 42 l 1,1,-1
 522 755 l 1,2,-1
 100 1467 l 1,3,-1
 275 1550 l 1,4,-1
 285 1550 l 1,5,-1
 639 932 l 1,6,-1
 993 1550 l 1,7,-1
 1003 1550 l 1,8,-1
 1178 1467 l 1,9,-1
 756 755 l 1,10,-1
 1178 42 l 1,11,-1
 1004 -40 l 1,12,-1
 994 -40 l 1,13,-1
 639 578 l 1,14,-1
 284 -40 l 1,15,-1
 274 -40 l 1,0,-1
EndSplineSet
Validated: 1
EndChar

StartChar: Y
Encoding: 89 89 60
Width: 1310
GlyphClass: 2
Flags: W
HStem: -40 21G<555 607.222> 482 180<390.027 555 755 919.973> 1530 20G<297.778 350 1107.78 1160>
VStem: 150 200<704.253 1460> 555 200<50 482> 960 200<704.253 1460>
CounterMasks: 1 1c
LayerCount: 2
Fore
SplineSet
555 -40 m 1,0,-1
 555 482 l 1,1,-1
 500 482 l 2,2,3
 150 482 150 482 150 832 c 2,4,-1
 150 1460 l 1,5,-1
 340 1550 l 1,6,-1
 350 1550 l 1,7,-1
 350 832 l 2,8,9
 350 662 350 662 500 662 c 2,10,-1
 810 662 l 2,11,12
 960 662 960 662 960 832 c 2,13,-1
 960 1460 l 1,14,-1
 1150 1550 l 1,15,-1
 1160 1550 l 1,16,-1
 1160 832 l 2,17,18
 1160 482 1160 482 810 482 c 2,19,-1
 755 482 l 1,20,-1
 755 50 l 1,21,-1
 565 -40 l 1,22,-1
 555 -40 l 1,0,-1
EndSplineSet
Validated: 1
EndChar

StartChar: Z
Encoding: 90 90 61
Width: 1267
GlyphClass: 2
Flags: W
HStem: 0 182<457 1036> 1328 182<241 797>
DStem2: 150 10 457 182 0.442307 0.896863<290.049 1468.24>
LayerCount: 2
Fore
SplineSet
150 0 m 1,0,-1
 150 10 l 1,1,-1
 797 1328 l 1,2,-1
 160 1328 l 1,3,-1
 160 1338 l 1,4,-1
 241 1510 l 1,5,-1
 1107 1510 l 1,6,-1
 1107 1500 l 1,7,-1
 457 182 l 1,8,-1
 1117 182 l 1,9,-1
 1117 172 l 1,10,-1
 1036 0 l 1,11,-1
 150 0 l 1,0,-1
EndSplineSet
Validated: 1
EndChar

StartChar: bracketleft
Encoding: 91 91 62
Width: 864
GlyphClass: 2
Flags: W
HStem: -240 140<400 753> 1610 140<400 753>
VStem: 200 200<-100 1610>
LayerCount: 2
Fore
SplineSet
200 -240 m 1,0,-1
 200 1660 l 1,1,-1
 390 1750 l 1,2,-1
 814 1750 l 1,3,-1
 814 1740 l 1,4,-1
 753 1610 l 1,5,-1
 400 1610 l 1,6,-1
 400 -100 l 1,7,-1
 814 -100 l 1,8,-1
 814 -110 l 1,9,-1
 753 -240 l 1,10,-1
 200 -240 l 1,0,-1
EndSplineSet
Validated: 3073
EndChar

StartChar: backslash
Encoding: 92 92 63
Width: 974
GlyphClass: 2
Flags: W
DStem2: 161 1650 10 1582 0.422626 -0.906304<0 1897.41>
LayerCount: 2
Fore
SplineSet
812 -140 m 1,0,-1
 10 1582 l 1,1,-1
 151 1650 l 1,2,-1
 161 1650 l 1,3,-1
 964 -72 l 1,4,-1
 822 -140 l 1,5,-1
 812 -140 l 1,0,-1
EndSplineSet
Validated: 3073
EndChar

StartChar: bracketright
Encoding: 93 93 64
Width: 864
GlyphClass: 2
Flags: W
HStem: -240 140<111 464> 1610 140<111 464>
VStem: 464 200<-100 1610>
LayerCount: 2
Fore
SplineSet
50 -240 m 1,0,-1
 50 -230 l 1,1,-1
 111 -100 l 1,2,-1
 464 -100 l 1,3,-1
 464 1610 l 1,4,-1
 50 1610 l 1,5,-1
 50 1620 l 1,6,-1
 111 1750 l 1,7,-1
 664 1750 l 1,8,-1
 664 -150 l 1,9,-1
 474 -240 l 1,10,-1
 50 -240 l 1,0,-1
EndSplineSet
Validated: 3073
EndChar

StartChar: asciicircum
Encoding: 94 94 65
Width: 1321
GlyphClass: 2
Flags: W
HStem: 1006 544
DStem2: 150 1088 333 1006 0.705239 0.70897<70.9231 529.119> 711 1550 659 1328 0.705571 -0.708639<120.628 580.943>
LayerCount: 2
Fore
SplineSet
150 1088 m 1,0,-1
 528 1468 l 1,1,-1
 701 1550 l 1,2,-1
 711 1550 l 1,3,-1
 1171 1088 l 1,4,-1
 998 1006 l 1,5,-1
 988 1006 l 1,6,-1
 659 1328 l 1,7,-1
 333 1006 l 1,8,-1
 323 1006 l 1,9,-1
 150 1088 l 1,0,-1
EndSplineSet
Validated: 1
EndChar

StartChar: underscore
Encoding: 95 95 66
Width: 1214
GlyphClass: 2
Flags: W
HStem: -410 182<231 983>
LayerCount: 2
Fore
SplineSet
150 -410 m 1,0,-1
 150 -400 l 1,1,-1
 231 -228 l 1,2,-1
 1064 -228 l 1,3,-1
 1064 -238 l 1,4,-1
 983 -410 l 1,5,-1
 150 -410 l 1,0,-1
EndSplineSet
Validated: 3073
EndChar

StartChar: grave
Encoding: 96 96 67
Width: 648
GlyphClass: 2
Flags: W
HStem: 1150 400
VStem: 150 348
LayerCount: 2
Fore
SplineSet
326 1550 m 1,0,-1
 336 1550 l 1,1,-1
 498 1205 l 1,2,-1
 381 1150 l 1,3,-1
 371 1150 l 1,4,-1
 150 1466 l 1,5,-1
 326 1550 l 1,0,-1
EndSplineSet
Validated: 3073
EndChar

StartChar: a
Encoding: 97 97 68
Width: 1060
GlyphClass: 2
Flags: W
HStem: -40 21G<710 762.222> 0 180<321.558 694.741> 557 180<321.558 694.741> 920 180<332 688.442>
VStem: 100 200<198.047 538.953> 710 200<194.18 542.82 707 901.953>
LayerCount: 2
Fore
SplineSet
400 180 m 2,0,-1
 610 180 l 2,1,2
 710 180 710 180 710 300 c 2,3,-1
 710 437 l 2,4,5
 710 557 710 557 610 557 c 2,6,-1
 400 557 l 2,7,8
 300 557 300 557 300 437 c 2,9,-1
 300 300 l 2,10,11
 300 180 300 180 400 180 c 2,0,-1
400 0 m 2,12,13
 100 0 100 0 100 300 c 2,14,-1
 100 437 l 2,15,16
 100 737 100 737 400 737 c 2,17,-1
 610 737 l 2,18,19
 662 737 662 737 710 707 c 1,20,-1
 710 800 l 2,21,22
 710 920 710 920 610 920 c 2,23,-1
 252 920 l 1,24,-1
 252 930 l 1,25,-1
 332 1100 l 1,26,-1
 610 1100 l 2,27,28
 910 1100 910 1100 910 800 c 2,29,-1
 910 50 l 1,30,-1
 720 -40 l 1,31,-1
 710 -40 l 1,32,-1
 710 30 l 1,33,34
 672 0 672 0 610 0 c 2,35,-1
 400 0 l 2,12,13
EndSplineSet
Validated: 1
EndChar

StartChar: b
Encoding: 98 98 69
Width: 1180
GlyphClass: 2
Flags: W
HStem: 0 180<421.558 808.442> 920 180<415.703 808.442> 1530 20G<347.778 400>
VStem: 200 200<198.047 905.82 1069 1460> 830 200<198.047 901.953>
LayerCount: 2
Fore
SplineSet
500 180 m 2,0,-1
 730 180 l 2,1,2
 830 180 830 180 830 300 c 2,3,-1
 830 800 l 2,4,5
 830 920 830 920 730 920 c 2,6,-1
 500 920 l 2,7,8
 400 920 400 920 400 800 c 2,9,-1
 400 300 l 2,10,11
 400 180 400 180 500 180 c 2,0,-1
500 0 m 2,12,13
 200 0 200 0 200 300 c 2,14,-1
 200 1460 l 1,15,-1
 390 1550 l 1,16,-1
 400 1550 l 1,17,-1
 400 1069 l 1,18,19
 440 1100 440 1100 500 1100 c 2,20,-1
 730 1100 l 2,21,22
 1030 1100 1030 1100 1030 800 c 2,23,-1
 1030 300 l 2,24,25
 1030 0 1030 0 730 0 c 2,26,-1
 500 0 l 2,12,13
EndSplineSet
Validated: 1
EndChar

StartChar: c
Encoding: 99 99 70
Width: 1130
GlyphClass: 2
Flags: W
HStem: 0 180<371.558 758.442> 920 180<371.558 758.442>
VStem: 150 200<198.047 901.953> 780 200<198.047 353 747 901.953>
LayerCount: 2
Fore
SplineSet
450 0 m 2,0,1
 150 0 150 0 150 300 c 2,2,-1
 150 800 l 2,3,4
 150 1100 150 1100 450 1100 c 2,5,-1
 680 1100 l 2,6,7
 980 1100 980 1100 980 800 c 2,8,-1
 980 747 l 1,9,-1
 790 657 l 1,10,-1
 780 657 l 1,11,-1
 780 800 l 2,12,13
 780 920 780 920 680 920 c 2,14,-1
 450 920 l 2,15,16
 350 920 350 920 350 800 c 2,17,-1
 350 300 l 2,18,19
 350 180 350 180 450 180 c 2,20,-1
 680 180 l 2,21,22
 780 180 780 180 780 300 c 2,23,-1
 780 353 l 1,24,-1
 970 443 l 1,25,-1
 980 443 l 1,26,-1
 980 300 l 2,27,28
 980 0 980 0 680 0 c 2,29,-1
 450 0 l 2,0,1
EndSplineSet
Validated: 1
EndChar

StartChar: d
Encoding: 100 100 71
Width: 1180
GlyphClass: 2
Flags: W
HStem: 0 180<371.558 758.442> 920 180<371.558 764.277> 1530 20G<927.778 980>
VStem: 150 200<198.047 901.953> 780 200<198.047 905.82 1069 1460>
LayerCount: 2
Fore
SplineSet
450 0 m 2,0,1
 150 0 150 0 150 300 c 2,2,-1
 150 800 l 2,3,4
 150 1100 150 1100 450 1100 c 2,5,-1
 680 1100 l 2,6,7
 748 1100 748 1100 780 1069 c 1,8,-1
 780 1460 l 1,9,-1
 970 1550 l 1,10,-1
 980 1550 l 1,11,-1
 980 300 l 2,12,13
 980 0 980 0 680 0 c 2,14,-1
 450 0 l 2,0,1
450 180 m 2,15,-1
 680 180 l 2,16,17
 780 180 780 180 780 300 c 2,18,-1
 780 800 l 2,19,20
 780 920 780 920 680 920 c 2,21,-1
 450 920 l 2,22,23
 350 920 350 920 350 800 c 2,24,-1
 350 300 l 2,25,26
 350 180 350 180 450 180 c 2,15,-1
EndSplineSet
Validated: 1
EndChar

StartChar: e
Encoding: 101 101 72
Width: 1130
GlyphClass: 2
Flags: W
HStem: 0 180<371.558 758.442> 920 180<371.558 758.442>
VStem: 150 200<471 901.953> 780 200<198.047 353>
DStem2: 350 471 353 262 0.79098 0.611842<0 569.262>
LayerCount: 2
Fore
SplineSet
450 0 m 2,0,1
 150 0 150 0 150 300 c 2,2,-1
 150 800 l 2,3,4
 150 1100 150 1100 450 1100 c 2,5,-1
 680 1100 l 2,6,7
 980 1100 980 1100 980 800 c 2,8,-1
 980 747 l 1,9,-1
 353 262 l 1,10,11
 367 180 367 180 450 180 c 2,12,-1
 680 180 l 2,13,14
 780 180 780 180 780 300 c 2,15,-1
 780 353 l 1,16,-1
 970 443 l 1,17,-1
 980 443 l 1,18,-1
 980 300 l 2,19,20
 980 0 980 0 680 0 c 2,21,-1
 450 0 l 2,0,1
350 471 m 1,22,-1
 779 817 l 1,23,24
 773 920 773 920 680 920 c 2,25,-1
 450 920 l 2,26,27
 350 920 350 920 350 800 c 2,28,-1
 350 471 l 1,22,-1
EndSplineSet
Validated: 1
EndChar

StartChar: f
Encoding: 102 102 73
Width: 850
GlyphClass: 2
Flags: W
HStem: -40 21G<200 252.222> 818 182<131 200 400 650> 1330 180<421.558 670>
VStem: 200 200<50 818 1000 1311.95>
LayerCount: 2
Fore
SplineSet
200 -40 m 1,0,-1
 200 818 l 1,1,-1
 50 818 l 1,2,-1
 50 828 l 1,3,-1
 131 1000 l 1,4,-1
 200 1000 l 1,5,-1
 200 1210 l 2,6,7
 200 1510 200 1510 500 1510 c 2,8,-1
 750 1510 l 1,9,-1
 750 1500 l 1,10,-1
 670 1330 l 1,11,-1
 500 1330 l 2,12,13
 400 1330 400 1330 400 1210 c 2,14,-1
 400 1000 l 1,15,-1
 731 1000 l 1,16,-1
 731 990 l 1,17,-1
 650 818 l 1,18,-1
 400 818 l 1,19,-1
 400 50 l 1,20,-1
 210 -40 l 1,21,-1
 200 -40 l 1,0,-1
EndSplineSet
Validated: 1
EndChar

StartChar: g
Encoding: 103 103 74
Width: 1160
GlyphClass: 2
Flags: W
HStem: -410 180<334 758.442> 0 180<371.558 763.688> 920 180<371.558 758.442>
VStem: 150 200<198.047 901.953> 780 200<-211.953 30 194.18 901.953>
LayerCount: 2
Fore
SplineSet
450 0 m 2,0,1
 150 0 150 0 150 300 c 2,2,-1
 150 800 l 2,3,4
 150 1100 150 1100 450 1100 c 2,5,-1
 680 1100 l 2,6,7
 980 1100 980 1100 980 800 c 2,8,-1
 980 -110 l 2,9,10
 980 -410 980 -410 680 -410 c 2,11,-1
 254 -410 l 1,12,-1
 254 -400 l 1,13,-1
 334 -230 l 1,14,-1
 680 -230 l 2,15,16
 780 -230 780 -230 780 -110 c 2,17,-1
 780 30 l 1,18,19
 738 0 738 0 680 0 c 2,20,-1
 450 0 l 2,0,1
450 180 m 2,21,-1
 680 180 l 2,22,23
 780 180 780 180 780 300 c 2,24,-1
 780 800 l 2,25,26
 780 920 780 920 680 920 c 2,27,-1
 450 920 l 2,28,29
 350 920 350 920 350 800 c 2,30,-1
 350 300 l 2,31,32
 350 180 350 180 450 180 c 2,21,-1
EndSplineSet
Validated: 1
EndChar

StartChar: h
Encoding: 104 104 75
Width: 1180
GlyphClass: 2
Flags: W
HStem: -40 21G<200 252.222 830 882.222> 920 180<415.479 808.442> 1530 20G<347.778 400>
VStem: 200 200<50 905.82 1069 1460> 830 200<50 901.953>
LayerCount: 2
Fore
SplineSet
200 -40 m 1,0,-1
 200 1460 l 1,1,-1
 390 1550 l 1,2,-1
 400 1550 l 1,3,-1
 400 1069 l 1,4,5
 444 1100 444 1100 500 1100 c 2,6,-1
 730 1100 l 2,7,8
 1030 1100 1030 1100 1030 800 c 2,9,-1
 1030 50 l 1,10,-1
 840 -40 l 1,11,-1
 830 -40 l 1,12,-1
 830 800 l 2,13,14
 830 920 830 920 730 920 c 2,15,-1
 500 920 l 2,16,17
 400 920 400 920 400 800 c 2,18,-1
 400 50 l 1,19,-1
 210 -40 l 1,20,-1
 200 -40 l 1,0,-1
EndSplineSet
Validated: 1
EndChar

StartChar: i
Encoding: 105 105 76
Width: 600
GlyphClass: 2
Flags: W
HStem: -40 21G<200 252.222> 1120 20G<347.778 400> 1285 245<216.097 383.903>
VStem: 180 240<1322.13 1492.87> 200 200<50 1050>
LayerCount: 2
Fore
SplineSet
180 1407.5 m 128,-1,1
 180 1458 180 1458 215 1494 c 128,-1,2
 250 1530 250 1530 300 1530 c 128,-1,3
 350 1530 350 1530 385 1494 c 128,-1,4
 420 1458 420 1458 420 1407.5 c 128,-1,5
 420 1357 420 1357 385 1321 c 128,-1,6
 350 1285 350 1285 300 1285 c 128,-1,7
 250 1285 250 1285 215 1321 c 128,-1,0
 180 1357 180 1357 180 1407.5 c 128,-1,1
200 -40 m 1,8,-1
 200 1050 l 1,9,-1
 390 1140 l 1,10,-1
 400 1140 l 1,11,-1
 400 50 l 1,12,-1
 210 -40 l 1,13,-1
 200 -40 l 1,8,-1
EndSplineSet
Validated: 1
EndChar

StartChar: j
Encoding: 106 106 77
Width: 600
GlyphClass: 2
Flags: W
HStem: -410 180<80 178.442> 1120 20G<347.778 400> 1285 245<216.097 383.903>
VStem: 180 240<1322.13 1492.87> 200 200<-211.953 1050>
LayerCount: 2
Fore
SplineSet
0 -410 m 17,0,-1
 0 -400 l 1,1,-1
 80 -230 l 9,2,-1
 100 -230 l 2,3,4
 200 -230 200 -230 200 -110 c 2,5,-1
 200 1050 l 17,6,-1
 390 1140 l 1,7,-1
 400 1140 l 9,8,-1
 400 -110 l 2,9,10
 400 -410 400 -410 100 -410 c 2,11,-1
 0 -410 l 17,0,-1
180 1407.5 m 128,-1,13
 180 1458 180 1458 215 1494 c 128,-1,14
 250 1530 250 1530 300 1530 c 128,-1,15
 350 1530 350 1530 385 1494 c 128,-1,16
 420 1458 420 1458 420 1407.5 c 128,-1,17
 420 1357 420 1357 385 1321 c 128,-1,18
 350 1285 350 1285 300 1285 c 128,-1,19
 250 1285 250 1285 215 1321 c 128,-1,12
 180 1357 180 1357 180 1407.5 c 128,-1,13
EndSplineSet
Validated: 1
EndChar

StartChar: k
Encoding: 107 107 78
Width: 1180
GlyphClass: 2
Flags: W
HStem: -40 21G<200 252.222 830 882.222> 570 180<670 808.442> 1120 20G<798.253 870.41> 1530 20G<347.778 400>
VStem: 200 200<50 555.82 740 1460> 830 200<50 551.953>
LayerCount: 2
Fore
SplineSet
200 -40 m 1,0,-1
 200 1460 l 1,1,-1
 390 1550 l 1,2,-1
 400 1550 l 1,3,-1
 400 740 l 1,4,5
 413 743 413 743 428 745 c 1,6,-1
 818 1140 l 1,7,-1
 828 1140 l 1,8,-1
 1004 1057 l 1,9,-1
 670 750 l 1,10,-1
 730 750 l 2,11,12
 1030 750 1030 750 1030 450 c 2,13,-1
 1030 50 l 1,14,-1
 840 -40 l 1,15,-1
 830 -40 l 1,16,-1
 830 450 l 2,17,18
 830 570 830 570 730 570 c 2,19,-1
 500 570 l 2,20,21
 400 570 400 570 400 450 c 2,22,-1
 400 50 l 1,23,-1
 210 -40 l 1,24,-1
 200 -40 l 1,0,-1
EndSplineSet
Validated: 1
EndChar

StartChar: l
Encoding: 108 108 79
Width: 600
GlyphClass: 2
Flags: W
HStem: -40 21G<200 252.222> 1530 20G<347.778 400>
VStem: 200 200<50 1460>
LayerCount: 2
Fore
SplineSet
200 -40 m 1,0,-1
 200 1460 l 1,1,-1
 390 1550 l 1,2,-1
 400 1550 l 1,3,-1
 400 50 l 1,4,-1
 210 -40 l 1,5,-1
 200 -40 l 1,0,-1
EndSplineSet
Validated: 3073
EndChar

StartChar: m
Encoding: 109 109 80
Width: 1760
GlyphClass: 2
Flags: W
HStem: -40 21G<150 202.222 780 832.222 1410 1462.22> 920 180<371.558 762.38 995.91 1388.44>
VStem: 150 200<50 901.953> 780 200<50 905.82> 1410 200<50 901.953>
CounterMasks: 1 38
LayerCount: 2
Fore
SplineSet
150 -40 m 1,0,-1
 150 800 l 2,1,2
 150 1100 150 1100 450 1100 c 2,3,-1
 680 1100 l 2,4,5
 818 1100 818 1100 880 1026 c 1,6,7
 946 1100 946 1100 1080 1100 c 2,8,-1
 1310 1100 l 2,9,10
 1610 1100 1610 1100 1610 800 c 2,11,-1
 1610 50 l 1,12,-1
 1420 -40 l 1,13,-1
 1410 -40 l 1,14,-1
 1410 800 l 2,15,16
 1410 920 1410 920 1310 920 c 2,17,-1
 1080 920 l 2,18,19
 980 920 980 920 980 800 c 2,20,-1
 980 50 l 1,21,-1
 790 -40 l 1,22,-1
 780 -40 l 1,23,-1
 780 800 l 2,24,25
 780 920 780 920 680 920 c 2,26,-1
 450 920 l 2,27,28
 350 920 350 920 350 800 c 2,29,-1
 350 50 l 1,30,-1
 160 -40 l 1,31,-1
 150 -40 l 1,0,-1
EndSplineSet
Validated: 1
EndChar

StartChar: n
Encoding: 110 110 81
Width: 1130
GlyphClass: 2
Flags: W
HStem: -40 21G<150 202.222 780 832.222> 920 180<371.558 758.442>
VStem: 150 200<50 901.953> 780 200<50 901.953>
LayerCount: 2
Fore
SplineSet
150 -40 m 9,0,-1
 150 800 l 2,1,2
 150 1100 150 1100 450 1100 c 2,3,-1
 680 1100 l 2,4,5
 980 1100 980 1100 980 800 c 2,6,-1
 980 50 l 17,7,-1
 790 -40 l 1,8,-1
 780 -40 l 9,9,-1
 780 800 l 2,10,11
 780 920 780 920 680 920 c 2,12,-1
 450 920 l 2,13,14
 350 920 350 920 350 800 c 2,15,-1
 350 50 l 17,16,-1
 160 -40 l 1,17,-1
 150 -40 l 9,0,-1
EndSplineSet
Validated: 1
EndChar

StartChar: o
Encoding: 111 111 82
Width: 1130
GlyphClass: 2
Flags: W
HStem: 0 180<371.558 758.442> 920 180<371.558 758.442>
VStem: 150 200<198.047 901.953> 780 200<198.047 901.953>
LayerCount: 2
Fore
SplineSet
450 180 m 2,0,-1
 680 180 l 2,1,2
 780 180 780 180 780 300 c 2,3,-1
 780 800 l 2,4,5
 780 920 780 920 680 920 c 2,6,-1
 450 920 l 2,7,8
 350 920 350 920 350 800 c 2,9,-1
 350 300 l 2,10,11
 350 180 350 180 450 180 c 2,0,-1
450 0 m 2,12,13
 150 0 150 0 150 300 c 2,14,-1
 150 800 l 2,15,16
 150 1100 150 1100 450 1100 c 2,17,-1
 680 1100 l 2,18,19
 980 1100 980 1100 980 800 c 2,20,-1
 980 300 l 2,21,22
 980 0 980 0 680 0 c 2,23,-1
 450 0 l 2,12,13
EndSplineSet
Validated: 1
EndChar

StartChar: p
Encoding: 112 112 83
Width: 1180
GlyphClass: 2
Flags: W
HStem: -450 21G<200 252.222> 0 180<415.723 808.442> 920 180<421.558 808.442>
VStem: 200 200<-360 31 194.18 901.953> 830 200<198.047 901.953>
LayerCount: 2
Fore
SplineSet
500 0 m 2,0,1
 432 0 432 0 400 31 c 1,2,-1
 400 -360 l 1,3,-1
 210 -450 l 1,4,-1
 200 -450 l 1,5,-1
 200 800 l 2,6,7
 200 1100 200 1100 500 1100 c 2,8,-1
 730 1100 l 2,9,10
 1030 1100 1030 1100 1030 800 c 2,11,-1
 1030 300 l 2,12,13
 1030 0 1030 0 730 0 c 2,14,-1
 500 0 l 2,0,1
500 180 m 2,15,-1
 730 180 l 2,16,17
 830 180 830 180 830 300 c 2,18,-1
 830 800 l 2,19,20
 830 920 830 920 730 920 c 2,21,-1
 500 920 l 2,22,23
 400 920 400 920 400 800 c 2,24,-1
 400 300 l 2,25,26
 400 180 400 180 500 180 c 2,15,-1
EndSplineSet
Validated: 1
EndChar

StartChar: q
Encoding: 113 113 84
Width: 1180
GlyphClass: 2
Flags: W
HStem: -450 21G<780 832.222> 0 180<371.558 764.297> 920 180<371.558 758.442>
VStem: 150 200<198.047 901.953> 780 200<-360 31 194.18 901.953>
LayerCount: 2
Fore
SplineSet
450 180 m 2,0,-1
 680 180 l 2,1,2
 780 180 780 180 780 300 c 2,3,-1
 780 800 l 2,4,5
 780 920 780 920 680 920 c 2,6,-1
 450 920 l 2,7,8
 350 920 350 920 350 800 c 2,9,-1
 350 300 l 2,10,11
 350 180 350 180 450 180 c 2,0,-1
450 0 m 2,12,13
 150 0 150 0 150 300 c 2,14,-1
 150 800 l 2,15,16
 150 1100 150 1100 450 1100 c 2,17,-1
 680 1100 l 2,18,19
 980 1100 980 1100 980 800 c 2,20,-1
 980 -360 l 1,21,-1
 790 -450 l 1,22,-1
 780 -450 l 1,23,-1
 780 31 l 1,24,25
 740 0 740 0 680 0 c 2,26,-1
 450 0 l 2,12,13
EndSplineSet
Validated: 1
EndChar

StartChar: r
Encoding: 114 114 85
Width: 720
GlyphClass: 2
Flags: W
HStem: -40 21G<150 202.222> 920 180<371.558 620>
VStem: 150 200<50 901.953>
LayerCount: 2
Fore
SplineSet
150 -40 m 9,0,-1
 150 800 l 2,1,2
 150 1100 150 1100 450 1100 c 2,3,-1
 700 1100 l 17,4,-1
 700 1090 l 1,5,-1
 620 920 l 9,6,-1
 450 920 l 2,7,8
 350 920 350 920 350 800 c 2,9,-1
 350 50 l 17,10,-1
 160 -40 l 1,11,-1
 150 -40 l 9,0,-1
EndSplineSet
Validated: 1
EndChar

StartChar: s
Encoding: 115 115 86
Width: 1070
GlyphClass: 2
Flags: W
HStem: 0 180<341.558 728.442> 499 180<383.558 728.442> 920 180<383.558 657.442>
VStem: 120 200<198.047 336> 162 200<695.502 903.887> 750 200<198.047 480.953>
LayerCount: 2
Fore
SplineSet
420 0 m 2,0,1
 120 0 120 0 120 300 c 2,2,-1
 120 336 l 1,3,-1
 310 426 l 1,4,-1
 320 426 l 1,5,-1
 320 300 l 2,6,7
 320 180 320 180 420 180 c 2,8,-1
 650 180 l 2,9,10
 750 180 750 180 750 300 c 2,11,-1
 750 379 l 2,12,13
 750 499 750 499 650 499 c 2,14,-1
 462 499 l 2,15,16
 162 499 162 499 162 800 c 1,17,18
 162 1100 162 1100 462 1100 c 2,19,-1
 579 1100 l 2,20,21
 879 1100 879 1100 879 858 c 1,22,-1
 689 768 l 1,23,-1
 679 768 l 1,24,-1
 679 800 l 2,25,26
 679 920 679 920 579 920 c 2,27,-1
 462 920 l 2,28,29
 362 920 362 920 362 800 c 1,30,31
 362 679 362 679 462 679 c 2,32,-1
 650 679 l 2,33,34
 950 679 950 679 950 379 c 2,35,-1
 950 300 l 2,36,37
 950 0 950 0 650 0 c 2,38,-1
 420 0 l 2,0,1
EndSplineSet
Validated: 1
EndChar

StartChar: t
Encoding: 116 116 87
Width: 764
GlyphClass: 2
Flags: W
HStem: -40 21G<282 334.222> 918 182<106 282 482 658> 1530 20G<429.778 482>
VStem: 282 200<50 918 1100 1460>
LayerCount: 2
Fore
SplineSet
282 -40 m 1,0,-1
 282 918 l 1,1,-1
 25 918 l 1,2,-1
 25 928 l 1,3,-1
 106 1100 l 1,4,-1
 282 1100 l 1,5,-1
 282 1460 l 1,6,-1
 472 1550 l 1,7,-1
 482 1550 l 1,8,-1
 482 1100 l 1,9,-1
 739 1100 l 1,10,-1
 739 1090 l 1,11,-1
 658 918 l 1,12,-1
 482 918 l 1,13,-1
 482 50 l 1,14,-1
 292 -40 l 1,15,-1
 282 -40 l 1,0,-1
EndSplineSet
Validated: 1
EndChar

StartChar: u
Encoding: 117 117 88
Width: 1130
GlyphClass: 2
Flags: W
HStem: 0 180<371.558 758.442> 1120 20G<297.778 350 927.778 980>
VStem: 150 200<198.047 1050> 780 200<198.047 1050>
LayerCount: 2
Fore
SplineSet
450 0 m 2,0,1
 150 0 150 0 150 300 c 2,2,-1
 150 1050 l 17,3,-1
 340 1140 l 1,4,-1
 350 1140 l 9,5,-1
 350 300 l 2,6,7
 350 180 350 180 450 180 c 2,8,-1
 680 180 l 2,9,10
 780 180 780 180 780 300 c 2,11,-1
 780 1050 l 17,12,-1
 970 1140 l 1,13,-1
 980 1140 l 9,14,-1
 980 300 l 2,15,16
 980 0 980 0 680 0 c 2,17,-1
 450 0 l 2,0,1
EndSplineSet
Validated: 1
EndChar

StartChar: v
Encoding: 118 118 89
Width: 1026
GlyphClass: 2
Flags: W
HStem: -40 21G<428.969 488.195> 1120 20G<180.805 239.787 786.357 845.195>
DStem2: 233 1140 50 1058 0.331651 -0.943402<16.6668 880.655> 516 306 619 42 0.331508 0.943452<0 861.97>
LayerCount: 2
Fore
SplineSet
436 -40 m 1,0,-1
 50 1058 l 1,1,-1
 223 1140 l 1,2,-1
 233 1140 l 1,3,-1
 516 306 l 1,4,-1
 793 1140 l 1,5,-1
 803 1140 l 1,6,-1
 976 1058 l 1,7,-1
 619 42 l 1,8,-1
 446 -40 l 1,9,-1
 436 -40 l 1,0,-1
EndSplineSet
Validated: 1
EndChar

StartChar: w
Encoding: 119 119 90
Width: 1760
GlyphClass: 2
Flags: W
HStem: 0 180<371.558 764.09 997.62 1388.44> 1120 20G<297.778 350 927.778 980 1557.78 1610>
VStem: 150 200<198.047 1050> 780 200<194.18 1050> 1410 200<198.047 1050>
CounterMasks: 1 38
LayerCount: 2
Fore
SplineSet
450 0 m 2,0,1
 150 0 150 0 150 300 c 2,2,-1
 150 1050 l 1,3,-1
 340 1140 l 1,4,-1
 350 1140 l 1,5,-1
 350 300 l 2,6,7
 350 180 350 180 450 180 c 2,8,-1
 680 180 l 2,9,10
 780 180 780 180 780 300 c 2,11,-1
 780 1050 l 1,12,-1
 970 1140 l 1,13,-1
 980 1140 l 1,14,-1
 980 300 l 2,15,16
 980 180 980 180 1080 180 c 2,17,-1
 1310 180 l 2,18,19
 1410 180 1410 180 1410 300 c 2,20,-1
 1410 1050 l 1,21,-1
 1600 1140 l 1,22,-1
 1610 1140 l 1,23,-1
 1610 300 l 2,24,25
 1610 0 1610 0 1310 0 c 2,26,-1
 1080 0 l 2,27,28
 942 0 942 0 880 74 c 1,29,30
 814 0 814 0 680 0 c 2,31,-1
 450 0 l 2,0,1
EndSplineSet
Validated: 1
EndChar

StartChar: x
Encoding: 120 120 91
Width: 1015
GlyphClass: 2
Flags: W
HStem: -40 21G<211.561 275.402 739.645 803.439> 1120 20G<212.831 276.382 738.665 802.169>
DStem2: 265 1140 80 1057 0.521796 -0.85307<0 491.057 768.305 1260.22> 80 42 264 -40 0.520884 0.853628<25.8452 518.293 795.722 1286.28>
LayerCount: 2
Fore
SplineSet
264 -40 m 1,0,-1
 254 -40 l 1,1,-1
 80 42 l 1,2,-1
 390 550 l 1,3,-1
 80 1057 l 1,4,-1
 255 1140 l 1,5,-1
 265 1140 l 1,6,-1
 508 713 l 1,7,-1
 750 1140 l 1,8,-1
 760 1140 l 1,9,-1
 935 1057 l 1,10,-1
 625 550 l 1,11,-1
 935 42 l 1,12,-1
 761 -40 l 1,13,-1
 751 -40 l 1,14,-1
 508 388 l 1,15,-1
 264 -40 l 1,0,-1
EndSplineSet
Validated: 1
EndChar

StartChar: y
Encoding: 121 121 92
Width: 1180
GlyphClass: 2
Flags: W
HStem: -410 180<334 758.442> 0 180<371.558 764.602> 1120 20G<297.778 350 927.778 980>
VStem: 150 200<198.047 1050> 780 200<-211.953 30 194.18 1050>
LayerCount: 2
Fore
SplineSet
450 0 m 2,0,1
 150 0 150 0 150 300 c 2,2,-1
 150 1050 l 1,3,-1
 340 1140 l 1,4,-1
 350 1140 l 1,5,-1
 350 300 l 2,6,7
 350 180 350 180 450 180 c 2,8,-1
 680 180 l 2,9,10
 780 180 780 180 780 300 c 2,11,-1
 780 1050 l 1,12,-1
 970 1140 l 1,13,-1
 980 1140 l 1,14,-1
 980 -110 l 2,15,16
 980 -410 980 -410 680 -410 c 2,17,-1
 254 -410 l 1,18,-1
 254 -400 l 1,19,-1
 334 -230 l 1,20,-1
 680 -230 l 2,21,22
 780 -230 780 -230 780 -110 c 2,23,-1
 780 30 l 1,24,25
 741 0 741 0 680 0 c 2,26,-1
 450 0 l 2,0,1
EndSplineSet
Validated: 1
EndChar

StartChar: z
Encoding: 122 122 93
Width: 1053
GlyphClass: 2
Flags: W
HStem: 0 182<421 872> 918 182<191 623>
DStem2: 100 10 421 182 0.499116 0.866535<309.26 1047.85>
LayerCount: 2
Fore
SplineSet
100 0 m 1,0,-1
 100 10 l 1,1,-1
 623 918 l 1,2,-1
 110 918 l 1,3,-1
 110 928 l 1,4,-1
 191 1100 l 1,5,-1
 943 1100 l 1,6,-1
 943 1090 l 1,7,-1
 421 182 l 1,8,-1
 953 182 l 1,9,-1
 953 172 l 1,10,-1
 872 0 l 1,11,-1
 100 0 l 1,0,-1
EndSplineSet
Validated: 1
EndChar

StartChar: braceleft
Encoding: 123 123 94
Width: 825
GlyphClass: 2
Flags: W
HStem: -240 180<566.162 775> 664 182<131 270> 1570 180<566.162 775>
VStem: 270 200<14.1963 664 846 1495.8>
CounterMasks: 1 e0
LayerCount: 2
Fore
SplineSet
775 1750 m 1,0,-1
 775 1570 l 1,1,2
 675 1570 675 1570 591 1537 c 0,3,4
 470 1489 470 1489 470 1420 c 2,5,-1
 470 90 l 2,6,7
 470 21 470 21 591 -27 c 0,8,9
 675 -60 675 -60 775 -60 c 1,10,-1
 775 -240 l 1,11,12
 624 -240 624 -240 497 -187 c 0,13,14
 270 -93 270 -93 270 90 c 2,15,-1
 270 664 l 1,16,-1
 50 664 l 1,17,-1
 50 674 l 1,18,-1
 131 846 l 1,19,-1
 270 846 l 1,20,-1
 270 1420 l 2,21,22
 270 1603 270 1603 497 1697 c 0,23,24
 624 1750 624 1750 775 1750 c 1,0,-1
EndSplineSet
Validated: 1
EndChar

StartChar: bar
Encoding: 124 124 95
Width: 666
GlyphClass: 2
Flags: W
VStem: 250 166<-166 1676>
LayerCount: 2
Fore
SplineSet
250 -240 m 1,0,-1
 250 1676 l 1,1,-1
 406 1750 l 1,2,-1
 416 1750 l 1,3,-1
 416 -166 l 1,4,-1
 260 -240 l 1,5,-1
 250 -240 l 1,0,-1
EndSplineSet
Validated: 3073
EndChar

StartChar: braceright
Encoding: 125 125 96
Width: 825
GlyphClass: 2
Flags: W
HStem: -240 180<50 258.838> 664 182<555 694> 1570 180<50 258.838>
VStem: 355 200<14.1963 664 846 1495.8>
CounterMasks: 1 e0
LayerCount: 2
Fore
SplineSet
50 1750 m 1,0,1
 201 1750 201 1750 328 1697 c 0,2,3
 555 1603 555 1603 555 1420 c 2,4,-1
 555 846 l 1,5,-1
 775 846 l 1,6,-1
 775 836 l 1,7,-1
 694 664 l 1,8,-1
 555 664 l 1,9,-1
 555 90 l 2,10,11
 555 -93 555 -93 328 -187 c 0,12,13
 201 -240 201 -240 50 -240 c 1,14,-1
 50 -60 l 1,15,16
 150 -60 150 -60 234 -27 c 0,17,18
 355 21 355 21 355 90 c 2,19,-1
 355 1420 l 2,20,21
 355 1489 355 1489 234 1537 c 0,22,23
 150 1570 150 1570 50 1570 c 1,24,-1
 50 1750 l 1,0,1
EndSplineSet
Validated: 1
EndChar

StartChar: asciitilde
Encoding: 126 126 97
Width: 1138
GlyphClass: 2
Flags: W
HStem: 583 177<648.531 800.75> 767 177<337.25 489.469>
VStem: 150 178<664 757.507> 810 178<769.493 863>
LayerCount: 2
Fore
SplineSet
150 583 m 1,0,1
 150 944 150 944 387 944 c 0,2,3
 521 944 521 944 610 843 c 0,4,5
 683 760 683 760 738 760 c 0,6,7
 810 760 810 760 810 863 c 1,8,-1
 978 944 l 1,9,-1
 988 944 l 1,10,11
 988 583 988 583 751 583 c 0,12,13
 617 583 617 583 528 684 c 0,14,15
 455 767 455 767 400 767 c 0,16,17
 328 767 328 767 328 664 c 1,18,-1
 160 583 l 1,19,-1
 150 583 l 1,0,1
EndSplineSet
Validated: 1
EndChar

StartChar: exclamdown
Encoding: 161 161 99
Width: 600
GlyphClass: 2
Flags: W
HStem: -40 21G<200 252.222> 1285 245<216.097 383.903>
VStem: 180 240<1322.13 1492.87> 200 200<50 1000>
LayerCount: 2
Fore
SplineSet
420 1407.5 m 128,-1,1
 420 1357 420 1357 385 1321 c 128,-1,2
 350 1285 350 1285 300 1285 c 128,-1,3
 250 1285 250 1285 215 1321 c 128,-1,4
 180 1357 180 1357 180 1407.5 c 128,-1,5
 180 1458 180 1458 215 1494 c 128,-1,6
 250 1530 250 1530 300 1530 c 128,-1,7
 350 1530 350 1530 385 1494 c 128,-1,0
 420 1458 420 1458 420 1407.5 c 128,-1,1
210 -40 m 1,8,-1
 200 -40 l 1,9,-1
 200 1000 l 1,10,-1
 390 1090 l 1,11,-1
 400 1090 l 1,12,-1
 400 50 l 1,13,-1
 210 -40 l 1,8,-1
EndSplineSet
Validated: 1
EndChar

StartChar: cent
Encoding: 162 162 100
Width: 1130
GlyphClass: 2
Flags: W
HStem: 0 180<371.558 507 623 758.442> 920 180<371.558 507 623 758.442>
VStem: 150 200<198.047 901.953> 507 116<-190 0 180 920 1100 1290> 780 200<198.047 353 747 901.953>
CounterMasks: 1 38
LayerCount: 2
Fore
SplineSet
450 0 m 2,0,1
 150 0 150 0 150 300 c 2,2,-1
 150 800 l 2,3,4
 150 1100 150 1100 450 1100 c 2,5,-1
 507 1100 l 1,6,-1
 507 1290 l 1,7,-1
 613 1340 l 1,8,-1
 623 1340 l 1,9,-1
 623 1100 l 1,10,-1
 680 1100 l 2,11,12
 980 1100 980 1100 980 800 c 2,13,-1
 980 747 l 1,14,-1
 790 657 l 1,15,-1
 780 657 l 1,16,-1
 780 800 l 2,17,18
 780 920 780 920 680 920 c 2,19,-1
 623 920 l 1,20,-1
 623 180 l 1,21,-1
 680 180 l 2,22,23
 780 180 780 180 780 300 c 2,24,-1
 780 353 l 1,25,-1
 970 443 l 1,26,-1
 980 443 l 1,27,-1
 980 300 l 2,28,29
 980 0 980 0 680 0 c 2,30,-1
 623 0 l 1,31,-1
 623 -190 l 1,32,-1
 517 -240 l 1,33,-1
 507 -240 l 1,34,-1
 507 -0 l 1,35,-1
 450 0 l 2,0,1
507 180 m 1,36,-1
 507 920 l 1,37,-1
 450 920 l 2,38,39
 350 920 350 920 350 800 c 2,40,-1
 350 300 l 2,41,42
 350 180 350 180 450 180 c 2,43,-1
 507 180 l 1,36,-1
EndSplineSet
Validated: 1
EndChar

StartChar: sterling
Encoding: 163 163 101
Width: 1335
GlyphClass: 2
Flags: W
HStem: 0 182<231 300 500 1104> 598 182<231 300 500 834> 1330 180<521.558 908.442>
VStem: 300 200<182 598 780 1311.95> 930 200<1137 1311.95>
LayerCount: 2
Fore
SplineSet
150 0 m 1,0,-1
 150 10 l 1,1,-1
 231 182 l 1,2,-1
 300 182 l 1,3,-1
 300 598 l 1,4,-1
 150 598 l 1,5,-1
 150 608 l 1,6,-1
 231 780 l 1,7,-1
 300 780 l 1,8,-1
 300 1210 l 2,9,10
 300 1510 300 1510 600 1510 c 2,11,-1
 830 1510 l 2,12,13
 1130 1510 1130 1510 1130 1210 c 2,14,-1
 1130 1137 l 1,15,-1
 940 1047 l 1,16,-1
 930 1047 l 1,17,-1
 930 1210 l 2,18,19
 930 1330 930 1330 830 1330 c 2,20,-1
 600 1330 l 2,21,22
 500 1330 500 1330 500 1210 c 2,23,-1
 500 780 l 1,24,-1
 915 780 l 1,25,-1
 915 770 l 1,26,-1
 834 598 l 1,27,-1
 500 598 l 1,28,-1
 500 182 l 1,29,-1
 1185 182 l 1,30,-1
 1185 172 l 1,31,-1
 1104 0 l 1,32,-1
 150 0 l 1,0,-1
EndSplineSet
Validated: 1
EndChar

StartChar: currency
Encoding: 164 164 102
Width: 1440
GlyphClass: 2
Flags: W
HStem: 266 180<460.5 995.5> 1048 180<460.67 995.5>
VStem: 223 200<481.846 1011.41> 1033 200<482.592 1011.76>
LayerCount: 2
Fore
SplineSet
573 446 m 2,0,-1
 883 446 l 2,1,2
 1033 446 1033 446 1033 616 c 2,3,-1
 1033 878 l 2,4,5
 1033 1048 1033 1048 883 1048 c 2,6,-1
 573 1048 l 2,7,8
 423 1048 423 1048 423 878 c 2,9,-1
 423 616 l 2,10,11
 423 446 423 446 573 446 c 2,0,-1
573 266 m 2,12,13
 458 266 458 266 381 304 c 1,14,-1
 336 258 l 1,15,-1
 157 322 l 1,16,-1
 150 329 l 1,17,-1
 256 435 l 1,18,19
 223 509 223 509 223 616 c 2,20,-1
 223 878 l 2,21,22
 223 1004 223 1004 268 1084 c 1,23,-1
 167 1185 l 1,24,-1
 174 1192 l 1,25,-1
 352 1256 l 1,26,-1
 407 1202 l 1,27,28
 477 1228 477 1228 573 1228 c 2,29,-1
 883 1228 l 2,30,31
 978 1228 978 1228 1047 1202 c 1,32,-1
 1103 1257 l 1,33,-1
 1282 1193 l 1,34,-1
 1289 1186 l 1,35,-1
 1188 1085 l 1,36,37
 1233 1004 1233 1004 1233 878 c 2,38,-1
 1233 616 l 2,39,40
 1233 490 1233 490 1188 410 c 1,41,-1
 1290 308 l 1,42,-1
 1283 301 l 1,43,-1
 1104 237 l 1,44,-1
 1048 292 l 1,45,46
 979 266 979 266 883 266 c 2,47,-1
 573 266 l 2,12,13
EndSplineSet
Validated: 1
EndChar

StartChar: yen
Encoding: 165 165 103
Width: 1278
GlyphClass: 2
Flags: W
HStem: -40 21G<516 568.222> 430 182<262 484 753 1014> 760 182<262 336 633 696 911 1014> 1530 20G<232.831 293.816 1053.72 1115>
VStem: 516 200<50 430>
DStem2: 285 1550 100 1467 0.403273 -0.91508<1.34602 576.935 863.252 938.596> 664 690 753 612 0.431707 0.902014<0 76.9556 333.939 947.983>
LayerCount: 2
Fore
SplineSet
516 -40 m 1,0,-1
 516 430 l 1,1,-1
 181 430 l 1,2,-1
 181 440 l 1,3,-1
 262 612 l 1,4,-1
 484 612 l 1,5,-1
 417 760 l 1,6,-1
 181 760 l 1,7,-1
 181 770 l 1,8,-1
 262 942 l 1,9,-1
 336 942 l 1,10,-1
 100 1467 l 1,11,-1
 275 1550 l 1,12,-1
 285 1550 l 1,13,-1
 553 942 l 1,14,-1
 781 942 l 1,15,-1
 1063 1550 l 1,16,-1
 1073 1550 l 1,17,-1
 1178 1500 l 1,18,-1
 911 942 l 1,19,-1
 1095 942 l 1,20,-1
 1095 932 l 1,21,-1
 1014 760 l 1,22,-1
 824 760 l 1,23,-1
 753 612 l 1,24,-1
 1095 612 l 1,25,-1
 1095 602 l 1,26,-1
 1014 430 l 1,27,-1
 716 430 l 1,28,-1
 716 50 l 1,29,-1
 526 -40 l 1,30,-1
 516 -40 l 1,0,-1
696 760 m 1,31,-1
 633 760 l 1,32,-1
 664 690 l 1,33,-1
 696 760 l 1,31,-1
EndSplineSet
Validated: 3073
EndChar

StartChar: brokenbar
Encoding: 166 166 104
Width: 666
GlyphClass: 2
Flags: W
VStem: 250 166<-166 587 923 1676>
LayerCount: 2
Fore
SplineSet
250 -240 m 1,0,-1
 250 587 l 1,1,-1
 406 661 l 1,2,-1
 416 661 l 1,3,-1
 416 -166 l 1,4,-1
 260 -240 l 1,5,-1
 250 -240 l 1,0,-1
406 1750 m 1,6,-1
 416 1750 l 1,7,-1
 416 923 l 1,8,-1
 260 849 l 1,9,-1
 250 849 l 1,10,-1
 250 1676 l 1,11,-1
 406 1750 l 1,6,-1
EndSplineSet
Validated: 3073
EndChar

StartChar: section
Encoding: 167 167 105
Width: 1130
GlyphClass: 2
Flags: W
HStem: 0 180<442.558 716.442> 421 180<371.558 716.442> 909 180<413.558 758.442> 1330 180<413.558 687.442>
VStem: 150 200<619.047 861> 192 200<1105.5 1313.89> 738 200<196.113 404.498> 780 200<649 890.953>
LayerCount: 2
Fore
SplineSet
221 242 m 1,0,-1
 411 332 l 1,1,-1
 421 332 l 1,2,-1
 421 300 l 2,3,4
 421 180 421 180 521 180 c 2,5,-1
 638 180 l 2,6,7
 738 180 738 180 738 300 c 1,8,9
 738 421 738 421 638 421 c 2,10,-1
 450 421 l 2,11,12
 150 421 150 421 150 721 c 2,13,-1
 150 926 l 25,14,-1
 350 861 l 25,15,-1
 350 721 l 2,16,17
 350 601 350 601 450 601 c 2,18,-1
 638 601 l 2,19,20
 938 601 938 601 938 300 c 1,21,22
 938 0 938 0 638 0 c 2,23,-1
 521 0 l 2,24,25
 221 0 221 0 221 242 c 1,0,-1
909 1268 m 1,26,-1
 719 1178 l 1,27,-1
 709 1178 l 1,28,-1
 709 1210 l 2,29,30
 709 1330 709 1330 609 1330 c 2,31,-1
 492 1330 l 2,32,33
 392 1330 392 1330 392 1210 c 1,34,35
 392 1089 392 1089 492 1089 c 2,36,-1
 680 1089 l 2,37,38
 980 1089 980 1089 980 789 c 2,39,-1
 980 584 l 25,40,-1
 780 649 l 25,41,-1
 780 789 l 2,42,43
 780 909 780 909 680 909 c 2,44,-1
 492 909 l 2,45,46
 192 909 192 909 192 1210 c 1,47,48
 192 1510 192 1510 492 1510 c 2,49,-1
 609 1510 l 2,50,51
 909 1510 909 1510 909 1268 c 1,26,-1
EndSplineSet
Validated: 1
EndChar

StartChar: dieresis
Encoding: 168 168 106
Width: 840
GlyphClass: 2
Flags: W
HStem: 1285 245<186.097 353.903 486.097 653.903>
VStem: 150 240<1322.13 1492.87> 450 240<1322.13 1492.87>
LayerCount: 2
Fore
SplineSet
450 1407.5 m 128,-1,1
 450 1458 450 1458 485 1494 c 128,-1,2
 520 1530 520 1530 570 1530 c 128,-1,3
 620 1530 620 1530 655 1494 c 128,-1,4
 690 1458 690 1458 690 1407.5 c 128,-1,5
 690 1357 690 1357 655 1321 c 128,-1,6
 620 1285 620 1285 570 1285 c 128,-1,7
 520 1285 520 1285 485 1321 c 128,-1,0
 450 1357 450 1357 450 1407.5 c 128,-1,1
150 1407.5 m 128,-1,9
 150 1458 150 1458 185 1494 c 128,-1,10
 220 1530 220 1530 270 1530 c 128,-1,11
 320 1530 320 1530 355 1494 c 128,-1,12
 390 1458 390 1458 390 1407.5 c 128,-1,13
 390 1357 390 1357 355 1321 c 128,-1,14
 320 1285 320 1285 270 1285 c 128,-1,15
 220 1285 220 1285 185 1321 c 128,-1,8
 150 1357 150 1357 150 1407.5 c 128,-1,9
EndSplineSet
Validated: 1
EndChar

StartChar: copyright
Encoding: 169 169 107
Width: 1401
GlyphClass: 2
Flags: W
HStem: 180 79<514.499 887.229> 352 140<581.125 828.875> 992 140<581.125 828.875> 1251 80<511.931 889.969>
VStem: 150 74<566.018 943.982> 428 150<495.274 987.988> 832 150<494.383 623 862 989.617> 1176 75<560.265 949.908>
LayerCount: 2
Fore
SplineSet
982 678 m 1,0,-1
 982 552 l 2,1,2
 982 352 982 352 782 352 c 2,3,-1
 628 352 l 2,4,5
 428 352 428 352 428 546 c 2,6,-1
 428 937 l 2,7,8
 428 1132 428 1132 628 1132 c 2,9,-1
 782 1132 l 2,10,11
 982 1132 982 1132 982 932 c 2,12,-1
 982 862 l 1,13,-1
 868 808 l 1,14,-1
 832 808 l 1,15,-1
 832 932 l 2,16,17
 832 992 832 992 782 992 c 2,18,-1
 628 992 l 2,19,20
 578 992 578 992 578 935 c 2,21,-1
 578 550 l 2,22,23
 578 492 578 492 628 492 c 2,24,-1
 782 492 l 2,25,26
 832 492 832 492 832 552 c 2,27,-1
 832 623 l 1,28,-1
 947 678 l 1,29,-1
 982 678 l 1,0,-1
701 1331 m 0,30,31
 811 1331 811 1331 911 1288 c 0,32,33
 1007 1247 1007 1247 1090 1161 c 0,34,35
 1170 1078 1170 1078 1211 975 c 0,36,37
 1251 874 1251 874 1251 754 c 0,38,39
 1251 638 1251 638 1211 535 c 0,40,41
 1173 437 1173 437 1090 350 c 0,42,43
 1011 267 1011 267 911 223 c 0,44,45
 813 180 813 180 701 180 c 0,46,47
 590 180 590 180 490 223 c 0,48,49
 394 264 394 264 311 350 c 0,50,51
 230 434 230 434 190 535 c 128,-1,52
 150 636 150 636 150 754 c 0,53,54
 150 873 150 873 190 975 c 128,-1,55
 230 1077 230 1077 311 1161 c 0,56,57
 392 1246 392 1246 490 1288.5 c 128,-1,58
 588 1331 588 1331 701 1331 c 0,30,31
701 1251 m 0,59,60
 603 1251 603 1251 520 1215 c 128,-1,61
 437 1179 437 1179 366 1105 c 0,62,63
 296 1032 296 1032 260 944 c 128,-1,64
 224 856 224 856 224 759 c 2,65,-1
 224 754 l 2,66,67
 224 655 224 655 260 566 c 0,68,69
 294 483 294 483 366 406 c 0,70,71
 436 332 436 332 519 296 c 0,72,73
 604 259 604 259 701 259 c 128,-1,74
 798 259 798 259 883 296 c 0,75,76
 966 332 966 332 1037 406 c 0,77,78
 1106 478 1106 478 1141 565 c 128,-1,79
 1176 652 1176 652 1176 754 c 0,80,81
 1176 857 1176 857 1141 945 c 0,82,83
 1107 1031 1107 1031 1037 1105 c 0,84,85
 968 1178 968 1178 883 1215 c 0,86,87
 798 1251 798 1251 701 1251 c 0,59,60
EndSplineSet
Validated: 1
EndChar

StartChar: ordfeminine
Encoding: 170 170 108
Width: 955
GlyphClass: 2
Flags: W
HStem: 664 182<231 724> 920 130<397.475 557.531> 1198 130<397.475 557.931> 1380 130<376 553.525>
VStem: 253 140<1050.16 1197.84> 558 140<1050 1198 1327 1379.84>
LayerCount: 2
Fore
SplineSet
423 920 m 2,0,1
 253 920 253 920 253 1090 c 2,2,-1
 253 1158 l 2,3,4
 253 1328 253 1328 423 1328 c 2,5,-1
 528 1328 l 2,6,7
 556 1329 556 1329 558 1327 c 1,8,-1
 558 1340 l 2,9,10
 558 1380 558 1380 528 1380 c 2,11,-1
 329 1380 l 1,12,-1
 329 1409 l 1,13,-1
 376 1510 l 1,14,-1
 528 1510 l 2,15,16
 698 1510 698 1510 698 1340 c 2,17,-1
 698 952 l 1,18,-1
 587 900 l 1,19,-1
 558 900 l 1,20,-1
 558 922 l 1,21,22
 543 920 543 920 528 920 c 2,23,-1
 423 920 l 2,0,1
528 1198 m 2,24,25
 423 1198 l 2,26,27
 392 1199 392 1199 393 1158 c 2,28,-1
 393 1090 l 2,29,30
 393 1050 393 1050 423 1050 c 2,31,-1
 528 1050 l 2,32,33
 558 1050 558 1050 558 1090 c 2,34,-1
 558 1158 l 2,35,36
 558 1199 558 1199 528 1198 c 2,24,25
150 664 m 1,37,-1
 150 674 l 1,38,-1
 231 846 l 1,39,-1
 805 846 l 1,40,-1
 805 836 l 1,41,-1
 724 664 l 1,42,-1
 150 664 l 1,37,-1
EndSplineSet
Validated: 1
EndChar

StartChar: guillemotleft
Encoding: 171 171 109
Width: 1208
GlyphClass: 2
Flags: W
DStem2: 150 792 381 795 0.506484 0.862249<119.585 570.601> 381 795 150 792 0.509561 -0.860435<0 452.028> 535 792 766 795 0.506484 0.862249<119.585 570.601> 766 795 535 792 0.509561 -0.860435<0 452.028>
LayerCount: 2
Fore
SplineSet
824 304 m 1,0,-1
 535 792 l 1,1,-1
 824 1284 l 1,2,-1
 834 1284 l 1,3,-1
 1008 1202 l 1,4,-1
 766 795 l 1,5,-1
 1008 386 l 1,6,-1
 834 304 l 1,7,-1
 824 304 l 1,0,-1
439 304 m 1,8,-1
 150 792 l 1,9,-1
 439 1284 l 1,10,-1
 449 1284 l 1,11,-1
 623 1202 l 1,12,-1
 381 795 l 1,13,-1
 623 386 l 1,14,-1
 449 304 l 1,15,-1
 439 304 l 1,8,-1
EndSplineSet
Validated: 1
EndChar

StartChar: logicalnot
Encoding: 172 172 110
Width: 1214
GlyphClass: 2
Flags: W
HStem: 664 182<231 784>
LayerCount: 2
Fore
SplineSet
642 402 m 1,0,-1
 784 664 l 1,1,-1
 150 664 l 1,2,-1
 150 674 l 1,3,-1
 231 846 l 1,4,-1
 1064 846 l 1,5,-1
 1064 836 l 1,6,-1
 857 402 l 1,7,-1
 642 402 l 1,0,-1
EndSplineSet
Validated: 1
EndChar

StartChar: uni00AD
Encoding: 173 173 111
Width: 1214
GlyphClass: 2
Flags: W
HStem: 664 182<231 983>
LayerCount: 2
Fore
SplineSet
150 664 m 1,0,-1
 150 674 l 1,1,-1
 231 846 l 1,2,-1
 1064 846 l 1,3,-1
 1064 836 l 1,4,-1
 983 664 l 1,5,-1
 150 664 l 1,0,-1
EndSplineSet
Validated: 3073
EndChar

StartChar: registered
Encoding: 174 174 112
Width: 1401
GlyphClass: 2
Flags: W
HStem: 180 79<514.499 887.229> 630 140<593 676> 1015 140<593 834.875> 1251 80<511.834 889.969>
VStem: 150 74<566.018 943.982> 443 150<409 630 770 1015> 838 150<772.01 1013.7> 1176 75<560.265 949.908>
DStem2: 855 637 676 630 0.574461 -0.818532<0 238.868>
LayerCount: 2
Fore
SplineSet
593 770 m 1,0,-1
 788 770 l 2,1,2
 838 770 838 770 838 824 c 2,3,-1
 838 961 l 2,4,5
 838 1015 838 1015 788 1015 c 2,6,-1
 593 1015 l 1,7,-1
 593 770 l 1,0,-1
443 355 m 1,8,-1
 443 1121 l 1,9,-1
 515 1155 l 1,10,-1
 788 1155 l 2,11,12
 988 1154 988 1154 988 964 c 2,13,-1
 988 821 l 2,14,15
 988 668 988 668 855 637 c 1,16,-1
 1012 412 l 1,17,-1
 892 355 l 1,18,-1
 869 355 l 1,19,-1
 676 630 l 1,20,-1
 593 630 l 1,21,-1
 593 409 l 1,22,-1
 478 355 l 1,23,-1
 443 355 l 1,8,-1
701 1251 m 0,24,25
 603 1251 603 1251 520 1215 c 128,-1,26
 437 1179 437 1179 366 1105 c 0,27,28
 296 1032 296 1032 260 944 c 128,-1,29
 224 856 224 856 224 759 c 2,30,-1
 224 754 l 2,31,32
 224 655 224 655 260 566 c 0,33,34
 294 483 294 483 366 406 c 0,35,36
 436 332 436 332 519 296 c 0,37,38
 604 259 604 259 701 259 c 128,-1,39
 798 259 798 259 883 296 c 0,40,41
 966 332 966 332 1037 406 c 0,42,43
 1106 478 1106 478 1141 565 c 128,-1,44
 1176 652 1176 652 1176 754 c 0,45,46
 1176 857 1176 857 1141 945 c 0,47,48
 1107 1031 1107 1031 1037 1105 c 0,49,50
 968 1178 968 1178 883 1215 c 0,51,52
 798 1251 798 1251 701 1251 c 0,24,25
701 1331 m 0,53,54
 811 1331 811 1331 911 1288 c 0,55,56
 1007 1247 1007 1247 1090 1161 c 0,57,58
 1170 1078 1170 1078 1211 975 c 0,59,60
 1251 874 1251 874 1251 754 c 0,61,62
 1251 638 1251 638 1211 535 c 0,63,64
 1173 437 1173 437 1090 350 c 0,65,66
 1011 267 1011 267 911 223 c 0,67,68
 813 180 813 180 701 180 c 0,69,70
 590 180 590 180 490 223 c 0,71,72
 394 264 394 264 311 350 c 0,73,74
 230 434 230 434 190 535 c 128,-1,75
 150 636 150 636 150 754 c 0,76,77
 150 874 150 874 190 975 c 128,-1,78
 230 1076 230 1076 311 1161 c 0,79,80
 393 1246 393 1246 490 1288.5 c 128,-1,81
 587 1331 587 1331 701 1331 c 0,53,54
EndSplineSet
Validated: 1
EndChar

StartChar: macron
Encoding: 175 175 113
Width: 1214
GlyphClass: 2
Flags: W
HStem: 1328 182<231 983>
LayerCount: 2
Fore
SplineSet
150 1328 m 1,0,-1
 150 1338 l 1,1,-1
 231 1510 l 1,2,-1
 1064 1510 l 1,3,-1
 1064 1500 l 1,4,-1
 983 1328 l 1,5,-1
 150 1328 l 1,0,-1
EndSplineSet
Validated: 3073
EndChar

StartChar: degree
Encoding: 176 176 114
Width: 1130
GlyphClass: 2
Flags: W
HStem: 750 180<371.558 758.442> 1330 180<371.558 758.442>
VStem: 150 200<948.047 1311.95> 780 200<948.047 1311.95>
LayerCount: 2
Fore
SplineSet
450 930 m 2,0,-1
 680 930 l 2,1,2
 780 930 780 930 780 1050 c 2,3,-1
 780 1210 l 2,4,5
 780 1330 780 1330 680 1330 c 2,6,-1
 450 1330 l 2,7,8
 350 1330 350 1330 350 1210 c 2,9,-1
 350 1050 l 2,10,11
 350 930 350 930 450 930 c 2,0,-1
450 750 m 2,12,13
 150 750 150 750 150 1050 c 2,14,-1
 150 1210 l 2,15,16
 150 1510 150 1510 450 1510 c 2,17,-1
 680 1510 l 2,18,19
 980 1510 980 1510 980 1210 c 2,20,-1
 980 1050 l 2,21,22
 980 750 980 750 680 750 c 2,23,-1
 450 750 l 2,12,13
EndSplineSet
Validated: 1
EndChar

StartChar: plusminus
Encoding: 177 177 115
Width: 1214
GlyphClass: 2
Flags: W
HStem: 243 182<231 983> 835 182<231 516 698 983>
VStem: 516 182<550 835 1017 1302>
LayerCount: 2
Fore
SplineSet
150 243 m 1,0,-1
 150 253 l 1,1,-1
 231 425 l 1,2,-1
 1064 425 l 1,3,-1
 1064 415 l 1,4,-1
 983 243 l 1,5,-1
 150 243 l 1,0,-1
698 1383 m 1,6,-1
 698 1017 l 1,7,-1
 1064 1017 l 1,8,-1
 1064 1007 l 1,9,-1
 983 835 l 1,10,-1
 698 835 l 1,11,-1
 698 550 l 1,12,-1
 526 469 l 1,13,-1
 516 469 l 1,14,-1
 516 835 l 1,15,-1
 150 835 l 1,16,-1
 150 845 l 1,17,-1
 231 1017 l 1,18,-1
 516 1017 l 1,19,-1
 516 1302 l 1,20,-1
 688 1383 l 1,21,-1
 698 1383 l 1,6,-1
EndSplineSet
Validated: 3073
EndChar

StartChar: uni00B2
Encoding: 178 178 116
Width: 862
GlyphClass: 2
Flags: W
HStem: 730 141<400 662> 1370 140<308.125 546.875>
VStem: 155 150<1239 1367.62> 550 150<1155.31 1366.73>
DStem2: 195 861 400 871 0.735267 0.677777<157.508 522.845>
LayerCount: 2
Fore
SplineSet
150 730 m 1,0,-1
 150 766 l 1,1,-1
 195 861 l 1,2,-1
 438 1085 l 1,3,4
 550 1190 550 1190 550 1235 c 2,5,-1
 550 1313 l 2,6,7
 550 1370 550 1370 500 1370 c 2,8,-1
 355 1370 l 2,9,10
 305 1370 305 1370 305 1310 c 2,11,-1
 305 1239 l 1,12,-1
 191 1185 l 1,13,-1
 155 1185 l 1,14,-1
 155 1310 l 2,15,16
 155 1510 155 1510 355 1510 c 2,17,-1
 500 1510 l 2,18,19
 700 1510 700 1510 700 1316 c 2,20,-1
 700 1233 l 2,21,22
 700 1131 700 1131 563 1015 c 1,23,-1
 400 871 l 1,24,-1
 712 871 l 1,25,-1
 712 835 l 1,26,-1
 662 730 l 1,27,-1
 150 730 l 1,0,-1
EndSplineSet
Validated: 1
EndChar

StartChar: uni00B3
Encoding: 179 179 117
Width: 855
GlyphClass: 2
Flags: W
HStem: 730 140<303.125 551.875> 1095 135<514 553.935> 1369 141<244 440>
VStem: 150 150<872.383 1001> 555 150<873.274 1094.49>
LayerCount: 2
Fore
SplineSet
244 1510 m 1,0,-1
 680 1510 l 1,1,-1
 514 1230 l 1,2,3
 604 1228 604 1228 653 1182 c 0,4,5
 705 1133 705 1133 705 1036 c 2,6,-1
 705 924 l 2,7,8
 705 730 705 730 505 730 c 2,9,-1
 350 730 l 2,10,11
 150 730 150 730 150 930 c 2,12,-1
 150 1001 l 1,13,-1
 264 1055 l 1,14,-1
 300 1055 l 1,15,-1
 300 930 l 2,16,17
 300 870 300 870 350 870 c 2,18,-1
 505 870 l 2,19,20
 555 870 555 870 555 927 c 2,21,-1
 555 1038 l 2,22,23
 555 1095 555 1095 505 1095 c 2,24,-1
 286 1095 l 1,25,-1
 440 1369 l 1,26,-1
 194 1369 l 1,27,-1
 194 1405 l 1,28,-1
 244 1510 l 1,0,-1
EndSplineSet
Validated: 1
EndChar

StartChar: acute
Encoding: 180 180 118
Width: 648
GlyphClass: 2
Flags: W
HStem: 1150 400
VStem: 150 348
LayerCount: 2
Fore
SplineSet
312 1550 m 1,0,-1
 322 1550 l 1,1,-1
 498 1466 l 1,2,-1
 277 1150 l 1,3,-1
 267 1150 l 1,4,-1
 150 1205 l 1,5,-1
 312 1550 l 1,0,-1
EndSplineSet
Validated: 3073
EndChar

StartChar: uni00B5
Encoding: 181 181 119
Width: 1180
GlyphClass: 2
Flags: W
HStem: -450 21G<200 252.222> 0 180<416.008 808.442> 1120 20G<347.778 400 977.778 1030>
VStem: 200 200<-360 30 194.18 1050> 830 200<198.047 1050>
LayerCount: 2
Fore
SplineSet
500 0 m 2,0,1
 441 0 441 0 400 30 c 1,2,-1
 400 -360 l 1,3,-1
 210 -450 l 1,4,-1
 200 -450 l 1,5,-1
 200 1050 l 1,6,-1
 390 1140 l 1,7,-1
 400 1140 l 1,8,-1
 400 300 l 2,9,10
 400 180 400 180 500 180 c 2,11,-1
 730 180 l 2,12,13
 830 180 830 180 830 300 c 2,14,-1
 830 1050 l 1,15,-1
 1020 1140 l 1,16,-1
 1030 1140 l 1,17,-1
 1030 300 l 2,18,19
 1030 0 1030 0 730 0 c 2,20,-1
 500 0 l 2,0,1
EndSplineSet
Validated: 1
EndChar

StartChar: paragraph
Encoding: 182 182 120
Width: 1180
GlyphClass: 2
Flags: W
HStem: -40 21G<780 832.857> 1490 20G<300 830>
VStem: 780 70<-12 604> 914 66<50 1137>
LayerCount: 2
Fore
SplineSet
780 -40 m 1,0,-1
 780 604 l 1,1,2
 739 574 739 574 680 574 c 2,3,-1
 450 574 l 2,4,5
 150 574 150 574 150 874 c 2,6,-1
 150 1210 l 2,7,8
 150 1510 150 1510 450 1510 c 2,9,-1
 680 1510 l 2,10,11
 980 1510 980 1510 980 1210 c 2,12,-1
 980 50 l 1,13,-1
 914 19 l 1,14,-1
 914 1137 l 1,15,-1
 850 1137 l 1,16,-1
 850 -12 l 1,17,-1
 790 -40 l 1,18,-1
 780 -40 l 1,0,-1
EndSplineSet
Validated: 1
EndChar

StartChar: periodcentered
Encoding: 183 183 121
Width: 600
GlyphClass: 2
Flags: W
HStem: 631 245<216.097 383.903>
VStem: 180 240<668.129 838.871>
LayerCount: 2
Fore
SplineSet
180 753.5 m 132,-1,1
 180 804 180 804 215 840 c 132,-1,2
 250 876 250 876 300 876 c 132,-1,3
 350 876 350 876 385 840 c 132,-1,4
 420 804 420 804 420 753.5 c 132,-1,5
 420 703 420 703 385 667 c 132,-1,6
 350 631 350 631 300 631 c 132,-1,7
 250 631 250 631 215 667 c 132,-1,0
 180 703 180 703 180 753.5 c 132,-1,1
EndSplineSet
Validated: 1
EndChar

StartChar: cedilla
Encoding: 184 184 122
Width: 609
GlyphClass: 2
Flags: W
HStem: -286 564
VStem: 284 175<-116.616 108.943>
LayerCount: 2
Fore
SplineSet
214 278 m 1,0,1
 459 149 459 149 459 -42 c 0,2,3
 459 -179 459 -179 350 -286 c 1,4,-1
 340 -286 l 1,5,-1
 150 -196 l 1,6,7
 284 -109 284 -109 284 12 c 0,8,9
 284 113 284 113 171 228 c 1,10,-1
 214 278 l 1,0,1
EndSplineSet
Validated: 1
EndChar

StartChar: uni00B9
Encoding: 185 185 123
Width: 672
GlyphClass: 2
Flags: W
HStem: 1325 112<150 262> 1530 20G<344.23 422>
VStem: 272 150<764 1382>
LayerCount: 2
Fore
SplineSet
386 1550 m 1,0,-1
 422 1550 l 1,1,-1
 422 764 l 1,2,-1
 308 710 l 1,3,-1
 272 710 l 1,4,-1
 272 1382 l 1,5,-1
 150 1325 l 1,6,-1
 150 1437 l 1,7,-1
 386 1550 l 1,0,-1
EndSplineSet
Validated: 3073
EndChar

StartChar: ordmasculine
Encoding: 186 186 124
Width: 955
GlyphClass: 2
Flags: W
HStem: 664 182<231 724> 920 130<395.619 561.525> 1380 130<395.619 561.525>
VStem: 251 140<1050.16 1379.84> 566 140<1050.16 1379.84>
LayerCount: 2
Fore
SplineSet
421 1050 m 2,0,1
 536 1050 l 2,2,3
 566 1050 566 1050 566 1090 c 2,4,-1
 566 1340 l 2,5,6
 566 1380 566 1380 536 1380 c 2,7,-1
 421 1380 l 2,8,9
 392 1380 392 1380 391 1340 c 2,10,-1
 391 1090 l 2,11,12
 392 1050 392 1050 421 1050 c 2,0,1
421 920 m 2,13,14
 252 920 252 920 251 1090 c 2,15,-1
 251 1340 l 2,16,17
 252 1510 252 1510 421 1510 c 2,18,-1
 536 1510 l 2,19,20
 706 1510 706 1510 706 1340 c 2,21,-1
 706 1090 l 2,22,23
 706 920 706 920 536 920 c 2,24,-1
 421 920 l 2,13,14
150 664 m 1,25,-1
 150 674 l 1,26,-1
 231 846 l 1,27,-1
 805 846 l 1,28,-1
 805 836 l 1,29,-1
 724 664 l 1,30,-1
 150 664 l 1,25,-1
EndSplineSet
Validated: 1
EndChar

StartChar: guillemotright
Encoding: 187 187 125
Width: 1208
GlyphClass: 2
Flags: W
DStem2: 384 1284 200 1202 0.506484 -0.862249<0 451.016> 200 386 384 304 0.509561 0.860435<23.2035 475.231> 769 1284 585 1202 0.506484 -0.862249<0 451.016> 585 386 769 304 0.509561 0.860435<23.2035 475.231>
LayerCount: 2
Fore
SplineSet
384 304 m 1,0,-1
 374 304 l 1,1,-1
 200 386 l 1,2,-1
 442 795 l 1,3,-1
 200 1202 l 1,4,-1
 374 1284 l 1,5,-1
 384 1284 l 1,6,-1
 673 792 l 1,7,-1
 384 304 l 1,0,-1
769 304 m 1,8,-1
 759 304 l 1,9,-1
 585 386 l 1,10,-1
 827 795 l 1,11,-1
 585 1202 l 1,12,-1
 759 1284 l 1,13,-1
 769 1284 l 1,14,-1
 1058 792 l 1,15,-1
 769 304 l 1,8,-1
EndSplineSet
Validated: 1
EndChar

StartChar: onequarter
Encoding: 188 188 126
Width: 1469
GlyphClass: 2
Flags: W
HStem: -40 21G<310.529 371.317 1044 1122.22> 195 141<879 1044 1194 1219> 1325 112<150 262> 1530 20G<344.23 422 910.683 971.471>
VStem: 272 150<764 1382> 1044 150<14 195 336 540>
DStem2: 211 28 362 -40 0.422266 0.906472<2.12205 1679.04>
LayerCount: 2
Fore
SplineSet
879 336 m 1,0,-1
 1044 336 l 1,1,-1
 1044 540 l 1,2,-1
 879 336 l 1,0,-1
1044 -40 m 1,3,-1
 1044 195 l 1,4,-1
 678 195 l 1,5,-1
 678 231 l 1,6,-1
 722 324 l 1,7,-1
 1053 750 l 1,8,-1
 1158 800 l 1,9,-1
 1194 800 l 1,10,-1
 1194 336 l 1,11,-1
 1269 336 l 1,12,-1
 1269 300 l 1,13,-1
 1219 195 l 1,14,-1
 1194 195 l 1,15,-1
 1194 14 l 1,16,-1
 1080 -40 l 1,17,-1
 1044 -40 l 1,3,-1
386 1550 m 1,18,-1
 422 1550 l 1,19,-1
 422 764 l 1,20,-1
 308 710 l 1,21,-1
 272 710 l 1,22,-1
 272 1382 l 1,23,-1
 150 1325 l 1,24,-1
 150 1437 l 1,25,-1
 386 1550 l 1,18,-1
352 -40 m 1,26,-1
 211 28 l 1,27,-1
 920 1550 l 1,28,-1
 930 1550 l 1,29,-1
 1071 1482 l 1,30,-1
 362 -40 l 1,31,-1
 352 -40 l 1,26,-1
EndSplineSet
Validated: 1
EndChar

StartChar: onehalf
Encoding: 189 189 127
Width: 1536
GlyphClass: 2
Flags: W
HStem: -40 21G<310.529 371.317> 0 141<1024 1286> 640 140<932.125 1170.88> 1325 112<150 262> 1530 20G<344.23 422 910.683 971.471>
VStem: 272 150<764 1382> 779 150<509 637.617> 1174 150<425.312 636.726>
DStem2: 211 28 362 -40 0.422266 0.906472<2.12205 1679.04> 819 131 1024 141 0.735267 0.677777<157.508 522.845>
LayerCount: 2
Fore
SplineSet
774 0 m 1,0,-1
 774 36 l 1,1,-1
 819 131 l 1,2,-1
 1062 355 l 1,3,4
 1174 460 1174 460 1174 505 c 2,5,-1
 1174 583 l 2,6,7
 1174 640 1174 640 1124 640 c 2,8,-1
 979 640 l 2,9,10
 929 640 929 640 929 580 c 2,11,-1
 929 509 l 1,12,-1
 815 455 l 1,13,-1
 779 455 l 1,14,-1
 779 580 l 2,15,16
 779 780 779 780 979 780 c 2,17,-1
 1124 780 l 2,18,19
 1324 780 1324 780 1324 586 c 2,20,-1
 1324 503 l 2,21,22
 1324 401 1324 401 1187 285 c 1,23,-1
 1024 141 l 1,24,-1
 1336 141 l 1,25,-1
 1336 105 l 1,26,-1
 1286 0 l 1,27,-1
 774 0 l 1,0,-1
386 1550 m 1,28,-1
 422 1550 l 1,29,-1
 422 764 l 1,30,-1
 308 710 l 1,31,-1
 272 710 l 1,32,-1
 272 1382 l 1,33,-1
 150 1325 l 1,34,-1
 150 1437 l 1,35,-1
 386 1550 l 1,28,-1
352 -40 m 1,36,-1
 211 28 l 1,37,-1
 920 1550 l 1,38,-1
 930 1550 l 1,39,-1
 1071 1482 l 1,40,-1
 362 -40 l 1,41,-1
 352 -40 l 1,36,-1
EndSplineSet
Validated: 1
EndChar

StartChar: threequarters
Encoding: 190 190 128
Width: 1665
GlyphClass: 2
Flags: W
HStem: -40 21G<506.529 567.317 1240 1318.22> 195 141<1075 1240 1390 1415> 730 140<303.125 551.875> 1095 135<514 553.935> 1369 141<244 440> 1530 20G<1106.68 1167.47>
VStem: 150 150<872.383 1001> 555 150<873.274 1094.49> 1240 150<14 195 336 540>
DStem2: 407 28 558 -40 0.422266 0.906472<2.12205 1679.04>
LayerCount: 2
Fore
SplineSet
244 1510 m 1,0,-1
 680 1510 l 1,1,-1
 514 1230 l 1,2,3
 604 1228 604 1228 653 1182 c 0,4,5
 705 1133 705 1133 705 1036 c 2,6,-1
 705 924 l 2,7,8
 705 730 705 730 505 730 c 2,9,-1
 350 730 l 2,10,11
 150 730 150 730 150 930 c 2,12,-1
 150 1001 l 1,13,-1
 264 1055 l 1,14,-1
 300 1055 l 1,15,-1
 300 930 l 2,16,17
 300 870 300 870 350 870 c 2,18,-1
 505 870 l 2,19,20
 555 870 555 870 555 927 c 2,21,-1
 555 1038 l 2,22,23
 555 1095 555 1095 505 1095 c 2,24,-1
 286 1095 l 1,25,-1
 440 1369 l 1,26,-1
 194 1369 l 1,27,-1
 194 1405 l 1,28,-1
 244 1510 l 1,0,-1
1075 336 m 1,29,-1
 1240 336 l 1,30,-1
 1240 540 l 1,31,-1
 1075 336 l 1,29,-1
1240 -40 m 1,32,-1
 1240 195 l 1,33,-1
 874 195 l 1,34,-1
 874 231 l 1,35,-1
 918 324 l 1,36,-1
 1249 750 l 1,37,-1
 1354 800 l 1,38,-1
 1390 800 l 1,39,-1
 1390 336 l 1,40,-1
 1465 336 l 1,41,-1
 1465 300 l 1,42,-1
 1415 195 l 1,43,-1
 1390 195 l 1,44,-1
 1390 14 l 1,45,-1
 1276 -40 l 1,46,-1
 1240 -40 l 1,32,-1
548 -40 m 1,47,-1
 407 28 l 1,48,-1
 1116 1550 l 1,49,-1
 1126 1550 l 1,50,-1
 1267 1482 l 1,51,-1
 558 -40 l 1,52,-1
 548 -40 l 1,47,-1
EndSplineSet
Validated: 1
EndChar

StartChar: questiondown
Encoding: 191 191 129
Width: 1310
VWidth: 2068
GlyphClass: 2
Flags: W
HStem: 0 180<390.027 919.973> 1285 245<581.097 748.903>
VStem: 150 200<222.253 595.792> 545 240<1322.13 1492.87> 579 203<955.582 1056> 960 200<222.253 460>
LayerCount: 2
Fore
SplineSet
500 0 m 2,0,1
 150 0 150 0 150 350 c 2,2,-1
 150 460 l 2,3,4
 150 707 150 707 489 919 c 24,5,6
 576 973 576 973 579 1056 c 1,7,-1
 772 1149 l 1,8,-1
 782 1149 l 1,9,10
 781 895 781 895 607 788 c 24,11,12
 350 630 350 630 350 459 c 2,13,-1
 350 350 l 2,14,15
 350 180 350 180 500 180 c 2,16,-1
 810 180 l 2,17,18
 960 180 960 180 960 350 c 2,19,-1
 960 460 l 1,20,-1
 1150 550 l 1,21,-1
 1160 550 l 1,22,-1
 1160 350 l 2,23,24
 1160 0 1160 0 810 0 c 2,25,-1
 500 0 l 2,0,1
785 1407.5 m 128,-1,27
 785 1357 785 1357 750 1321 c 128,-1,28
 715 1285 715 1285 665 1285 c 128,-1,29
 615 1285 615 1285 580 1321 c 128,-1,30
 545 1357 545 1357 545 1407.5 c 128,-1,31
 545 1458 545 1458 580 1494 c 128,-1,32
 615 1530 615 1530 665 1530 c 128,-1,33
 715 1530 715 1530 750 1494 c 128,-1,26
 785 1458 785 1458 785 1407.5 c 128,-1,27
EndSplineSet
Validated: 1
EndChar

StartChar: Delta
Encoding: 916 916 130
Width: 1191
GlyphClass: 2
Flags: W
HStem: 0 182<275 916> 1530 20G<623.805 682.581>
DStem2: 5 0 275 182 0.315452 0.948942<257.879 1340.03>
LayerCount: 2
Fore
SplineSet
5 0 m 1,0,-1
 493 1468 l 1,1,-1
 666 1550 l 1,2,-1
 676 1550 l 1,3,-1
 1186 0 l 1,4,-1
 5 0 l 1,0,-1
275 182 m 1,5,-1
 916 182 l 1,6,-1
 598 1215 l 1,7,-1
 275 182 l 1,5,-1
EndSplineSet
Validated: 1
EndChar

StartChar: Pi
Encoding: 928 928 131
Width: 1390
GlyphClass: 2
Flags: W
HStem: -40 21G<200 252.222 990 1042.22> 1328 182<400 990>
VStem: 200 200<50 1328> 990 200<50 1328>
LayerCount: 2
Fore
SplineSet
210 -40 m 1,0,-1
 200 -40 l 1,1,-1
 200 1460 l 1,2,-1
 306 1510 l 1,3,-1
 1190 1510 l 1,4,-1
 1190 50 l 1,5,-1
 1000 -40 l 1,6,-1
 990 -40 l 1,7,-1
 990 1328 l 1,8,-1
 400 1328 l 1,9,-1
 400 50 l 1,10,-1
 210 -40 l 1,0,-1
EndSplineSet
Validated: 3073
EndChar

StartChar: Sigma
Encoding: 931 931 132
Width: 1203
GlyphClass: 2
Flags: W
HStem: 0 182<430 972> 1328 182<416 881>
DStem2: 416 1328 101 1460 0.592076 -0.805882<0 558.361>
LayerCount: 2
Fore
SplineSet
100 0 m 1,0,-1
 605 774 l 1,1,-1
 101 1460 l 1,2,-1
 207 1510 l 1,3,-1
 962 1510 l 1,4,-1
 962 1500 l 1,5,-1
 881 1328 l 1,6,-1
 416 1328 l 1,7,-1
 837 774 l 1,8,-1
 430 182 l 1,9,-1
 1053 182 l 1,10,-1
 1053 172 l 1,11,-1
 972 0 l 1,12,-1
 100 0 l 1,0,-1
EndSplineSet
Validated: 1
EndChar

StartChar: Omega
Encoding: 937 937 133
Width: 1410
GlyphClass: 2
Flags: W
HStem: 0 422<447.461 608 802 962.539> 0 182<231 446 964 1179> 1330 180<440.027 969.973>
VStem: 200 200<461.993 1287.75> 446 162<182 280.816> 802 162<182 280.816> 1010 200<461.993 1287.75>
LayerCount: 2
Fore
SplineSet
150 0 m 1,0,-1
 150 10 l 1,1,-1
 231 182 l 1,2,-1
 446 182 l 1,3,-1
 446 270 l 1,4,5
 200 317 200 317 200 592 c 2,6,-1
 200 1160 l 2,7,8
 200 1510 200 1510 550 1510 c 2,9,-1
 860 1510 l 2,10,11
 1210 1510 1210 1510 1210 1160 c 2,12,-1
 1210 592 l 2,13,14
 1210 317 1210 317 964 270 c 1,15,-1
 964 182 l 1,16,-1
 1260 182 l 1,17,-1
 1260 172 l 1,18,-1
 1179 0 l 1,19,-1
 802 0 l 1,20,-1
 802 422 l 1,21,-1
 860 422 l 2,22,23
 1010 422 1010 422 1010 592 c 2,24,-1
 1010 1160 l 2,25,26
 1010 1330 1010 1330 860 1330 c 2,27,-1
 550 1330 l 2,28,29
 400 1330 400 1330 400 1160 c 2,30,-1
 400 592 l 2,31,32
 400 422 400 422 550 422 c 2,33,-1
 608 422 l 1,34,-1
 608 0 l 1,35,-1
 150 0 l 1,0,-1
EndSplineSet
Validated: 1
EndChar

StartChar: mu
Encoding: 956 956 134
Width: 1180
GlyphClass: 2
Flags: W
HStem: -450 21G<200 252.222> 0 180<416.008 808.442> 1120 20G<347.778 400 977.778 1030>
VStem: 200 200<-360 30 194.18 1050> 830 200<198.047 1050>
LayerCount: 2
Fore
SplineSet
500 0 m 2,0,1
 441 0 441 0 400 30 c 1,2,-1
 400 -360 l 1,3,-1
 210 -450 l 1,4,-1
 200 -450 l 1,5,-1
 200 1050 l 1,6,-1
 390 1140 l 1,7,-1
 400 1140 l 1,8,-1
 400 300 l 2,9,10
 400 180 400 180 500 180 c 2,11,-1
 730 180 l 2,12,13
 830 180 830 180 830 300 c 2,14,-1
 830 1050 l 1,15,-1
 1020 1140 l 1,16,-1
 1030 1140 l 1,17,-1
 1030 300 l 2,18,19
 1030 0 1030 0 730 0 c 2,20,-1
 500 0 l 2,0,1
EndSplineSet
Validated: 1
EndChar

StartChar: pi
Encoding: 960 960 135
Width: 1230
GlyphClass: 2
Flags: W
HStem: -40 21G<200 252.222 830 882.222> 918 182<400 830>
VStem: 200 200<50 918> 830 200<50 918>
LayerCount: 2
Fore
SplineSet
210 -40 m 1,0,-1
 200 -40 l 1,1,-1
 200 1050 l 1,2,-1
 306 1100 l 1,3,-1
 1030 1100 l 1,4,-1
 1030 50 l 1,5,-1
 840 -40 l 1,6,-1
 830 -40 l 1,7,-1
 830 918 l 1,8,-1
 400 918 l 1,9,-1
 400 50 l 1,10,-1
 210 -40 l 1,0,-1
EndSplineSet
Validated: 1
EndChar

StartChar: uni2010
Encoding: 8208 8208 136
Width: 1214
GlyphClass: 2
Flags: W
HStem: 664 182<306 908>
LayerCount: 2
Fore
SplineSet
225 664 m 1,0,-1
 225 674 l 1,1,-1
 306 846 l 1,2,-1
 989 846 l 1,3,-1
 989 836 l 1,4,-1
 908 664 l 1,5,-1
 225 664 l 1,0,-1
EndSplineSet
Validated: 3073
EndChar

StartChar: uni2011
Encoding: 8209 8209 137
Width: 1214
GlyphClass: 2
Flags: W
HStem: 664 182<306 908>
LayerCount: 2
Fore
SplineSet
225 664 m 1,0,-1
 225 674 l 1,1,-1
 306 846 l 1,2,-1
 989 846 l 1,3,-1
 989 836 l 1,4,-1
 908 664 l 1,5,-1
 225 664 l 1,0,-1
EndSplineSet
Validated: 3073
EndChar

StartChar: figuredash
Encoding: 8210 8210 138
Width: 1214
GlyphClass: 2
Flags: W
HStem: 664 182<231 983>
LayerCount: 2
Fore
SplineSet
150 664 m 1,0,-1
 150 674 l 1,1,-1
 231 846 l 1,2,-1
 1064 846 l 1,3,-1
 1064 836 l 1,4,-1
 983 664 l 1,5,-1
 150 664 l 1,0,-1
EndSplineSet
Validated: 3073
EndChar

StartChar: endash
Encoding: 8211 8211 139
Width: 1214
GlyphClass: 2
Flags: W
HStem: 664 182<231 983>
LayerCount: 2
Fore
SplineSet
150 664 m 1,0,-1
 150 674 l 1,1,-1
 231 846 l 1,2,-1
 1064 846 l 1,3,-1
 1064 836 l 1,4,-1
 983 664 l 1,5,-1
 150 664 l 1,0,-1
EndSplineSet
Validated: 3073
EndChar

StartChar: emdash
Encoding: 8212 8212 140
Width: 1214
GlyphClass: 2
Flags: W
HStem: 664 182<106 1108>
LayerCount: 2
Fore
SplineSet
25 664 m 1,0,-1
 25 674 l 1,1,-1
 106 846 l 1,2,-1
 1189 846 l 1,3,-1
 1189 836 l 1,4,-1
 1108 664 l 1,5,-1
 25 664 l 1,0,-1
EndSplineSet
Validated: 3073
EndChar

StartChar: afii00208
Encoding: 8213 8213 141
Width: 1214
GlyphClass: 2
Flags: W
HStem: 664 182<106 1108>
LayerCount: 2
Fore
SplineSet
25 664 m 1,0,-1
 25 674 l 1,1,-1
 106 846 l 1,2,-1
 1189 846 l 1,3,-1
 1189 836 l 1,4,-1
 1108 664 l 1,5,-1
 25 664 l 1,0,-1
EndSplineSet
Validated: 3073
EndChar

StartChar: underscoredbl
Encoding: 8215 8215 142
Width: 1214
GlyphClass: 2
Flags: W
HStem: -410 182<231 983> -182 182<231 983>
LayerCount: 2
Fore
SplineSet
150 -182 m 1,0,-1
 150 -172 l 1,1,-1
 231 0 l 1,2,-1
 1064 0 l 1,3,-1
 1064 -10 l 1,4,-1
 983 -182 l 1,5,-1
 150 -182 l 1,0,-1
150 -410 m 1,6,-1
 150 -400 l 1,7,-1
 231 -228 l 1,8,-1
 1064 -228 l 1,9,-1
 1064 -238 l 1,10,-1
 983 -410 l 1,11,-1
 150 -410 l 1,6,-1
EndSplineSet
Validated: 3073
EndChar

StartChar: quoteleft
Encoding: 8216 8216 143
Width: 609
GlyphClass: 2
Flags: W
HStem: 986 564
VStem: 150 175<1155.38 1380.94>
LayerCount: 2
Fore
SplineSet
395 1550 m 1,0,-1
 438 1500 l 1,1,2
 325 1385 325 1385 325 1284 c 0,3,4
 325 1163 325 1163 459 1076 c 1,5,-1
 269 986 l 1,6,-1
 259 986 l 1,7,8
 150 1093 150 1093 150 1230 c 0,9,10
 150 1421 150 1421 395 1550 c 1,0,-1
EndSplineSet
Validated: 1
EndChar

StartChar: quoteright
Encoding: 8217 8217 144
Width: 609
GlyphClass: 2
Flags: W
HStem: 986 564
VStem: 284 175<1155.06 1380.62>
LayerCount: 2
Fore
SplineSet
340 1550 m 1,0,-1
 350 1550 l 1,1,2
 459 1443 459 1443 459 1306 c 0,3,4
 459 1115 459 1115 214 986 c 1,5,-1
 171 1036 l 1,6,7
 284 1151 284 1151 284 1252 c 0,8,9
 284 1373 284 1373 150 1460 c 1,10,-1
 340 1550 l 1,0,-1
EndSplineSet
Validated: 1
EndChar

StartChar: quotesinglbase
Encoding: 8218 8218 145
Width: 609
GlyphClass: 2
Flags: W
HStem: -286 564
VStem: 284 175<-116.943 108.616>
LayerCount: 2
Fore
SplineSet
340 278 m 1,0,-1
 350 278 l 1,1,2
 459 171 459 171 459 34 c 0,3,4
 459 -157 459 -157 214 -286 c 1,5,-1
 171 -236 l 1,6,7
 284 -121 284 -121 284 -20 c 0,8,9
 284 101 284 101 150 188 c 1,10,-1
 340 278 l 1,0,-1
EndSplineSet
Validated: 1
EndChar

StartChar: quotereversed
Encoding: 8219 8219 146
Width: 609
GlyphClass: 2
Flags: W
HStem: 986 564
VStem: 150 175<1155.06 1380.62>
LayerCount: 2
Fore
SplineSet
259 1550 m 1,0,-1
 269 1550 l 1,1,-1
 459 1460 l 1,2,3
 325 1373 325 1373 325 1252 c 0,4,5
 325 1151 325 1151 438 1036 c 1,6,-1
 395 986 l 1,7,8
 150 1115 150 1115 150 1306 c 0,9,10
 150 1443 150 1443 259 1550 c 1,0,-1
EndSplineSet
Validated: 1
EndChar

StartChar: quotedblleft
Encoding: 8220 8220 147
Width: 924
GlyphClass: 2
Flags: W
HStem: 986 564
VStem: 150 175<1155.38 1380.94> 465 175<1155.38 1380.94>
LayerCount: 2
Fore
SplineSet
395 1550 m 1,0,-1
 438 1500 l 1,1,2
 325 1385 325 1385 325 1284 c 0,3,4
 325 1163 325 1163 459 1076 c 1,5,-1
 269 986 l 1,6,-1
 259 986 l 1,7,8
 150 1093 150 1093 150 1230 c 0,9,10
 150 1421 150 1421 395 1550 c 1,0,-1
710 1550 m 1,11,-1
 753 1500 l 1,12,13
 640 1385 640 1385 640 1284 c 0,14,15
 640 1163 640 1163 774 1076 c 1,16,-1
 584 986 l 1,17,-1
 574 986 l 1,18,19
 465 1093 465 1093 465 1230 c 0,20,21
 465 1421 465 1421 710 1550 c 1,11,-1
EndSplineSet
Validated: 1
EndChar

StartChar: quotedblright
Encoding: 8221 8221 148
Width: 924
GlyphClass: 2
Flags: W
HStem: 986 564
VStem: 284 175<1155.06 1380.62> 599 175<1155.06 1380.62>
LayerCount: 2
Fore
SplineSet
655 1550 m 1,0,-1
 665 1550 l 1,1,2
 774 1443 774 1443 774 1306 c 0,3,4
 774 1115 774 1115 529 986 c 1,5,-1
 486 1036 l 1,6,7
 599 1151 599 1151 599 1252 c 0,8,9
 599 1373 599 1373 465 1460 c 1,10,-1
 655 1550 l 1,0,-1
340 1550 m 1,11,-1
 350 1550 l 1,12,13
 459 1443 459 1443 459 1306 c 0,14,15
 459 1115 459 1115 214 986 c 1,16,-1
 171 1036 l 1,17,18
 284 1151 284 1151 284 1252 c 0,19,20
 284 1373 284 1373 150 1460 c 1,21,-1
 340 1550 l 1,11,-1
EndSplineSet
Validated: 1
EndChar

StartChar: quotedblbase
Encoding: 8222 8222 149
Width: 924
GlyphClass: 2
Flags: W
HStem: -286 564
VStem: 284 175<-116.943 108.616> 599 175<-116.943 108.616>
LayerCount: 2
Fore
SplineSet
655 278 m 1,0,-1
 665 278 l 1,1,2
 774 171 774 171 774 34 c 0,3,4
 774 -157 774 -157 529 -286 c 1,5,-1
 486 -236 l 1,6,7
 599 -121 599 -121 599 -20 c 0,8,9
 599 101 599 101 465 188 c 1,10,-1
 655 278 l 1,0,-1
340 278 m 1,11,-1
 350 278 l 1,12,13
 459 171 459 171 459 34 c 0,14,15
 459 -157 459 -157 214 -286 c 1,16,-1
 171 -236 l 1,17,18
 284 -121 284 -121 284 -20 c 0,19,20
 284 101 284 101 150 188 c 1,21,-1
 340 278 l 1,11,-1
EndSplineSet
Validated: 1
EndChar

StartChar: uni201F
Encoding: 8223 8223 150
Width: 924
GlyphClass: 2
Flags: W
HStem: 986 564
VStem: 150 175<1155.06 1380.62> 465 175<1155.06 1380.62>
LayerCount: 2
Fore
SplineSet
259 1550 m 1,0,1
 269 1550 l 1,2,-1
 459 1460 l 1,3,4
 325 1373 325 1373 325 1252 c 0,5,6
 325 1151 325 1151 438 1036 c 1,7,-1
 395 986 l 1,8,9
 150 1115 150 1115 150 1306 c 0,10,11
 150 1443 150 1443 259 1550 c 1,0,1
574 1550 m 1,12,-1
 584 1550 l 1,13,-1
 774 1460 l 1,14,15
 640 1373 640 1373 640 1252 c 0,16,17
 640 1151 640 1151 753 1036 c 1,18,-1
 710 986 l 1,19,20
 465 1115 465 1115 465 1306 c 0,21,22
 465 1443 465 1443 574 1550 c 1,12,-1
EndSplineSet
Validated: 1
EndChar

StartChar: dagger
Encoding: 8224 8224 151
Width: 1214
GlyphClass: 2
Flags: W
HStem: -40 21G<507 559.222> 996 182<231 507 707 983> 1530 20G<654.778 707>
VStem: 507 200<50 996 1178 1460>
LayerCount: 2
Fore
SplineSet
517 -40 m 1,0,-1
 507 -40 l 1,1,-1
 507 996 l 1,2,-1
 150 996 l 1,3,-1
 150 1006 l 1,4,-1
 231 1178 l 1,5,-1
 507 1178 l 1,6,-1
 507 1460 l 1,7,-1
 697 1550 l 1,8,-1
 707 1550 l 1,9,-1
 707 1178 l 1,10,-1
 1064 1178 l 1,11,-1
 1064 1168 l 1,12,-1
 983 996 l 1,13,-1
 707 996 l 1,14,-1
 707 50 l 1,15,-1
 517 -40 l 1,0,-1
EndSplineSet
Validated: 3073
EndChar

StartChar: daggerdbl
Encoding: 8225 8225 152
Width: 1214
GlyphClass: 2
Flags: W
HStem: -40 21G<507 559.222> 332 182<231 507 707 983> 996 182<231 507 707 983> 1530 20G<654.778 707>
VStem: 507 200<50 332 514 996 1178 1460>
LayerCount: 2
Fore
SplineSet
517 -40 m 1,0,-1
 507 -40 l 1,1,-1
 507 332 l 1,2,-1
 150 332 l 1,3,-1
 150 342 l 1,4,-1
 231 514 l 1,5,-1
 507 514 l 1,6,-1
 507 996 l 1,7,-1
 150 996 l 1,8,-1
 150 1006 l 1,9,-1
 231 1178 l 1,10,-1
 507 1178 l 1,11,-1
 507 1460 l 1,12,-1
 697 1550 l 1,13,-1
 707 1550 l 1,14,-1
 707 1178 l 1,15,-1
 1064 1178 l 1,16,-1
 1064 1168 l 1,17,-1
 983 996 l 1,18,-1
 707 996 l 1,19,-1
 707 514 l 1,20,-1
 1064 514 l 1,21,-1
 1064 504 l 1,22,-1
 983 332 l 1,23,-1
 707 332 l 1,24,-1
 707 50 l 1,25,-1
 517 -40 l 1,0,-1
EndSplineSet
Validated: 3073
EndChar

StartChar: bullet
Encoding: 8226 8226 153
Width: 1130
GlyphClass: 2
Flags: W
HStem: 374 760<267.188 862.812>
LayerCount: 2
Fore
SplineSet
450 374 m 2,0,1
 150 374 150 374 150 674 c 2,2,-1
 150 834 l 2,3,4
 150 1134 150 1134 450 1134 c 2,5,-1
 680 1134 l 2,6,7
 980 1134 980 1134 980 834 c 2,8,-1
 980 674 l 2,9,10
 980 374 980 374 680 374 c 2,11,-1
 450 374 l 2,0,1
EndSplineSet
Validated: 1
EndChar

StartChar: uni2023
Encoding: 8227 8227 154
Width: 928
GlyphClass: 2
Flags: W
HStem: 1121 20G<200 233.493>
VStem: 200 628
LayerCount: 2
Fore
SplineSet
200 362 m 1,0,-1
 200 1141 l 1,1,-1
 828 766 l 1,2,-1
 200 362 l 1,0,-1
EndSplineSet
Validated: 3073
EndChar

StartChar: onedotenleader
Encoding: 8228 8228 155
Width: 600
GlyphClass: 2
Flags: W
HStem: -20 245<216.097 383.903>
VStem: 180 240<17.1285 187.871>
LayerCount: 2
Fore
SplineSet
180 102.5 m 128,-1,1
 180 153 180 153 215 189 c 128,-1,2
 250 225 250 225 300 225 c 128,-1,3
 350 225 350 225 385 189 c 128,-1,4
 420 153 420 153 420 102.5 c 128,-1,5
 420 52 420 52 385 16 c 128,-1,6
 350 -20 350 -20 300 -20 c 128,-1,7
 250 -20 250 -20 215 16 c 128,-1,0
 180 52 180 52 180 102.5 c 128,-1,1
EndSplineSet
Validated: 1
EndChar

StartChar: twodotenleader
Encoding: 8229 8229 156
Width: 936
GlyphClass: 2
Flags: W
HStem: -20 245<216.097 383.903 552.097 719.903>
VStem: 180 240<17.1285 187.871> 516 240<17.1285 187.871>
LayerCount: 2
Fore
SplineSet
516 102.5 m 128,-1,1
 516 153 516 153 551 189 c 128,-1,2
 586 225 586 225 636 225 c 128,-1,3
 686 225 686 225 721 189 c 128,-1,4
 756 153 756 153 756 102.5 c 128,-1,5
 756 52 756 52 721 16 c 128,-1,6
 686 -20 686 -20 636 -20 c 128,-1,7
 586 -20 586 -20 551 16 c 128,-1,0
 516 52 516 52 516 102.5 c 128,-1,1
180 102.5 m 128,-1,9
 180 153 180 153 215 189 c 128,-1,10
 250 225 250 225 300 225 c 128,-1,11
 350 225 350 225 385 189 c 128,-1,12
 420 153 420 153 420 102.5 c 128,-1,13
 420 52 420 52 385 16 c 128,-1,14
 350 -20 350 -20 300 -20 c 128,-1,15
 250 -20 250 -20 215 16 c 128,-1,8
 180 52 180 52 180 102.5 c 128,-1,9
EndSplineSet
Validated: 1
EndChar

StartChar: ellipsis
Encoding: 8230 8230 157
Width: 1272
GlyphClass: 2
Flags: W
HStem: -20 245<216.097 383.903 552.097 719.903 888.097 1055.9>
VStem: 180 240<17.1285 187.871> 516 240<17.1285 187.871> 852 240<17.1285 187.871>
CounterMasks: 1 70
LayerCount: 2
Fore
SplineSet
852 102.5 m 128,-1,1
 852 153 852 153 887 189 c 128,-1,2
 922 225 922 225 972 225 c 128,-1,3
 1022 225 1022 225 1057 189 c 128,-1,4
 1092 153 1092 153 1092 102.5 c 128,-1,5
 1092 52 1092 52 1057 16 c 128,-1,6
 1022 -20 1022 -20 972 -20 c 128,-1,7
 922 -20 922 -20 887 16 c 128,-1,0
 852 52 852 52 852 102.5 c 128,-1,1
516 102.5 m 128,-1,9
 516 153 516 153 551 189 c 128,-1,10
 586 225 586 225 636 225 c 128,-1,11
 686 225 686 225 721 189 c 128,-1,12
 756 153 756 153 756 102.5 c 128,-1,13
 756 52 756 52 721 16 c 128,-1,14
 686 -20 686 -20 636 -20 c 128,-1,15
 586 -20 586 -20 551 16 c 128,-1,8
 516 52 516 52 516 102.5 c 128,-1,9
180 102.5 m 128,-1,17
 180 153 180 153 215 189 c 128,-1,18
 250 225 250 225 300 225 c 128,-1,19
 350 225 350 225 385 189 c 128,-1,20
 420 153 420 153 420 102.5 c 128,-1,21
 420 52 420 52 385 16 c 128,-1,22
 350 -20 350 -20 300 -20 c 128,-1,23
 250 -20 250 -20 215 16 c 128,-1,16
 180 52 180 52 180 102.5 c 128,-1,17
EndSplineSet
Validated: 1
EndChar

StartChar: uni2027
Encoding: 8231 8231 158
Width: 600
GlyphClass: 2
Flags: W
HStem: 631 245<216.097 383.903>
VStem: 180 240<668.129 838.871>
LayerCount: 2
Fore
SplineSet
180 753.5 m 132,-1,1
 180 804 180 804 215 840 c 132,-1,2
 250 876 250 876 300 876 c 132,-1,3
 350 876 350 876 385 840 c 132,-1,4
 420 804 420 804 420 753.5 c 132,-1,5
 420 703 420 703 385 667 c 132,-1,6
 350 631 350 631 300 631 c 132,-1,7
 250 631 250 631 215 667 c 132,-1,0
 180 703 180 703 180 753.5 c 132,-1,1
EndSplineSet
Validated: 1
EndChar

StartChar: perthousand
Encoding: 8240 8240 159
Width: 3050
GlyphClass: 2
Flags: W
HStem: -40 21G<746.529 807.317> 0 180<1385.56 1772.44 2291.56 2678.44> 580 180<1385.56 1772.44 2291.56 2678.44> 750 180<371.558 758.442> 1330 180<371.558 758.442> 1530 20G<1346.68 1407.47>
VStem: 150 200<948.047 1311.95> 780 200<948.047 1311.95> 1164 200<198.047 561.953> 1794 200<198.047 561.953> 2070 200<198.047 561.953> 2700 200<198.047 561.953>
DStem2: 647 28 798 -40 0.422266 0.906472<2.12205 1679.04>
LayerCount: 2
Fore
SplineSet
2370 180 m 2,0,-1
 2600 180 l 2,1,2
 2700 180 2700 180 2700 300 c 2,3,-1
 2700 460 l 2,4,5
 2700 580 2700 580 2600 580 c 2,6,-1
 2370 580 l 2,7,8
 2270 580 2270 580 2270 460 c 2,9,-1
 2270 300 l 2,10,11
 2270 180 2270 180 2370 180 c 2,0,-1
2370 0 m 2,12,13
 2070 0 2070 0 2070 300 c 2,14,-1
 2070 460 l 2,15,16
 2070 760 2070 760 2370 760 c 2,17,-1
 2600 760 l 2,18,19
 2900 760 2900 760 2900 460 c 2,20,-1
 2900 300 l 2,21,22
 2900 0 2900 0 2600 0 c 2,23,-1
 2370 0 l 2,12,13
1464 180 m 2,24,-1
 1694 180 l 2,25,26
 1794 180 1794 180 1794 300 c 2,27,-1
 1794 460 l 2,28,29
 1794 580 1794 580 1694 580 c 2,30,-1
 1464 580 l 2,31,32
 1364 580 1364 580 1364 460 c 2,33,-1
 1364 300 l 2,34,35
 1364 180 1364 180 1464 180 c 2,24,-1
1464 0 m 2,36,37
 1164 0 1164 0 1164 300 c 2,38,-1
 1164 460 l 2,39,40
 1164 760 1164 760 1464 760 c 2,41,-1
 1694 760 l 2,42,43
 1994 760 1994 760 1994 460 c 2,44,-1
 1994 300 l 2,45,46
 1994 0 1994 0 1694 0 c 2,47,-1
 1464 0 l 2,36,37
450 930 m 2,48,-1
 680 930 l 2,49,50
 780 930 780 930 780 1050 c 2,51,-1
 780 1210 l 2,52,53
 780 1330 780 1330 680 1330 c 2,54,-1
 450 1330 l 2,55,56
 350 1330 350 1330 350 1210 c 2,57,-1
 350 1050 l 2,58,59
 350 930 350 930 450 930 c 2,48,-1
450 750 m 2,60,61
 150 750 150 750 150 1050 c 2,62,-1
 150 1210 l 2,63,64
 150 1510 150 1510 450 1510 c 2,65,-1
 680 1510 l 2,66,67
 980 1510 980 1510 980 1210 c 2,68,-1
 980 1050 l 2,69,70
 980 750 980 750 680 750 c 2,71,-1
 450 750 l 2,60,61
788 -40 m 1,72,-1
 647 28 l 1,73,-1
 1356 1550 l 1,74,-1
 1366 1550 l 1,75,-1
 1507 1482 l 1,76,-1
 798 -40 l 1,77,-1
 788 -40 l 1,72,-1
EndSplineSet
Validated: 1
EndChar

StartChar: minute
Encoding: 8242 8242 160
Width: 680
GlyphClass: 2
Flags: W
HStem: 1059 491
VStem: 150 380
LayerCount: 2
Fore
SplineSet
344 1550 m 1,0,-1
 354 1550 l 1,1,-1
 530 1466 l 1,2,-1
 277 1059 l 1,3,-1
 267 1059 l 1,4,-1
 150 1114 l 1,5,-1
 344 1550 l 1,0,-1
EndSplineSet
Validated: 3073
EndChar

StartChar: second
Encoding: 8243 8243 161
Width: 998
GlyphClass: 2
Flags: W
HStem: 1059 491
LayerCount: 2
Fore
SplineSet
662 1550 m 1,0,-1
 672 1550 l 1,1,-1
 848 1466 l 1,2,-1
 595 1059 l 1,3,-1
 585 1059 l 1,4,-1
 468 1114 l 1,5,-1
 662 1550 l 1,0,-1
344 1550 m 1,6,-1
 354 1550 l 1,7,-1
 530 1466 l 1,8,-1
 277 1059 l 1,9,-1
 267 1059 l 1,10,-1
 150 1114 l 1,11,-1
 344 1550 l 1,6,-1
EndSplineSet
Validated: 3073
EndChar

StartChar: uni2034
Encoding: 8244 8244 162
Width: 1316
GlyphClass: 2
Flags: W
HStem: 1059 491
LayerCount: 2
Fore
SplineSet
980 1550 m 1,0,-1
 990 1550 l 1,1,-1
 1166 1466 l 1,2,-1
 913 1059 l 1,3,-1
 903 1059 l 1,4,-1
 786 1114 l 1,5,-1
 980 1550 l 1,0,-1
662 1550 m 1,6,-1
 672 1550 l 1,7,-1
 848 1466 l 1,8,-1
 595 1059 l 1,9,-1
 585 1059 l 1,10,-1
 468 1114 l 1,11,-1
 662 1550 l 1,6,-1
344 1550 m 1,12,-1
 354 1550 l 1,13,-1
 530 1466 l 1,14,-1
 277 1059 l 1,15,-1
 267 1059 l 1,16,-1
 150 1114 l 1,17,-1
 344 1550 l 1,12,-1
EndSplineSet
Validated: 3073
EndChar

StartChar: uni2035
Encoding: 8245 8245 163
Width: 680
GlyphClass: 2
Flags: W
HStem: 1059 491
VStem: 150 380
LayerCount: 2
Fore
SplineSet
326 1550 m 1,0,-1
 336 1550 l 1,1,-1
 530 1114 l 1,2,-1
 413 1059 l 1,3,-1
 403 1059 l 1,4,-1
 150 1466 l 1,5,-1
 326 1550 l 1,0,-1
EndSplineSet
Validated: 3073
EndChar

StartChar: uni2036
Encoding: 8246 8246 164
Width: 998
GlyphClass: 2
Flags: W
HStem: 1059 491
LayerCount: 2
Fore
SplineSet
326 1550 m 1,0,-1
 336 1550 l 1,1,-1
 530 1114 l 1,2,-1
 413 1059 l 1,3,-1
 403 1059 l 1,4,-1
 150 1466 l 1,5,-1
 326 1550 l 1,0,-1
644 1550 m 1,6,-1
 654 1550 l 1,7,-1
 848 1114 l 1,8,-1
 731 1059 l 1,9,-1
 721 1059 l 1,10,-1
 468 1466 l 1,11,-1
 644 1550 l 1,6,-1
EndSplineSet
Validated: 3073
EndChar

StartChar: uni2037
Encoding: 8247 8247 165
Width: 1316
GlyphClass: 2
Flags: W
HStem: 1059 491
LayerCount: 2
Fore
SplineSet
336 1550 m 1,0,-1
 530 1114 l 1,1,-1
 413 1059 l 1,2,-1
 403 1059 l 1,3,-1
 150 1466 l 1,4,-1
 326 1550 l 1,5,-1
 336 1550 l 1,0,-1
644 1550 m 1,6,-1
 654 1550 l 1,7,-1
 848 1114 l 1,8,-1
 731 1059 l 1,9,-1
 721 1059 l 1,10,-1
 468 1466 l 1,11,-1
 644 1550 l 1,6,-1
962 1550 m 1,12,-1
 972 1550 l 1,13,-1
 1166 1114 l 1,14,-1
 1049 1059 l 1,15,-1
 1039 1059 l 1,16,-1
 786 1466 l 1,17,-1
 962 1550 l 1,12,-1
EndSplineSet
Validated: 3073
EndChar

StartChar: guilsinglleft
Encoding: 8249 8249 166
Width: 823
GlyphClass: 2
Flags: W
VStem: 150 473
DStem2: 150 792 381 795 0.506484 0.862249<119.585 570.601> 381 795 150 792 0.509561 -0.860435<0 452.028>
LayerCount: 2
Fore
SplineSet
439 304 m 1,0,-1
 150 792 l 1,1,-1
 439 1284 l 1,2,-1
 449 1284 l 1,3,-1
 623 1202 l 1,4,-1
 381 795 l 1,5,-1
 623 386 l 1,6,-1
 449 304 l 1,7,-1
 439 304 l 1,0,-1
EndSplineSet
Validated: 1
EndChar

StartChar: guilsinglright
Encoding: 8250 8250 167
Width: 823
GlyphClass: 2
Flags: W
VStem: 200 473
DStem2: 384 1284 200 1202 0.506484 -0.862249<0 451.016> 200 386 384 304 0.509561 0.860435<23.2035 475.231>
LayerCount: 2
Fore
SplineSet
384 304 m 1,0,-1
 374 304 l 1,1,-1
 200 386 l 1,2,-1
 442 795 l 1,3,-1
 200 1202 l 1,4,-1
 374 1284 l 1,5,-1
 384 1284 l 1,6,-1
 673 792 l 1,7,-1
 384 304 l 1,0,-1
EndSplineSet
Validated: 1
EndChar

StartChar: uni2043
Encoding: 8259 8259 168
Width: 1183
GlyphClass: 2
Flags: W
VStem: 500 182<387 605 921 1139>
DStem2: 311 1030 150 913 0.865946 -0.500138<0 218.179 533.824 752.003> 150 613 311 496 0.865946 0.500138<80.9012 299.08 614.726 832.904>
LayerCount: 2
Fore
SplineSet
682 1220 m 1,0,-1
 682 921 l 1,1,-1
 871 1030 l 1,2,-1
 1028 921 l 1,3,-1
 1033 913 l 1,4,-1
 773 763 l 1,5,-1
 1033 613 l 1,6,-1
 1028 605 l 1,7,-1
 871 496 l 1,8,-1
 682 605 l 1,9,-1
 682 387 l 1,10,-1
 510 306 l 1,11,-1
 500 306 l 1,12,-1
 500 605 l 1,13,-1
 311 496 l 1,14,-1
 155 605 l 1,15,-1
 150 613 l 1,16,-1
 409 763 l 1,17,-1
 150 913 l 1,18,-1
 155 921 l 1,19,-1
 311 1030 l 1,20,-1
 500 921 l 1,21,-1
 500 1139 l 1,22,-1
 672 1220 l 1,23,-1
 682 1220 l 1,0,-1
EndSplineSet
Validated: 3073
EndChar

StartChar: fraction
Encoding: 8260 8260 169
Width: 974
GlyphClass: 2
Flags: W
DStem2: 10 -72 161 -140 0.422626 0.906304<2.18787 1899.6>
LayerCount: 2
Fore
SplineSet
151 -140 m 1,0,-1
 10 -72 l 1,1,-1
 812 1650 l 1,2,-1
 822 1650 l 1,3,-1
 964 1582 l 1,4,-1
 161 -140 l 1,5,-1
 151 -140 l 1,0,-1
EndSplineSet
Validated: 3073
EndChar

StartChar: Euro
Encoding: 8364 8364 170
Width: 1584
GlyphClass: 2
Flags: W
HStem: 0 180<614.027 1143.97> 507 182<231 374 574 983> 828 182<231 374 574 983> 1330 180<614.027 1143.97>
VStem: 374 200<222.253 507 689 828 1010 1287.75> 1184 200<222.253 460 1050 1287.75>
LayerCount: 2
Fore
SplineSet
150 507 m 1,0,-1
 150 517 l 1,1,-1
 231 689 l 1,2,-1
 374 689 l 1,3,-1
 374 828 l 1,4,-1
 150 828 l 1,5,-1
 150 838 l 1,6,-1
 231 1010 l 1,7,-1
 374 1010 l 1,8,-1
 374 1160 l 2,9,10
 374 1510 374 1510 724 1510 c 2,11,-1
 1034 1510 l 2,12,13
 1384 1510 1384 1510 1384 1160 c 2,14,-1
 1384 1050 l 1,15,-1
 1194 960 l 1,16,-1
 1184 960 l 1,17,-1
 1184 1160 l 2,18,19
 1184 1330 1184 1330 1034 1330 c 2,20,-1
 724 1330 l 2,21,22
 574 1330 574 1330 574 1160 c 2,23,-1
 574 1010 l 1,24,-1
 1064 1010 l 1,25,-1
 1064 1000 l 1,26,-1
 983 828 l 1,27,-1
 574 828 l 1,28,-1
 574 689 l 1,29,-1
 1064 689 l 1,30,-1
 1064 679 l 1,31,-1
 983 507 l 1,32,-1
 574 507 l 1,33,-1
 574 350 l 2,34,35
 574 180 574 180 724 180 c 2,36,-1
 1034 180 l 2,37,38
 1184 180 1184 180 1184 350 c 2,39,-1
 1184 460 l 1,40,-1
 1374 550 l 1,41,-1
 1384 550 l 1,42,-1
 1384 350 l 2,43,44
 1384 0 1384 0 1034 0 c 2,45,-1
 724 0 l 2,46,47
 374 0 374 0 374 350 c 2,48,-1
 374 507 l 1,49,-1
 150 507 l 1,0,-1
EndSplineSet
Validated: 1
EndChar

StartChar: afii61248
Encoding: 8453 8453 171
Width: 1658
GlyphClass: 2
Flags: W
HStem: -40 21G<504.529 565.317> 0 140<1107.12 1354.88> 640 140<1107.12 1354.88> 730 140<303.125 550.875> 1370 140<303.125 550.875> 1530 20G<1104.68 1165.47>
VStem: 150 150<873.274 1365.99> 554 150<872.383 1001 1240 1367.62> 954 150<143.274 635.988> 1358 150<143.274 635.988>
DStem2: 405 28 556 -40 0.422266 0.906472<2.12205 1679.04>
LayerCount: 2
Fore
SplineSet
1154 0 m 2,0,1
 954 0 954 0 954 194 c 2,2,-1
 954 585 l 2,3,4
 954 780 954 780 1154 780 c 2,5,-1
 1308 780 l 2,6,7
 1508 780 1508 780 1508 585 c 2,8,-1
 1508 194 l 2,9,10
 1508 0 1508 0 1308 0 c 2,11,-1
 1154 0 l 2,0,1
1154 140 m 2,12,13
 1308 140 l 2,14,15
 1358 140 1358 140 1358 198 c 2,16,-1
 1358 583 l 2,17,18
 1358 640 1358 640 1308 640 c 2,19,-1
 1154 640 l 2,20,21
 1104 640 1104 640 1104 583 c 2,22,-1
 1104 198 l 2,23,24
 1104 140 1104 140 1154 140 c 2,12,13
704 1056 m 1,25,-1
 704 930 l 2,26,27
 704 730 704 730 504 730 c 2,28,-1
 350 730 l 2,29,30
 150 730 150 730 150 924 c 2,31,-1
 150 1315 l 2,32,33
 150 1510 150 1510 350 1510 c 2,34,-1
 504 1510 l 2,35,36
 704 1510 704 1510 704 1310 c 2,37,-1
 704 1240 l 1,38,-1
 590 1186 l 1,39,-1
 554 1186 l 1,40,-1
 554 1310 l 2,41,42
 554 1370 554 1370 504 1370 c 2,43,-1
 350 1370 l 2,44,45
 300 1370 300 1370 300 1313 c 2,46,-1
 300 928 l 2,47,48
 300 870 300 870 350 870 c 2,49,-1
 504 870 l 2,50,51
 554 870 554 870 554 930 c 2,52,-1
 554 1001 l 1,53,-1
 669 1056 l 1,54,-1
 704 1056 l 1,25,-1
546 -40 m 1,55,-1
 405 28 l 1,56,-1
 1114 1550 l 1,57,-1
 1124 1550 l 1,58,-1
 1265 1482 l 1,59,-1
 556 -40 l 1,60,-1
 546 -40 l 1,55,-1
EndSplineSet
Validated: 1
EndChar

StartChar: afii61289
Encoding: 8467 8467 172
Width: 1108
GlyphClass: 2
Flags: W
HStem: -20 136<558.838 669.961> 0 21G<150 363.84>
VStem: 332 208<672 805.805> 729 179<1092.03 1387.01>
LayerCount: 2
Fore
SplineSet
540 672 m 1,0,1
 600 796 600 796 656 982 c 0,2,3
 729 1224 729 1224 729 1389 c 1,4,5
 677 1305 677 1305 614 1098 c 0,6,7
 540 857 540 857 540 672 c 1,0,1
150 0 m 1,8,9
 250 146 250 146 340 296 c 1,10,11
 332 366 332 366 332 444 c 0,12,13
 332 592 332 592 361 733 c 0,14,15
 481 1333 481 1333 576 1443 c 0,16,17
 652 1531 652 1531 770 1531 c 0,18,19
 821 1531 821 1531 860 1498 c 1,20,21
 908 1459 908 1459 908 1338 c 0,22,23
 908 1246 908 1246 878 1092 c 0,24,25
 808 742 808 742 522 272 c 1,26,27
 555 116 555 116 611 116 c 0,28,29
 630 116 630 116 653 140 c 0,30,31
 684 172 684 172 716 228 c 1,32,-1
 892 228 l 1,33,34
 815 100 815 100 750.5 40 c 128,-1,35
 686 -20 686 -20 602 -20 c 0,36,37
 474 -20 474 -20 403 81 c 1,38,-1
 351 0 l 1,39,-1
 150 0 l 1,8,9
EndSplineSet
Validated: 3073
EndChar

StartChar: trademark
Encoding: 8482 8482 173
Width: 1916
GlyphClass: 2
Flags: W
HStem: 1369 141<200 364 514 678 909.125 1158.54 1313.26 1562.88>
VStem: 364 150<739 1369> 756 150<739 1367.62> 1161 150<739 1369.77> 1566 150<739 1367.62>
LayerCount: 2
Fore
SplineSet
364 685 m 1,0,-1
 364 1369 l 1,1,-1
 150 1369 l 1,2,-1
 150 1405 l 1,3,-1
 200 1510 l 1,4,-1
 728 1510 l 1,5,-1
 728 1474 l 1,6,-1
 678 1369 l 1,7,-1
 514 1369 l 1,8,-1
 514 739 l 1,9,-1
 400 685 l 1,10,-1
 364 685 l 1,0,-1
756 685 m 1,11,-1
 756 1310 l 2,12,13
 756 1510 756 1510 956 1510 c 2,14,-1
 1111 1510 l 2,15,16
 1193 1510 1193 1510 1237 1473 c 1,17,18
 1283 1510 1283 1510 1361 1510 c 2,19,-1
 1516 1510 l 2,20,21
 1716 1510 1716 1510 1716 1310 c 2,22,-1
 1716 739 l 1,23,-1
 1602 685 l 1,24,-1
 1566 685 l 1,25,-1
 1566 1310 l 2,26,27
 1566 1370 1566 1370 1516 1370 c 2,28,-1
 1361 1370 l 2,29,30
 1311 1370 1311 1370 1311 1310 c 2,31,-1
 1311 739 l 1,32,-1
 1197 685 l 1,33,-1
 1161 685 l 1,34,-1
 1161 1310 l 2,35,36
 1161 1370 1161 1370 1111 1370 c 2,37,-1
 956 1370 l 2,38,39
 906 1370 906 1370 906 1310 c 2,40,-1
 906 739 l 1,41,-1
 792 685 l 1,42,-1
 756 685 l 1,11,-1
EndSplineSet
Validated: 1
EndChar

StartChar: uni2126
Encoding: 8486 8486 174
Width: 1410
GlyphClass: 2
Flags: W
HStem: 0 422<447.461 608 802 962.539> 0 182<231 446 964 1179> 1330 180<440.027 969.973>
VStem: 200 200<461.993 1287.75> 446 162<182 280.816> 802 162<182 280.816> 1010 200<461.993 1287.75>
LayerCount: 2
Fore
SplineSet
150 0 m 1,0,-1
 150 10 l 1,1,-1
 231 182 l 1,2,-1
 446 182 l 1,3,-1
 446 270 l 1,4,5
 200 317 200 317 200 592 c 2,6,-1
 200 1160 l 2,7,8
 200 1510 200 1510 550 1510 c 2,9,-1
 860 1510 l 2,10,11
 1210 1510 1210 1510 1210 1160 c 2,12,-1
 1210 592 l 2,13,14
 1210 317 1210 317 964 270 c 1,15,-1
 964 182 l 1,16,-1
 1260 182 l 1,17,-1
 1260 172 l 1,18,-1
 1179 0 l 1,19,-1
 802 0 l 1,20,-1
 802 422 l 1,21,-1
 860 422 l 2,22,23
 1010 422 1010 422 1010 592 c 2,24,-1
 1010 1160 l 2,25,26
 1010 1330 1010 1330 860 1330 c 2,27,-1
 550 1330 l 2,28,29
 400 1330 400 1330 400 1160 c 2,30,-1
 400 592 l 2,31,32
 400 422 400 422 550 422 c 2,33,-1
 608 422 l 1,34,-1
 608 0 l 1,35,-1
 150 0 l 1,0,-1
EndSplineSet
Validated: 1
EndChar

StartChar: estimated
Encoding: 8494 8494 175
Width: 1358
GlyphClass: 2
Flags: W
HStem: -15 73<501.557 855.461> 550 74<381 977> 1042 73<502.165 850.247>
VStem: 150 231<307.452 550 624 793.838> 977 231<624 789.607>
LayerCount: 2
Fore
SplineSet
381 550 m 1,0,-1
 381 179 l 1,1,2
 501 58 501 58 679 58 c 0,3,4
 933 58 933 58 1074 304 c 1,5,-1
 1146 261 l 1,6,7
 1026 88 1026 88 914 36.5 c 128,-1,8
 802 -15 802 -15 679 -15 c 0,9,10
 442 -15 442 -15 296 145 c 128,-1,11
 150 305 150 305 150 550 c 0,12,13
 150 797 150 797 297 956 c 128,-1,14
 444 1115 444 1115 679 1115 c 0,15,16
 893 1115 893 1115 1045 973 c 128,-1,17
 1197 831 1197 831 1208 550 c 1,18,-1
 381 550 l 1,0,-1
977 624 m 1,19,-1
 977 921 l 1,20,21
 849 1042 849 1042 677 1042 c 0,22,23
 502 1042 502 1042 381 920 c 1,24,-1
 381 624 l 1,25,-1
 977 624 l 1,19,-1
EndSplineSet
Validated: 3073
EndChar

StartChar: partialdiff
Encoding: 8706 8706 176
Width: 1267
GlyphClass: 2
Flags: W
HStem: 0 92<400 587.576> 883 84<654.972 885.467> 1427 83<623.242 789.693>
VStem: 150 212<147.417 518.018> 888 179<603.29 878.484 965 1264.05>
LayerCount: 2
Fore
SplineSet
458 0 m 0,0,1
 321 0 321 0 235.5 91 c 128,-1,2
 150 182 150 182 150 347 c 0,3,4
 150 556 150 556 303 734 c 0,5,6
 503 967 503 967 781 967 c 24,7,8
 816 967 816 967 886 965 c 1,9,10
 886 1113 886 1113 869 1201 c 0,11,12
 847 1313 847 1313 805 1369 c 0,13,14
 761 1427 761 1427 711 1427 c 0,15,16
 644 1427 644 1427 593 1347 c 0,17,18
 555 1287 555 1287 519 1157 c 1,19,-1
 384 1217 l 1,20,21
 453 1371 453 1371 552 1442 c 0,22,23
 647 1510 647 1510 744 1510 c 0,24,25
 876 1510 876 1510 971 1371 c 0,26,27
 1067 1231 1067 1231 1067 951 c 0,28,29
 1067 670 1067 670 980 438 c 0,30,31
 894 214 894 214 747 107 c 128,-1,32
 600 0 600 0 458 0 c 0,0,1
488 92 m 0,33,34
 562 92 562 92 636 189 c 0,35,36
 697 268 697 268 766 393 c 0,37,38
 856 555 856 555 888 867 c 1,39,40
 848 883 848 883 774 883 c 0,41,42
 667 883 667 883 557 755 c 0,43,44
 485 672 485 672 436 581 c 0,45,46
 362 444 362 444 362 333 c 0,47,48
 362 233 362 233 381 175 c 0,49,50
 409 92 409 92 488 92 c 0,33,34
EndSplineSet
Validated: 3073
EndChar

StartChar: uni2206
Encoding: 8710 8710 177
Width: 1191
GlyphClass: 2
Flags: W
HStem: 0 182<275 916> 1530 20G<623.805 682.581>
DStem2: 5 0 275 182 0.315452 0.948942<257.879 1340.03>
LayerCount: 2
Fore
SplineSet
5 0 m 1,0,-1
 493 1468 l 1,1,-1
 666 1550 l 1,2,-1
 676 1550 l 1,3,-1
 1186 0 l 1,4,-1
 5 0 l 1,0,-1
275 182 m 1,5,-1
 916 182 l 1,6,-1
 598 1215 l 1,7,-1
 275 182 l 1,5,-1
EndSplineSet
Validated: 1
EndChar

StartChar: product
Encoding: 8719 8719 178
Width: 1390
GlyphClass: 2
Flags: W
HStem: -450 21G<200 252.222 990 1042.22> 1328 182<400 990>
VStem: 200 200<-360 1328> 990 200<-360 1328>
LayerCount: 2
Fore
SplineSet
210 -450 m 1,0,-1
 200 -450 l 1,1,-1
 200 1460 l 1,2,-1
 306 1510 l 1,3,-1
 1190 1510 l 1,4,-1
 1190 -360 l 1,5,-1
 1000 -450 l 1,6,-1
 990 -450 l 1,7,-1
 990 1328 l 1,8,-1
 400 1328 l 1,9,-1
 400 -360 l 1,10,-1
 210 -450 l 1,0,-1
EndSplineSet
Validated: 3073
EndChar

StartChar: summation
Encoding: 8721 8721 179
Width: 1203
GlyphClass: 2
Flags: W
HStem: -410 182<388 972> 1328 182<384 881>
DStem2: 384 1328 101 1460 0.480758 -0.876854<0 740.385>
LayerCount: 2
Fore
SplineSet
100 -410 m 1,0,-1
 578 590 l 1,1,-1
 101 1460 l 1,2,-1
 207 1510 l 1,3,-1
 962 1510 l 1,4,-1
 962 1500 l 1,5,-1
 881 1328 l 1,6,-1
 384 1328 l 1,7,-1
 804 588 l 1,8,-1
 388 -228 l 1,9,-1
 1053 -228 l 1,10,-1
 1053 -238 l 1,11,-1
 972 -410 l 1,12,-1
 100 -410 l 1,0,-1
EndSplineSet
Validated: 1
EndChar

StartChar: minus
Encoding: 8722 8722 180
Width: 1214
GlyphClass: 2
Flags: W
HStem: 664 182<231 983>
LayerCount: 2
Fore
SplineSet
150 664 m 1,0,-1
 150 674 l 1,1,-1
 231 846 l 1,2,-1
 1064 846 l 1,3,-1
 1064 836 l 1,4,-1
 983 664 l 1,5,-1
 150 664 l 1,0,-1
EndSplineSet
Validated: 3073
EndChar

StartChar: uni2215
Encoding: 8725 8725 181
Width: 974
GlyphClass: 2
Flags: W
DStem2: 10 -72 161 -140 0.422626 0.906304<2.18787 1899.6>
LayerCount: 2
Fore
SplineSet
151 -140 m 1,0,-1
 10 -72 l 1,1,-1
 812 1650 l 1,2,-1
 822 1650 l 1,3,-1
 964 1582 l 1,4,-1
 161 -140 l 1,5,-1
 151 -140 l 1,0,-1
EndSplineSet
Validated: 3073
EndChar

StartChar: asteriskmath
Encoding: 8727 8727 182
Width: 1183
GlyphClass: 2
Flags: W
VStem: 500 182<387 605 921 1139>
DStem2: 311 1030 150 913 0.865946 -0.500138<0 218.179 533.824 752.003> 150 613 311 496 0.865946 0.500138<80.9012 299.08 614.726 832.904>
LayerCount: 2
Fore
SplineSet
682 1220 m 1,0,-1
 682 921 l 1,1,-1
 871 1030 l 1,2,-1
 1028 921 l 1,3,-1
 1033 913 l 1,4,-1
 773 763 l 1,5,-1
 1033 613 l 1,6,-1
 1028 605 l 1,7,-1
 871 496 l 1,8,-1
 682 605 l 1,9,-1
 682 387 l 1,10,-1
 510 306 l 1,11,-1
 500 306 l 1,12,-1
 500 605 l 1,13,-1
 311 496 l 1,14,-1
 155 605 l 1,15,-1
 150 613 l 1,16,-1
 409 763 l 1,17,-1
 150 913 l 1,18,-1
 155 921 l 1,19,-1
 311 1030 l 1,20,-1
 500 921 l 1,21,-1
 500 1139 l 1,22,-1
 672 1220 l 1,23,-1
 682 1220 l 1,0,-1
EndSplineSet
Validated: 3073
EndChar

StartChar: uni2218
Encoding: 8728 8728 183
Width: 1130
GlyphClass: 2
Flags: W
HStem: 374 180<371.558 758.442> 954 180<371.558 758.442>
VStem: 150 200<572.047 935.953> 780 200<572.047 935.953>
LayerCount: 2
Fore
SplineSet
450 554 m 2,0,-1
 680 554 l 2,1,2
 780 554 780 554 780 674 c 2,3,-1
 780 834 l 2,4,5
 780 954 780 954 680 954 c 2,6,-1
 450 954 l 2,7,8
 350 954 350 954 350 834 c 2,9,-1
 350 674 l 2,10,11
 350 554 350 554 450 554 c 2,0,-1
450 374 m 2,12,13
 150 374 150 374 150 674 c 2,14,-1
 150 834 l 2,15,16
 150 1134 150 1134 450 1134 c 2,17,-1
 680 1134 l 2,18,19
 980 1134 980 1134 980 834 c 2,20,-1
 980 674 l 2,21,22
 980 374 980 374 680 374 c 2,23,-1
 450 374 l 2,12,13
EndSplineSet
Validated: 1
EndChar

StartChar: uni2219
Encoding: 8729 8729 184
Width: 600
GlyphClass: 2
Flags: W
HStem: 631 245<216.097 383.903>
VStem: 180 240<668.129 838.871>
LayerCount: 2
Fore
SplineSet
180 753.5 m 132,-1,1
 180 804 180 804 215 840 c 132,-1,2
 250 876 250 876 300 876 c 132,-1,3
 350 876 350 876 385 840 c 132,-1,4
 420 804 420 804 420 753.5 c 132,-1,5
 420 703 420 703 385 667 c 132,-1,6
 350 631 350 631 300 631 c 132,-1,7
 250 631 250 631 215 667 c 132,-1,0
 180 703 180 703 180 753.5 c 132,-1,1
EndSplineSet
Validated: 1
EndChar

StartChar: radical
Encoding: 8730 8730 185
Width: 1452
GlyphClass: 2
Flags: W
HStem: -40 21G<508.235 567.195> 569 182<181 309> 1328 182<1178 1321>
DStem2: 458 751 309 569 0.320424 -0.947274<124.661 501.794> 605 271 698 42 0.349686 0.936867<0 1190.64>
LayerCount: 2
Fore
SplineSet
525 -40 m 1,0,-1
 515 -40 l 1,1,-1
 309 569 l 1,2,-1
 100 569 l 1,3,-1
 100 579 l 1,4,-1
 181 751 l 1,5,-1
 458 751 l 1,6,-1
 605 271 l 1,7,-1
 1057 1510 l 1,8,-1
 1402 1510 l 1,9,-1
 1402 1500 l 1,10,-1
 1321 1328 l 1,11,-1
 1178 1328 l 1,12,-1
 698 42 l 1,13,-1
 525 -40 l 1,0,-1
EndSplineSet
Validated: 1
EndChar

StartChar: uni221B
Encoding: 8731 8731 186
Width: 1452
GlyphClass: 2
Flags: W
HStem: -40 21G<508.235 567.195> 569 182<181 309> 808 126<415.812 640.188> 1080 20G<338.083 413> 1136 122<606 641.936> 1328 182<1178 1321> 1383 127<363 539>
VStem: 278 135<936.145 1052> 643 135<937.242 1133.7>
DStem2: 458 751 309 569 0.320424 -0.947274<124.661 501.794> 605 271 698 42 0.349686 0.936867<0 1190.64>
LayerCount: 2
Fore
SplineSet
363 1510 m 1,0,-1
 755 1510 l 1,1,-1
 606 1258 l 1,2,3
 687 1256 687 1256 731 1215 c 0,4,5
 778 1171 778 1171 778 1083 c 2,6,-1
 778 983 l 2,7,8
 778 808 778 808 598 808 c 2,9,-1
 458 808 l 2,10,11
 278 808 278 808 278 988 c 2,12,-1
 278 1052 l 1,13,-1
 381 1100 l 1,14,-1
 413 1100 l 1,15,-1
 413 988 l 2,16,17
 413 934 413 934 458 934 c 2,18,-1
 598 934 l 2,19,20
 643 934 643 934 643 985 c 2,21,-1
 643 1085 l 2,22,23
 643 1136 643 1136 598 1136 c 2,24,-1
 401 1136 l 1,25,-1
 539 1383 l 1,26,-1
 318 1383 l 1,27,-1
 318 1416 l 1,28,-1
 363 1510 l 1,0,-1
525 -40 m 1,29,-1
 515 -40 l 1,30,-1
 309 569 l 1,31,-1
 100 569 l 1,32,-1
 100 579 l 1,33,-1
 181 751 l 1,34,-1
 458 751 l 1,35,-1
 605 271 l 1,36,-1
 1057 1510 l 1,37,-1
 1402 1510 l 1,38,-1
 1402 1500 l 1,39,-1
 1321 1328 l 1,40,-1
 1178 1328 l 1,41,-1
 698 42 l 1,42,-1
 525 -40 l 1,29,-1
EndSplineSet
Validated: 1
EndChar

StartChar: infinity
Encoding: 8734 8734 187
Width: 1760
GlyphClass: 2
Flags: W
HStem: 374 180<371.558 763.555 996.875 1388.44> 954 180<371.558 762.266 997.734 1388.44>
VStem: 150 200<572.047 935.953> 780 200<568.18 939.82> 1410 200<572.047 935.953>
CounterMasks: 1 38
LayerCount: 2
Fore
SplineSet
450 374 m 2,0,1
 150 374 150 374 150 674 c 2,2,-1
 150 834 l 2,3,4
 150 1134 150 1134 450 1134 c 2,5,-1
 680 1134 l 2,6,7
 826 1134 826 1134 880 1060 c 1,8,9
 934 1134 934 1134 1080 1134 c 2,10,-1
 1310 1134 l 2,11,12
 1610 1134 1610 1134 1610 834 c 2,13,-1
 1610 674 l 2,14,15
 1610 374 1610 374 1310 374 c 2,16,-1
 1080 374 l 2,17,18
 932 374 932 374 880 448 c 1,19,20
 829 374 829 374 680 374 c 2,21,-1
 450 374 l 2,0,1
450 554 m 2,22,-1
 680 554 l 2,23,24
 780 554 780 554 780 674 c 2,25,-1
 780 834 l 2,26,27
 780 954 780 954 680 954 c 2,28,-1
 450 954 l 2,29,30
 350 954 350 954 350 834 c 2,31,-1
 350 674 l 2,32,33
 350 554 350 554 450 554 c 2,22,-1
1080 554 m 2,34,-1
 1310 554 l 2,35,36
 1410 554 1410 554 1410 674 c 2,37,-1
 1410 834 l 2,38,39
 1410 954 1410 954 1310 954 c 2,40,-1
 1080 954 l 2,41,42
 980 954 980 954 980 834 c 2,43,-1
 980 674 l 2,44,45
 980 554 980 554 1080 554 c 2,34,-1
EndSplineSet
Validated: 1
EndChar

StartChar: approxequal
Encoding: 8776 8776 188
Width: 1138
GlyphClass: 2
Flags: W
HStem: 397 177<648.531 800.75> 581 177<337.25 489.469> 748 177<648.531 800.75> 932 177<337.25 489.469>
VStem: 150 178<478 571.507 829 922.507> 810 178<583.493 677 934.493 1028>
LayerCount: 2
Fore
SplineSet
150 397 m 1,0,1
 150 758 150 758 387 758 c 0,2,3
 521 758 521 758 610 657 c 0,4,5
 683 574 683 574 738 574 c 0,6,7
 810 574 810 574 810 677 c 1,8,-1
 978 758 l 1,9,-1
 988 758 l 1,10,11
 988 397 988 397 751 397 c 0,12,13
 617 397 617 397 528 498 c 0,14,15
 455 581 455 581 400 581 c 0,16,17
 328 581 328 581 328 478 c 1,18,-1
 160 397 l 1,19,-1
 150 397 l 1,0,1
150 748 m 1,20,21
 150 1109 150 1109 387 1109 c 0,22,23
 521 1109 521 1109 610 1008 c 0,24,25
 683 925 683 925 738 925 c 0,26,27
 810 925 810 925 810 1028 c 1,28,-1
 978 1109 l 1,29,-1
 988 1109 l 1,30,31
 988 748 988 748 751 748 c 0,32,33
 617 748 617 748 528 849 c 0,34,35
 455 932 455 932 400 932 c 0,36,37
 328 932 328 932 328 829 c 1,38,-1
 160 748 l 1,39,-1
 150 748 l 1,20,21
EndSplineSet
Validated: 1
EndChar

StartChar: notequal
Encoding: 8800 8800 189
Width: 1214
GlyphClass: 2
Flags: W
HStem: 482 182<231 389 656 983> 846 182<231 558 825 983>
DStem2: 289 268 440 200 0.42198 0.906605<2.06988 236.212 513.882 637.53 915.201 1149.34>
LayerCount: 2
Fore
SplineSet
430 200 m 1,0,-1
 289 268 l 1,1,-1
 389 482 l 1,2,-1
 150 482 l 1,3,-1
 150 492 l 1,4,-1
 231 664 l 1,5,-1
 473 664 l 1,6,-1
 558 846 l 1,7,-1
 150 846 l 1,8,-1
 150 856 l 1,9,-1
 231 1028 l 1,10,-1
 643 1028 l 1,11,-1
 774 1310 l 1,12,-1
 784 1310 l 1,13,-1
 925 1242 l 1,14,-1
 825 1028 l 1,15,-1
 1064 1028 l 1,16,-1
 1064 1018 l 1,17,-1
 983 846 l 1,18,-1
 741 846 l 1,19,-1
 656 664 l 1,20,-1
 1064 664 l 1,21,-1
 1064 654 l 1,22,-1
 983 482 l 1,23,-1
 571 482 l 1,24,-1
 440 200 l 1,25,-1
 430 200 l 1,0,-1
EndSplineSet
Validated: 3073
EndChar

StartChar: equivalence
Encoding: 8801 8801 190
Width: 1214
GlyphClass: 2
Flags: W
HStem: 300 182<231 983> 664 182<231 983> 1028 182<231 983>
CounterMasks: 1 e0
LayerCount: 2
Fore
SplineSet
150 300 m 1,0,-1
 150 310 l 1,1,-1
 231 482 l 1,2,-1
 1064 482 l 1,3,-1
 1064 472 l 1,4,-1
 983 300 l 1,5,-1
 150 300 l 1,0,-1
150 1028 m 1,6,-1
 150 1038 l 1,7,-1
 231 1210 l 1,8,-1
 1064 1210 l 1,9,-1
 1064 1200 l 1,10,-1
 983 1028 l 1,11,-1
 150 1028 l 1,6,-1
150 664 m 1,12,-1
 150 674 l 1,13,-1
 231 846 l 1,14,-1
 1064 846 l 1,15,-1
 1064 836 l 1,16,-1
 983 664 l 1,17,-1
 150 664 l 1,12,-1
EndSplineSet
Validated: 3073
EndChar

StartChar: lessequal
Encoding: 8804 8804 191
Width: 1338
GlyphClass: 2
Flags: W
HStem: 191 182<231 1057>
DStem2: 464 875 150 801 0.919983 -0.391958<0 724.931> 232 984 464 875 0.920009 0.391897<170.725 895.643>
LayerCount: 2
Fore
SplineSet
150 801 m 1,0,-1
 150 811 l 1,1,-1
 232 984 l 1,2,-1
 1056 1335 l 1,3,-1
 1138 1162 l 1,4,-1
 1138 1152 l 1,5,-1
 464 875 l 1,6,-1
 1138 598 l 1,7,-1
 1138 588 l 1,8,-1
 1056 415 l 1,9,-1
 150 801 l 1,0,-1
150 191 m 1,10,-1
 150 201 l 1,11,-1
 231 373 l 1,12,-1
 1138 373 l 1,13,-1
 1138 363 l 1,14,-1
 1057 191 l 1,15,-1
 150 191 l 1,10,-1
EndSplineSet
Validated: 1
EndChar

StartChar: greaterequal
Encoding: 8805 8805 192
Width: 1338
GlyphClass: 2
Flags: W
HStem: 191 182<281 1107>
DStem2: 282 1352 200 1169 0.919983 -0.391958<0 724.931> 200 615 282 432 0.920009 0.391897<3.72358 728.642>
LayerCount: 2
Fore
SplineSet
1188 966 m 1,0,-1
 1188 956 l 1,1,-1
 1106 783 l 1,2,-1
 282 432 l 1,3,-1
 200 605 l 1,4,-1
 200 615 l 1,5,-1
 874 892 l 1,6,-1
 200 1169 l 1,7,-1
 200 1179 l 1,8,-1
 282 1352 l 1,9,-1
 1188 966 l 1,0,-1
200 191 m 1,10,-1
 200 201 l 1,11,-1
 281 373 l 1,12,-1
 1188 373 l 1,13,-1
 1188 363 l 1,14,-1
 1107 191 l 1,15,-1
 200 191 l 1,10,-1
EndSplineSet
Validated: 1
EndChar

StartChar: lozenge
Encoding: 9674 9674 193
Width: 1174
GlyphClass: 2
Flags: W
HStem: 0 21G<574.344 599.605> 1490 20G<574.902 599.146>
DStem2: 601 287 587 0 0.533177 0.846004<0 503.311>
LayerCount: 2
Fore
SplineSet
601 287 m 1,0,-1
 850 725 l 1,1,-1
 579 1200 l 1,2,-1
 328 754 l 1,3,-1
 601 287 l 1,0,-1
587 0 m 1,4,-1
 120 738 l 1,5,-1
 587 1510 l 1,6,-1
 1054 741 l 1,7,-1
 587 0 l 1,4,-1
EndSplineSet
Validated: 1
EndChar

StartChar: Oslash
Encoding: 216 216 194
Width: 1410
Flags: W
HStem: -40 21G<352.4 413.434> 0 180<508 969.973> 1330 180<440.027 902> 1530 20G<996.566 1056.78>
VStem: 200 200<273.13 1287.75> 1010 200<222.253 1236.55>
DStem2: 290 10 404 -40 0.421596 0.906784<2.72271 72.1933 286.777 1413.35 1628.6 1698.31>
LayerCount: 2
Fore
SplineSet
550 0 m 2,0,1
 483 0 483 0 429 13 c 1,2,-1
 404 -40 l 1,3,-1
 394 -40 l 1,4,-1
 290 10 l 1,5,-1
 315 64 l 1,6,7
 200 149 200 149 200 350 c 2,8,-1
 200 1160 l 2,9,10
 200 1510 200 1510 550 1510 c 2,11,-1
 860 1510 l 2,12,13
 927 1510 927 1510 981 1497 c 1,14,-1
 1006 1550 l 1,15,-1
 1016 1550 l 1,16,-1
 1120 1499 l 1,17,-1
 1095 1446 l 1,18,19
 1210 1360 1210 1360 1210 1160 c 2,20,-1
 1210 350 l 2,21,22
 1210 0 1210 0 860 0 c 2,23,-1
 550 0 l 2,0,1
550 180 m 2,24,-1
 860 180 l 2,25,26
 1010 180 1010 180 1010 350 c 2,27,-1
 1010 1160 l 2,28,29
 1010 1206 1010 1206 999 1239 c 1,30,-1
 508 184 l 1,31,32
 527 180 527 180 550 180 c 2,24,-1
411 270 m 1,33,-1
 902 1326 l 1,34,35
 883 1330 883 1330 860 1330 c 2,36,-1
 550 1330 l 2,37,38
 400 1330 400 1330 400 1160 c 2,39,-1
 400 350 l 2,40,41
 400 304 400 304 411 270 c 1,33,-1
EndSplineSet
Validated: 1
EndChar

StartChar: oslash
Encoding: 248 248 195
Width: 1130
Flags: W
HStem: -40 21G<307.4 368.333> 0 180<461 758.442> 920 180<371.558 668> 1120 20G<760.667 821.176>
VStem: 150 200<250.746 901.953> 780 200<198.047 849.254>
DStem2: 245 10 359 -40 0.421347 0.906899<2.68859 50.1181 263.518 985.595 1199.28 1246>
LayerCount: 2
Fore
SplineSet
450 0 m 2,0,1
 413 0 413 0 380 5 c 1,2,-1
 359 -40 l 1,3,-1
 349 -40 l 1,4,-1
 245 10 l 1,5,-1
 262 46 l 1,6,7
 150 117 150 117 150 300 c 2,8,-1
 150 800 l 2,9,10
 150 1100 150 1100 450 1100 c 2,11,-1
 680 1100 l 2,12,13
 717 1100 717 1100 749 1095 c 1,14,-1
 770 1140 l 1,15,-1
 780 1140 l 1,16,-1
 885 1089 l 1,17,-1
 869 1054 l 1,18,19
 980 983 980 983 980 800 c 2,20,-1
 980 300 l 2,21,22
 980 0 980 0 680 0 c 2,23,-1
 450 0 l 2,0,1
356 249 m 1,24,-1
 668 920 l 1,25,-1
 450 920 l 2,26,27
 350 920 350 920 350 800 c 2,28,-1
 350 300 l 2,29,30
 350 271 350 271 356 249 c 1,24,-1
774 851 m 1,31,-1
 461 180 l 1,32,-1
 680 180 l 2,33,34
 780 180 780 180 780 300 c 2,35,-1
 780 800 l 2,36,37
 780 829 780 829 774 851 c 1,31,-1
EndSplineSet
Validated: 1
EndChar

StartChar: multiply
Encoding: 215 215 196
Width: 1075
Flags: W
HStem: 425 660
VStem: 409 257<626.5 883.5>
DStem2: 336 1085 150 1014 0.707107 -0.707107<0 284.257 466.69 751.654> 150 496 336 425 0.707107 0.707107<81.3173 365.574 548.008 832.972>
LayerCount: 2
Fore
SplineSet
150 1014 m 1,0,-1
 157 1021 l 1,1,-1
 336 1085 l 1,2,-1
 537 884 l 1,3,-1
 739 1085 l 1,4,-1
 918 1021 l 1,5,-1
 925 1014 l 1,6,-1
 666 755 l 1,7,-1
 925 496 l 1,8,-1
 918 489 l 1,9,-1
 739 425 l 1,10,-1
 537 626 l 1,11,-1
 336 425 l 1,12,-1
 157 489 l 1,13,-1
 150 496 l 1,14,-1
 409 755 l 1,15,-1
 150 1014 l 1,0,-1
EndSplineSet
Validated: 3073
EndChar

StartChar: divide
Encoding: 247 247 197
Width: 1214
Flags: W
HStem: 305 245<524.097 691.903> 664 182<231 983> 965 245<524.097 691.903>
VStem: 488 240<342.129 512.871 1002.13 1172.87>
LayerCount: 2
Fore
SplineSet
488 1087.5 m 128,-1,1
 488 1138 488 1138 523 1174 c 128,-1,2
 558 1210 558 1210 608 1210 c 128,-1,3
 658 1210 658 1210 693 1174 c 128,-1,4
 728 1138 728 1138 728 1087.5 c 128,-1,5
 728 1037 728 1037 693 1001 c 128,-1,6
 658 965 658 965 608 965 c 128,-1,7
 558 965 558 965 523 1001 c 128,-1,0
 488 1037 488 1037 488 1087.5 c 128,-1,1
488 427.5 m 128,-1,9
 488 478 488 478 523 514 c 128,-1,10
 558 550 558 550 608 550 c 128,-1,11
 658 550 658 550 693 514 c 128,-1,12
 728 478 728 478 728 427.5 c 128,-1,13
 728 377 728 377 693 341 c 128,-1,14
 658 305 658 305 608 305 c 128,-1,15
 558 305 558 305 523 341 c 128,-1,8
 488 377 488 377 488 427.5 c 128,-1,9
150 664 m 1,16,-1
 150 674 l 1,17,-1
 231 846 l 1,18,-1
 1064 846 l 1,19,-1
 1064 836 l 1,20,-1
 983 664 l 1,21,-1
 150 664 l 1,16,-1
EndSplineSet
Validated: 1
EndChar

StartChar: uni1E02
Encoding: 7682 7682 198
Width: 1370
Flags: W
HStem: 0 180<400 949.973> 746 180<400 883.213> 1330 180<400 878.442> 1680 245<510.097 677.903>
VStem: 200 200<180 746 926 1330> 474 240<1717.13 1887.87> 900 200<940.18 1311.95> 990 200<222.253 711.095>
LayerCount: 2
Fore
SplineSet
200 0 m 1,0,-1
 200 1460 l 1,1,-1
 306 1510 l 1,2,-1
 800 1510 l 2,3,4
 1100 1510 1100 1510 1100 1210 c 2,5,-1
 1100 1046 l 2,6,7
 1100 936 1100 936 1042 871 c 1,8,9
 1190 787 1190 787 1190 576 c 2,10,-1
 1190 350 l 2,11,12
 1190 0 1190 0 840 0 c 2,13,-1
 200 0 l 1,0,-1
400 180 m 1,14,-1
 840 180 l 2,15,16
 990 180 990 180 990 350 c 2,17,-1
 990 576 l 2,18,19
 990 746 990 746 840 746 c 2,20,-1
 400 746 l 1,21,-1
 400 180 l 1,14,-1
400 926 m 1,22,-1
 800 926 l 2,23,24
 900 926 900 926 900 1046 c 2,25,-1
 900 1210 l 2,26,27
 900 1330 900 1330 800 1330 c 2,28,-1
 400 1330 l 1,29,-1
 400 926 l 1,22,-1
474 1802.5 m 128,-1,31
 474 1853 474 1853 509 1889 c 128,-1,32
 544 1925 544 1925 594 1925 c 128,-1,33
 644 1925 644 1925 679 1889 c 128,-1,34
 714 1853 714 1853 714 1802.5 c 128,-1,35
 714 1752 714 1752 679 1716 c 128,-1,36
 644 1680 644 1680 594 1680 c 128,-1,37
 544 1680 544 1680 509 1716 c 128,-1,30
 474 1752 474 1752 474 1802.5 c 128,-1,31
EndSplineSet
Validated: 1
EndChar

StartChar: uni1E03
Encoding: 7683 7683 199
Width: 1180
Flags: W
HStem: 0 180<421.558 808.442> 920 180<415.703 808.442> 1285 245<595.097 762.903> 1530 20G<347.778 400>
VStem: 200 200<198.047 905.82 1069 1460> 559 240<1322.13 1492.87> 830 200<198.047 901.953>
LayerCount: 2
Fore
SplineSet
500 180 m 2,0,-1
 730 180 l 2,1,2
 830 180 830 180 830 300 c 2,3,-1
 830 800 l 2,4,5
 830 920 830 920 730 920 c 2,6,-1
 500 920 l 2,7,8
 400 920 400 920 400 800 c 2,9,-1
 400 300 l 2,10,11
 400 180 400 180 500 180 c 2,0,-1
500 0 m 2,12,13
 200 0 200 0 200 300 c 2,14,-1
 200 1460 l 1,15,-1
 390 1550 l 1,16,-1
 400 1550 l 1,17,-1
 400 1069 l 1,18,19
 440 1100 440 1100 500 1100 c 2,20,-1
 730 1100 l 2,21,22
 1030 1100 1030 1100 1030 800 c 2,23,-1
 1030 300 l 2,24,25
 1030 0 1030 0 730 0 c 2,26,-1
 500 0 l 2,12,13
559 1407.5 m 128,-1,28
 559 1458 559 1458 594 1494 c 128,-1,29
 629 1530 629 1530 679 1530 c 128,-1,30
 729 1530 729 1530 764 1494 c 128,-1,31
 799 1458 799 1458 799 1407.5 c 128,-1,32
 799 1357 799 1357 764 1321 c 128,-1,33
 729 1285 729 1285 679 1285 c 128,-1,34
 629 1285 629 1285 594 1321 c 128,-1,27
 559 1357 559 1357 559 1407.5 c 128,-1,28
EndSplineSet
Validated: 1
EndChar

StartChar: uni1E0A
Encoding: 7690 7690 200
Width: 1390
Flags: W
HStem: 0 180<400 949.973> 1330 180<400 949.973> 1680 245<531.097 698.903>
VStem: 200 200<180 1330> 495 240<1717.13 1887.87> 990 200<222.253 1287.75>
LayerCount: 2
Fore
SplineSet
400 180 m 1,0,-1
 840 180 l 2,1,2
 990 180 990 180 990 350 c 2,3,-1
 990 1160 l 2,4,5
 990 1330 990 1330 840 1330 c 2,6,-1
 400 1330 l 1,7,-1
 400 180 l 1,0,-1
200 0 m 1,8,-1
 200 1460 l 1,9,-1
 306 1510 l 1,10,-1
 840 1510 l 2,11,12
 1190 1510 1190 1510 1190 1160 c 2,13,-1
 1190 350 l 2,14,15
 1190 0 1190 0 840 0 c 2,16,-1
 200 0 l 1,8,-1
495 1802.5 m 128,-1,18
 495 1853 495 1853 530 1889 c 128,-1,19
 565 1925 565 1925 615 1925 c 128,-1,20
 665 1925 665 1925 700 1889 c 128,-1,21
 735 1853 735 1853 735 1802.5 c 128,-1,22
 735 1752 735 1752 700 1716 c 128,-1,23
 665 1680 665 1680 615 1680 c 128,-1,24
 565 1680 565 1680 530 1716 c 128,-1,17
 495 1752 495 1752 495 1802.5 c 128,-1,18
EndSplineSet
Validated: 1
EndChar

StartChar: uni1E0B
Encoding: 7691 7691 201
Width: 1180
Flags: W
HStem: 0 180<371.558 758.442> 920 180<371.558 764.277> 1285 245<382.097 549.903> 1530 20G<927.778 980>
VStem: 150 200<198.047 901.953> 346 240<1322.13 1492.87> 780 200<198.047 905.82 1069 1460>
LayerCount: 2
Fore
SplineSet
450 0 m 2,0,1
 150 0 150 0 150 300 c 2,2,-1
 150 800 l 2,3,4
 150 1100 150 1100 450 1100 c 2,5,-1
 680 1100 l 2,6,7
 748 1100 748 1100 780 1069 c 1,8,-1
 780 1460 l 1,9,-1
 970 1550 l 1,10,-1
 980 1550 l 1,11,-1
 980 300 l 2,12,13
 980 0 980 0 680 0 c 2,14,-1
 450 0 l 2,0,1
450 180 m 2,15,-1
 680 180 l 2,16,17
 780 180 780 180 780 300 c 2,18,-1
 780 800 l 2,19,20
 780 920 780 920 680 920 c 2,21,-1
 450 920 l 2,22,23
 350 920 350 920 350 800 c 2,24,-1
 350 300 l 2,25,26
 350 180 350 180 450 180 c 2,15,-1
346 1407.5 m 128,-1,28
 346 1458 346 1458 381 1494 c 128,-1,29
 416 1530 416 1530 466 1530 c 128,-1,30
 516 1530 516 1530 551 1494 c 128,-1,31
 586 1458 586 1458 586 1407.5 c 128,-1,32
 586 1357 586 1357 551 1321 c 128,-1,33
 516 1285 516 1285 466 1285 c 128,-1,34
 416 1285 416 1285 381 1321 c 128,-1,27
 346 1357 346 1357 346 1407.5 c 128,-1,28
EndSplineSet
Validated: 1
EndChar

StartChar: uni1E1E
Encoding: 7710 7710 202
Width: 1120
Flags: W
HStem: -40 21G<200 252.222> 664 182<400 859> 1328 182<400 859> 1680 245<506.097 673.903>
VStem: 200 200<50 664 846 1328> 470 240<1717.13 1887.87>
LayerCount: 2
Fore
SplineSet
470 1802.5 m 128,-1,1
 470 1853 470 1853 505 1889 c 128,-1,2
 540 1925 540 1925 590 1925 c 128,-1,3
 640 1925 640 1925 675 1889 c 128,-1,4
 710 1853 710 1853 710 1802.5 c 128,-1,5
 710 1752 710 1752 675 1716 c 128,-1,6
 640 1680 640 1680 590 1680 c 128,-1,7
 540 1680 540 1680 505 1716 c 128,-1,0
 470 1752 470 1752 470 1802.5 c 128,-1,1
200 -40 m 1,8,-1
 200 1460 l 1,9,-1
 306 1510 l 1,10,-1
 940 1510 l 1,11,-1
 940 1500 l 1,12,-1
 859 1328 l 1,13,-1
 400 1328 l 1,14,-1
 400 846 l 1,15,-1
 940 846 l 1,16,-1
 940 836 l 1,17,-1
 859 664 l 1,18,-1
 400 664 l 1,19,-1
 400 50 l 1,20,-1
 210 -40 l 1,21,-1
 200 -40 l 1,8,-1
EndSplineSet
Validated: 19457
EndChar

StartChar: uni1E1F
Encoding: 7711 7711 203
Width: 850
Flags: W
HStem: -40 21G<200 252.222> 818 182<131 200 400 650> 1330 180<421.558 670> 1680 245<376.097 543.903>
VStem: 200 200<50 818 1000 1311.95> 340 240<1717.13 1887.87>
LayerCount: 2
Fore
SplineSet
200 -40 m 1,0,-1
 200 818 l 1,1,-1
 50 818 l 1,2,-1
 50 828 l 1,3,-1
 131 1000 l 1,4,-1
 200 1000 l 1,5,-1
 200 1210 l 2,6,7
 200 1510 200 1510 500 1510 c 2,8,-1
 750 1510 l 1,9,-1
 750 1500 l 1,10,-1
 670 1330 l 1,11,-1
 500 1330 l 2,12,13
 400 1330 400 1330 400 1210 c 2,14,-1
 400 1000 l 1,15,-1
 731 1000 l 1,16,-1
 731 990 l 1,17,-1
 650 818 l 1,18,-1
 400 818 l 1,19,-1
 400 50 l 1,20,-1
 210 -40 l 1,21,-1
 200 -40 l 1,0,-1
340 1802.5 m 128,-1,23
 340 1853 340 1853 375 1889 c 128,-1,24
 410 1925 410 1925 460 1925 c 128,-1,25
 510 1925 510 1925 545 1889 c 128,-1,26
 580 1853 580 1853 580 1802.5 c 128,-1,27
 580 1752 580 1752 545 1716 c 128,-1,28
 510 1680 510 1680 460 1680 c 128,-1,29
 410 1680 410 1680 375 1716 c 128,-1,22
 340 1752 340 1752 340 1802.5 c 128,-1,23
EndSplineSet
Validated: 1
EndChar

StartChar: uni1E40
Encoding: 7744 7744 204
Width: 2220
Flags: W
HStem: -40 21G<200 252.222 1010 1062.22 1820 1872.22> 1330 180<440.027 970.752 1249.44 1779.97> 1680 245<1022.1 1189.9>
VStem: 200 200<50 1287.75> 986 240<1717.13 1887.87> 1010 200<50 1295.1> 1820 200<50 1287.75>
LayerCount: 2
Fore
SplineSet
200 -40 m 1,0,-1
 200 1160 l 2,1,2
 200 1510 200 1510 550 1510 c 2,3,-1
 860 1510 l 2,4,5
 1040 1510 1040 1510 1110 1414 c 1,6,7
 1190 1510 1190 1510 1360 1510 c 2,8,-1
 1670 1510 l 2,9,10
 2020 1510 2020 1510 2020 1160 c 2,11,-1
 2020 50 l 1,12,-1
 1830 -40 l 1,13,-1
 1820 -40 l 1,14,-1
 1820 1160 l 2,15,16
 1820 1330 1820 1330 1670 1330 c 2,17,-1
 1360 1330 l 2,18,19
 1210 1330 1210 1330 1210 1160 c 2,20,-1
 1210 50 l 1,21,-1
 1020 -40 l 1,22,-1
 1010 -40 l 1,23,-1
 1010 1160 l 2,24,25
 1010 1330 1010 1330 860 1330 c 2,26,-1
 550 1330 l 2,27,28
 400 1330 400 1330 400 1160 c 2,29,-1
 400 50 l 1,30,-1
 210 -40 l 1,31,-1
 200 -40 l 1,0,-1
986 1802.5 m 128,-1,33
 986 1853 986 1853 1021 1889 c 128,-1,34
 1056 1925 1056 1925 1106 1925 c 128,-1,35
 1156 1925 1156 1925 1191 1889 c 128,-1,36
 1226 1853 1226 1853 1226 1802.5 c 128,-1,37
 1226 1752 1226 1752 1191 1716 c 128,-1,38
 1156 1680 1156 1680 1106 1680 c 128,-1,39
 1056 1680 1056 1680 1021 1716 c 128,-1,32
 986 1752 986 1752 986 1802.5 c 128,-1,33
EndSplineSet
Validated: 1
EndChar

StartChar: uni1E41
Encoding: 7745 7745 205
Width: 1760
Flags: W
HStem: -40 21G<150 202.222 780 832.222 1410 1462.22> 920 180<371.558 762.38 995.91 1388.44> 1285 245<806.097 973.903>
VStem: 150 200<50 901.953> 770 240<1322.13 1492.87> 780 200<50 905.82> 1410 200<50 901.953>
LayerCount: 2
Fore
SplineSet
150 -40 m 1,0,-1
 150 800 l 2,1,2
 150 1100 150 1100 450 1100 c 2,3,-1
 680 1100 l 2,4,5
 818 1100 818 1100 880 1026 c 1,6,7
 946 1100 946 1100 1080 1100 c 2,8,-1
 1310 1100 l 2,9,10
 1610 1100 1610 1100 1610 800 c 2,11,-1
 1610 50 l 1,12,-1
 1420 -40 l 1,13,-1
 1410 -40 l 1,14,-1
 1410 800 l 2,15,16
 1410 920 1410 920 1310 920 c 2,17,-1
 1080 920 l 2,18,19
 980 920 980 920 980 800 c 2,20,-1
 980 50 l 1,21,-1
 790 -40 l 1,22,-1
 780 -40 l 1,23,-1
 780 800 l 2,24,25
 780 920 780 920 680 920 c 2,26,-1
 450 920 l 2,27,28
 350 920 350 920 350 800 c 2,29,-1
 350 50 l 1,30,-1
 160 -40 l 1,31,-1
 150 -40 l 1,0,-1
770 1407.5 m 128,-1,33
 770 1458 770 1458 805 1494 c 128,-1,34
 840 1530 840 1530 890 1530 c 128,-1,35
 940 1530 940 1530 975 1494 c 128,-1,36
 1010 1458 1010 1458 1010 1407.5 c 128,-1,37
 1010 1357 1010 1357 975 1321 c 128,-1,38
 940 1285 940 1285 890 1285 c 128,-1,39
 840 1285 840 1285 805 1321 c 128,-1,32
 770 1357 770 1357 770 1407.5 c 128,-1,33
EndSplineSet
Validated: 1
EndChar

StartChar: uni1E56
Encoding: 7766 7766 206
Width: 1340
Flags: W
HStem: -40 21G<200 252.222> 510 180<400 949.973> 1330 180<400 949.973> 1680 245<531.097 698.903>
VStem: 200 200<50 510 690 1330> 495 240<1717.13 1887.87> 990 200<732.253 1287.75>
LayerCount: 2
Fore
SplineSet
200 -40 m 1,0,-1
 200 1460 l 1,1,-1
 306 1510 l 1,2,-1
 840 1510 l 2,3,4
 1190 1510 1190 1510 1190 1160 c 2,5,-1
 1190 860 l 2,6,7
 1190 510 1190 510 840 510 c 2,8,-1
 400 510 l 1,9,-1
 400 50 l 1,10,-1
 210 -40 l 1,11,-1
 200 -40 l 1,0,-1
400 1330 m 1,12,-1
 400 690 l 1,13,-1
 840 690 l 2,14,15
 990 690 990 690 990 860 c 2,16,-1
 990 1160 l 2,17,18
 990 1330 990 1330 840 1330 c 2,19,-1
 400 1330 l 1,12,-1
495 1802.5 m 128,-1,21
 495 1853 495 1853 530 1889 c 128,-1,22
 565 1925 565 1925 615 1925 c 128,-1,23
 665 1925 665 1925 700 1889 c 128,-1,24
 735 1853 735 1853 735 1802.5 c 128,-1,25
 735 1752 735 1752 700 1716 c 128,-1,26
 665 1680 665 1680 615 1680 c 128,-1,27
 565 1680 565 1680 530 1716 c 128,-1,20
 495 1752 495 1752 495 1802.5 c 128,-1,21
EndSplineSet
Validated: 1
EndChar

StartChar: uni1E57
Encoding: 7767 7767 207
Width: 1180
Flags: W
HStem: -450 21G<200 252.222> 0 180<415.723 808.442> 920 180<421.558 808.442> 1285 245<536.097 703.903>
VStem: 200 200<-360 31 194.18 901.953> 500 240<1322.13 1492.87> 830 200<198.047 901.953>
LayerCount: 2
Fore
SplineSet
500 0 m 2,0,1
 432 0 432 0 400 31 c 1,2,-1
 400 -360 l 1,3,-1
 210 -450 l 1,4,-1
 200 -450 l 1,5,-1
 200 800 l 2,6,7
 200 1100 200 1100 500 1100 c 2,8,-1
 730 1100 l 2,9,10
 1030 1100 1030 1100 1030 800 c 2,11,-1
 1030 300 l 2,12,13
 1030 0 1030 0 730 0 c 2,14,-1
 500 0 l 2,0,1
500 180 m 2,15,-1
 730 180 l 2,16,17
 830 180 830 180 830 300 c 2,18,-1
 830 800 l 2,19,20
 830 920 830 920 730 920 c 2,21,-1
 500 920 l 2,22,23
 400 920 400 920 400 800 c 2,24,-1
 400 300 l 2,25,26
 400 180 400 180 500 180 c 2,15,-1
500 1407.5 m 128,-1,28
 500 1458 500 1458 535 1494 c 128,-1,29
 570 1530 570 1530 620 1530 c 128,-1,30
 670 1530 670 1530 705 1494 c 128,-1,31
 740 1458 740 1458 740 1407.5 c 128,-1,32
 740 1357 740 1357 705 1321 c 128,-1,33
 670 1285 670 1285 620 1285 c 128,-1,34
 570 1285 570 1285 535 1321 c 128,-1,27
 500 1357 500 1357 500 1407.5 c 128,-1,28
EndSplineSet
Validated: 1
EndChar

StartChar: uni1E6A
Encoding: 7786 7786 208
Width: 1066
Flags: W
HStem: -40 21G<433 485.222> 1328 182<86 433 633 980> 1680 245<442.097 609.903>
VStem: 406 240<1717.13 1887.87> 433 200<50 1328>
LayerCount: 2
Fore
SplineSet
406 1802.5 m 128,-1,1
 406 1853 406 1853 441 1889 c 128,-1,2
 476 1925 476 1925 526 1925 c 128,-1,3
 576 1925 576 1925 611 1889 c 128,-1,4
 646 1853 646 1853 646 1802.5 c 128,-1,5
 646 1752 646 1752 611 1716 c 128,-1,6
 576 1680 576 1680 526 1680 c 128,-1,7
 476 1680 476 1680 441 1716 c 128,-1,0
 406 1752 406 1752 406 1802.5 c 128,-1,1
433 -40 m 1,8,-1
 433 1328 l 1,9,-1
 5 1328 l 1,10,-1
 5 1338 l 1,11,-1
 86 1510 l 1,12,-1
 1061 1510 l 1,13,-1
 1061 1500 l 1,14,-1
 980 1328 l 1,15,-1
 633 1328 l 1,16,-1
 633 50 l 1,17,-1
 443 -40 l 1,18,-1
 433 -40 l 1,8,-1
EndSplineSet
Validated: 19457
EndChar

StartChar: uni1E6B
Encoding: 7787 7787 209
Width: 764
Flags: W
HStem: -40 21G<282 334.222> 918 182<106 282 482 658> 1530 20G<429.778 482> 1680 245<298.097 465.903>
VStem: 262 240<1717.13 1887.87> 282 200<50 918 1100 1460>
LayerCount: 2
Fore
SplineSet
282 -40 m 1,0,-1
 282 918 l 1,1,-1
 25 918 l 1,2,-1
 25 928 l 1,3,-1
 106 1100 l 1,4,-1
 282 1100 l 1,5,-1
 282 1460 l 1,6,-1
 472 1550 l 1,7,-1
 482 1550 l 1,8,-1
 482 1100 l 1,9,-1
 739 1100 l 1,10,-1
 739 1090 l 1,11,-1
 658 918 l 1,12,-1
 482 918 l 1,13,-1
 482 50 l 1,14,-1
 292 -40 l 1,15,-1
 282 -40 l 1,0,-1
262 1802.5 m 128,-1,17
 262 1853 262 1853 297 1889 c 128,-1,18
 332 1925 332 1925 382 1925 c 128,-1,19
 432 1925 432 1925 467 1889 c 128,-1,20
 502 1853 502 1853 502 1802.5 c 128,-1,21
 502 1752 502 1752 467 1716 c 128,-1,22
 432 1680 432 1680 382 1680 c 128,-1,23
 332 1680 332 1680 297 1716 c 128,-1,16
 262 1752 262 1752 262 1802.5 c 128,-1,17
EndSplineSet
Validated: 19457
EndChar

StartChar: uni1E60
Encoding: 7776 7776 210
Width: 1330
Flags: W
HStem: 0 180<400.027 929.973> 730 180<471.558 929.973> 1330 180<471.558 858.442> 1680 245<582.097 749.903>
VStem: 160 200<222.253 460> 250 200<928.047 1311.95> 546 240<1717.13 1887.87> 880 200<1157 1311.95> 970 200<222.253 687.747>
LayerCount: 2
Fore
SplineSet
510 0 m 2,0,1
 160 0 160 0 160 350 c 2,2,-1
 160 460 l 1,3,-1
 350 550 l 1,4,-1
 360 550 l 1,5,-1
 360 350 l 2,6,7
 360 180 360 180 510 180 c 2,8,-1
 820 180 l 2,9,10
 970 180 970 180 970 350 c 2,11,-1
 970 560 l 2,12,13
 970 730 970 730 820 730 c 2,14,-1
 550 730 l 2,15,16
 250 730 250 730 250 1030 c 2,17,-1
 250 1210 l 2,18,19
 250 1510 250 1510 550 1510 c 2,20,-1
 780 1510 l 2,21,22
 1080 1510 1080 1510 1080 1210 c 2,23,-1
 1080 1157 l 1,24,-1
 890 1067 l 1,25,-1
 880 1067 l 1,26,-1
 880 1210 l 2,27,28
 880 1330 880 1330 780 1330 c 2,29,-1
 550 1330 l 2,30,31
 450 1330 450 1330 450 1210 c 2,32,-1
 450 1030 l 2,33,34
 450 910 450 910 550 910 c 2,35,-1
 820 910 l 2,36,37
 1170 910 1170 910 1170 560 c 2,38,-1
 1170 350 l 2,39,40
 1170 0 1170 0 820 0 c 2,41,-1
 510 0 l 2,0,1
546 1802.5 m 128,-1,43
 546 1853 546 1853 581 1889 c 128,-1,44
 616 1925 616 1925 666 1925 c 128,-1,45
 716 1925 716 1925 751 1889 c 128,-1,46
 786 1853 786 1853 786 1802.5 c 128,-1,47
 786 1752 786 1752 751 1716 c 128,-1,48
 716 1680 716 1680 666 1680 c 128,-1,49
 616 1680 616 1680 581 1716 c 128,-1,42
 546 1752 546 1752 546 1802.5 c 128,-1,43
EndSplineSet
Validated: 1
EndChar

StartChar: uni1E61
Encoding: 7777 7777 211
Width: 1070
Flags: W
HStem: 0 180<341.558 728.442> 499 180<383.558 728.442> 920 180<383.558 657.442> 1285 245<450.097 617.903>
VStem: 120 200<198.047 336> 162 200<695.502 903.887> 414 240<1322.13 1492.87> 750 200<198.047 480.953>
LayerCount: 2
Fore
SplineSet
420 0 m 2,0,1
 120 0 120 0 120 300 c 2,2,-1
 120 336 l 1,3,-1
 310 426 l 1,4,-1
 320 426 l 1,5,-1
 320 300 l 2,6,7
 320 180 320 180 420 180 c 2,8,-1
 650 180 l 2,9,10
 750 180 750 180 750 300 c 2,11,-1
 750 379 l 2,12,13
 750 499 750 499 650 499 c 2,14,-1
 462 499 l 2,15,16
 162 499 162 499 162 800 c 1,17,18
 162 1100 162 1100 462 1100 c 2,19,-1
 579 1100 l 2,20,21
 879 1100 879 1100 879 858 c 1,22,-1
 689 768 l 1,23,-1
 679 768 l 1,24,-1
 679 800 l 2,25,26
 679 920 679 920 579 920 c 2,27,-1
 462 920 l 2,28,29
 362 920 362 920 362 800 c 1,30,31
 362 679 362 679 462 679 c 2,32,-1
 650 679 l 2,33,34
 950 679 950 679 950 379 c 2,35,-1
 950 300 l 2,36,37
 950 0 950 0 650 0 c 2,38,-1
 420 0 l 2,0,1
414 1407.5 m 128,-1,40
 414 1458 414 1458 449 1494 c 128,-1,41
 484 1530 484 1530 534 1530 c 128,-1,42
 584 1530 584 1530 619 1494 c 128,-1,43
 654 1458 654 1458 654 1407.5 c 128,-1,44
 654 1357 654 1357 619 1321 c 128,-1,45
 584 1285 584 1285 534 1285 c 128,-1,46
 484 1285 484 1285 449 1321 c 128,-1,39
 414 1357 414 1357 414 1407.5 c 128,-1,40
EndSplineSet
Validated: 1
EndChar

StartChar: Wgrave
Encoding: 7808 7808 212
Width: 2220
Flags: W
HStem: 0 180<440.027 970.564 1249.25 1779.97> 1530 20G<347.778 400 1157.78 1210 1967.78 2020>
VStem: 200 200<222.253 1460> 1010 200<214.905 1460> 1820 200<222.253 1460>
CounterMasks: 1 38
LayerCount: 2
Fore
SplineSet
550 0 m 2,0,1
 200 0 200 0 200 350 c 2,2,-1
 200 1460 l 1,3,-1
 390 1550 l 1,4,-1
 400 1550 l 1,5,-1
 400 350 l 2,6,7
 400 180 400 180 550 180 c 2,8,-1
 860 180 l 2,9,10
 1010 180 1010 180 1010 350 c 2,11,-1
 1010 1460 l 1,12,-1
 1200 1550 l 1,13,-1
 1210 1550 l 1,14,-1
 1210 350 l 2,15,16
 1210 180 1210 180 1360 180 c 2,17,-1
 1670 180 l 2,18,19
 1820 180 1820 180 1820 350 c 2,20,-1
 1820 1460 l 1,21,-1
 2010 1550 l 1,22,-1
 2020 1550 l 1,23,-1
 2020 350 l 2,24,25
 2020 0 2020 0 1670 0 c 2,26,-1
 1360 0 l 2,27,28
 1180 0 1180 0 1110 96 c 1,29,30
 1030 0 1030 0 860 0 c 2,31,-1
 550 0 l 2,0,1
1051 1966 m 1,32,-1
 1061 1966 l 1,33,-1
 1223 1621 l 1,34,-1
 1106 1566 l 1,35,-1
 1096 1566 l 1,36,-1
 875 1882 l 1,37,-1
 1051 1966 l 1,32,-1
EndSplineSet
Validated: 1
EndChar

StartChar: wgrave
Encoding: 7809 7809 213
Width: 1760
Flags: W
HStem: 0 180<371.558 764.09 997.62 1388.44> 1120 20G<297.778 350 927.778 980 1557.78 1610>
VStem: 150 200<198.047 1050> 780 200<194.18 1050> 1410 200<198.047 1050>
CounterMasks: 1 38
LayerCount: 2
Fore
SplineSet
450 0 m 2,0,1
 150 0 150 0 150 300 c 2,2,-1
 150 1050 l 1,3,-1
 340 1140 l 1,4,-1
 350 1140 l 1,5,-1
 350 300 l 2,6,7
 350 180 350 180 450 180 c 2,8,-1
 680 180 l 2,9,10
 780 180 780 180 780 300 c 2,11,-1
 780 1050 l 1,12,-1
 970 1140 l 1,13,-1
 980 1140 l 1,14,-1
 980 300 l 2,15,16
 980 180 980 180 1080 180 c 2,17,-1
 1310 180 l 2,18,19
 1410 180 1410 180 1410 300 c 2,20,-1
 1410 1050 l 1,21,-1
 1600 1140 l 1,22,-1
 1610 1140 l 1,23,-1
 1610 300 l 2,24,25
 1610 0 1610 0 1310 0 c 2,26,-1
 1080 0 l 2,27,28
 942 0 942 0 880 74 c 1,29,30
 814 0 814 0 680 0 c 2,31,-1
 450 0 l 2,0,1
829 1566 m 1,32,-1
 839 1566 l 1,33,-1
 1001 1221 l 1,34,-1
 884 1166 l 1,35,-1
 874 1166 l 1,36,-1
 653 1482 l 1,37,-1
 829 1566 l 1,32,-1
EndSplineSet
Validated: 1
EndChar

StartChar: Wacute
Encoding: 7810 7810 214
Width: 2220
Flags: W
HStem: 0 180<440.027 970.564 1249.25 1779.97> 1530 20G<347.778 400 1157.78 1210 1967.78 2020>
VStem: 200 200<222.253 1460> 1010 200<214.905 1460> 1820 200<222.253 1460>
CounterMasks: 1 38
LayerCount: 2
Fore
SplineSet
550 0 m 2,0,1
 200 0 200 0 200 350 c 2,2,-1
 200 1460 l 1,3,-1
 390 1550 l 1,4,-1
 400 1550 l 1,5,-1
 400 350 l 2,6,7
 400 180 400 180 550 180 c 2,8,-1
 860 180 l 2,9,10
 1010 180 1010 180 1010 350 c 2,11,-1
 1010 1460 l 1,12,-1
 1200 1550 l 1,13,-1
 1210 1550 l 1,14,-1
 1210 350 l 2,15,16
 1210 180 1210 180 1360 180 c 2,17,-1
 1670 180 l 2,18,19
 1820 180 1820 180 1820 350 c 2,20,-1
 1820 1460 l 1,21,-1
 2010 1550 l 1,22,-1
 2020 1550 l 1,23,-1
 2020 350 l 2,24,25
 2020 0 2020 0 1670 0 c 2,26,-1
 1360 0 l 2,27,28
 1180 0 1180 0 1110 96 c 1,29,30
 1030 0 1030 0 860 0 c 2,31,-1
 550 0 l 2,0,1
1153 1966 m 1,32,-1
 1163 1966 l 1,33,-1
 1339 1882 l 1,34,-1
 1118 1566 l 1,35,-1
 1108 1566 l 1,36,-1
 991 1621 l 1,37,-1
 1153 1966 l 1,32,-1
EndSplineSet
Validated: 1
EndChar

StartChar: wacute
Encoding: 7811 7811 215
Width: 1760
Flags: W
HStem: 0 180<371.558 764.09 997.62 1388.44> 1120 20G<297.778 350 927.778 980 1557.78 1610>
VStem: 150 200<198.047 1050> 780 200<194.18 1050> 1410 200<198.047 1050>
CounterMasks: 1 38
LayerCount: 2
Fore
SplineSet
450 0 m 2,0,1
 150 0 150 0 150 300 c 2,2,-1
 150 1050 l 1,3,-1
 340 1140 l 1,4,-1
 350 1140 l 1,5,-1
 350 300 l 2,6,7
 350 180 350 180 450 180 c 2,8,-1
 680 180 l 2,9,10
 780 180 780 180 780 300 c 2,11,-1
 780 1050 l 1,12,-1
 970 1140 l 1,13,-1
 980 1140 l 1,14,-1
 980 300 l 2,15,16
 980 180 980 180 1080 180 c 2,17,-1
 1310 180 l 2,18,19
 1410 180 1410 180 1410 300 c 2,20,-1
 1410 1050 l 1,21,-1
 1600 1140 l 1,22,-1
 1610 1140 l 1,23,-1
 1610 300 l 2,24,25
 1610 0 1610 0 1310 0 c 2,26,-1
 1080 0 l 2,27,28
 942 0 942 0 880 74 c 1,29,30
 814 0 814 0 680 0 c 2,31,-1
 450 0 l 2,0,1
917 1566 m 1,32,-1
 927 1566 l 1,33,-1
 1103 1482 l 1,34,-1
 882 1166 l 1,35,-1
 872 1166 l 1,36,-1
 755 1221 l 1,37,-1
 917 1566 l 1,32,-1
EndSplineSet
Validated: 1
EndChar

StartChar: Wdieresis
Encoding: 7812 7812 216
Width: 2220
Flags: W
HStem: 0 180<440.027 970.564 1249.25 1779.97> 1530 20G<347.778 400 1157.78 1210 1967.78 2020> 1680 245<864.097 1031.9 1164.1 1331.9>
VStem: 200 200<222.253 1460> 828 240<1717.13 1887.87> 1010 200<214.905 1460> 1128 240<1717.13 1887.87> 1820 200<222.253 1460>
LayerCount: 2
Fore
SplineSet
550 0 m 2,0,1
 200 0 200 0 200 350 c 2,2,-1
 200 1460 l 1,3,-1
 390 1550 l 1,4,-1
 400 1550 l 1,5,-1
 400 350 l 2,6,7
 400 180 400 180 550 180 c 2,8,-1
 860 180 l 2,9,10
 1010 180 1010 180 1010 350 c 2,11,-1
 1010 1460 l 1,12,-1
 1200 1550 l 1,13,-1
 1210 1550 l 1,14,-1
 1210 350 l 2,15,16
 1210 180 1210 180 1360 180 c 2,17,-1
 1670 180 l 2,18,19
 1820 180 1820 180 1820 350 c 2,20,-1
 1820 1460 l 1,21,-1
 2010 1550 l 1,22,-1
 2020 1550 l 1,23,-1
 2020 350 l 2,24,25
 2020 0 2020 0 1670 0 c 2,26,-1
 1360 0 l 2,27,28
 1180 0 1180 0 1110 96 c 1,29,30
 1030 0 1030 0 860 0 c 2,31,-1
 550 0 l 2,0,1
1128 1802.5 m 128,-1,33
 1128 1853 1128 1853 1163 1889 c 128,-1,34
 1198 1925 1198 1925 1248 1925 c 128,-1,35
 1298 1925 1298 1925 1333 1889 c 128,-1,36
 1368 1853 1368 1853 1368 1802.5 c 128,-1,37
 1368 1752 1368 1752 1333 1716 c 128,-1,38
 1298 1680 1298 1680 1248 1680 c 128,-1,39
 1198 1680 1198 1680 1163 1716 c 128,-1,32
 1128 1752 1128 1752 1128 1802.5 c 128,-1,33
828 1802.5 m 128,-1,41
 828 1853 828 1853 863 1889 c 128,-1,42
 898 1925 898 1925 948 1925 c 128,-1,43
 998 1925 998 1925 1033 1889 c 128,-1,44
 1068 1853 1068 1853 1068 1802.5 c 128,-1,45
 1068 1752 1068 1752 1033 1716 c 128,-1,46
 998 1680 998 1680 948 1680 c 128,-1,47
 898 1680 898 1680 863 1716 c 128,-1,40
 828 1752 828 1752 828 1802.5 c 128,-1,41
EndSplineSet
Validated: 1
EndChar

StartChar: wdieresis
Encoding: 7813 7813 217
Width: 1760
Flags: W
HStem: 0 180<371.558 764.09 997.62 1388.44> 1120 20G<297.778 350 927.778 980 1557.78 1610> 1285 245<638.097 805.903 938.097 1105.9>
VStem: 150 200<198.047 1050> 602 240<1322.13 1492.87> 780 200<194.18 1050> 902 240<1322.13 1492.87> 1410 200<198.047 1050>
LayerCount: 2
Fore
SplineSet
450 0 m 2,0,1
 150 0 150 0 150 300 c 2,2,-1
 150 1050 l 1,3,-1
 340 1140 l 1,4,-1
 350 1140 l 1,5,-1
 350 300 l 2,6,7
 350 180 350 180 450 180 c 2,8,-1
 680 180 l 2,9,10
 780 180 780 180 780 300 c 2,11,-1
 780 1050 l 1,12,-1
 970 1140 l 1,13,-1
 980 1140 l 1,14,-1
 980 300 l 2,15,16
 980 180 980 180 1080 180 c 2,17,-1
 1310 180 l 2,18,19
 1410 180 1410 180 1410 300 c 2,20,-1
 1410 1050 l 1,21,-1
 1600 1140 l 1,22,-1
 1610 1140 l 1,23,-1
 1610 300 l 2,24,25
 1610 0 1610 0 1310 0 c 2,26,-1
 1080 0 l 2,27,28
 942 0 942 0 880 74 c 1,29,30
 814 0 814 0 680 0 c 2,31,-1
 450 0 l 2,0,1
902 1407.5 m 128,-1,33
 902 1458 902 1458 937 1494 c 128,-1,34
 972 1530 972 1530 1022 1530 c 128,-1,35
 1072 1530 1072 1530 1107 1494 c 128,-1,36
 1142 1458 1142 1458 1142 1407.5 c 128,-1,37
 1142 1357 1142 1357 1107 1321 c 128,-1,38
 1072 1285 1072 1285 1022 1285 c 128,-1,39
 972 1285 972 1285 937 1321 c 128,-1,32
 902 1357 902 1357 902 1407.5 c 128,-1,33
602 1407.5 m 128,-1,41
 602 1458 602 1458 637 1494 c 128,-1,42
 672 1530 672 1530 722 1530 c 128,-1,43
 772 1530 772 1530 807 1494 c 128,-1,44
 842 1458 842 1458 842 1407.5 c 128,-1,45
 842 1357 842 1357 807 1321 c 128,-1,46
 772 1285 772 1285 722 1285 c 128,-1,47
 672 1285 672 1285 637 1321 c 128,-1,40
 602 1357 602 1357 602 1407.5 c 128,-1,41
EndSplineSet
Validated: 1
EndChar

StartChar: Ygrave
Encoding: 7922 7922 218
Width: 1310
Flags: W
HStem: -40 21G<555 607.222> 482 180<390.027 555 755 919.973> 1530 20G<297.778 350 1107.78 1160>
VStem: 150 200<704.253 1460> 555 200<50 482> 960 200<704.253 1460>
CounterMasks: 1 1c
LayerCount: 2
Fore
SplineSet
555 -40 m 1,0,-1
 555 482 l 1,1,-1
 500 482 l 2,2,3
 150 482 150 482 150 832 c 2,4,-1
 150 1460 l 1,5,-1
 340 1550 l 1,6,-1
 350 1550 l 1,7,-1
 350 832 l 2,8,9
 350 662 350 662 500 662 c 2,10,-1
 810 662 l 2,11,12
 960 662 960 662 960 832 c 2,13,-1
 960 1460 l 1,14,-1
 1150 1550 l 1,15,-1
 1160 1550 l 1,16,-1
 1160 832 l 2,17,18
 1160 482 1160 482 810 482 c 2,19,-1
 755 482 l 1,20,-1
 755 50 l 1,21,-1
 565 -40 l 1,22,-1
 555 -40 l 1,0,-1
596 1966 m 1,23,-1
 606 1966 l 1,24,-1
 768 1621 l 1,25,-1
 651 1566 l 1,26,-1
 641 1566 l 1,27,-1
 420 1882 l 1,28,-1
 596 1966 l 1,23,-1
EndSplineSet
Validated: 1
EndChar

StartChar: ygrave
Encoding: 7923 7923 219
Width: 1180
Flags: W
HStem: -410 180<334 758.442> 0 180<371.558 764.602> 1120 20G<297.778 350 927.778 980>
VStem: 150 200<198.047 1050> 780 200<-211.953 30 194.18 1050>
LayerCount: 2
Fore
SplineSet
450 0 m 2,0,1
 150 0 150 0 150 300 c 2,2,-1
 150 1050 l 1,3,-1
 340 1140 l 1,4,-1
 350 1140 l 1,5,-1
 350 300 l 2,6,7
 350 180 350 180 450 180 c 2,8,-1
 680 180 l 2,9,10
 780 180 780 180 780 300 c 2,11,-1
 780 1050 l 1,12,-1
 970 1140 l 1,13,-1
 980 1140 l 1,14,-1
 980 -110 l 2,15,16
 980 -410 980 -410 680 -410 c 2,17,-1
 254 -410 l 1,18,-1
 254 -400 l 1,19,-1
 334 -230 l 1,20,-1
 680 -230 l 2,21,22
 780 -230 780 -230 780 -110 c 2,23,-1
 780 30 l 1,24,25
 741 0 741 0 680 0 c 2,26,-1
 450 0 l 2,0,1
473 1566 m 1,27,-1
 483 1566 l 1,28,-1
 645 1221 l 1,29,-1
 528 1166 l 1,30,-1
 518 1166 l 1,31,-1
 297 1482 l 1,32,-1
 473 1566 l 1,27,-1
EndSplineSet
Validated: 1
EndChar

StartChar: Agrave
Encoding: 192 192 220
Width: 1410
Flags: W
HStem: -40 21G<200 252.222 1010 1062.22> 664 182<400 1010> 1330 180<440.027 969.973>
VStem: 200 200<50 664 846 1287.75> 1010 200<50 664 846 1287.75>
LayerCount: 2
Fore
SplineSet
200 -40 m 1,0,-1
 200 1160 l 2,1,2
 200 1510 200 1510 550 1510 c 2,3,-1
 860 1510 l 2,4,5
 1210 1510 1210 1510 1210 1160 c 2,6,-1
 1210 50 l 1,7,-1
 1020 -40 l 1,8,-1
 1010 -40 l 1,9,-1
 1010 664 l 1,10,-1
 400 664 l 1,11,-1
 400 50 l 1,12,-1
 210 -40 l 1,13,-1
 200 -40 l 1,0,-1
400 846 m 1,14,-1
 1010 846 l 1,15,-1
 1010 1160 l 2,16,17
 1010 1330 1010 1330 860 1330 c 2,18,-1
 550 1330 l 2,19,20
 400 1330 400 1330 400 1160 c 2,21,-1
 400 846 l 1,14,-1
596 1966 m 1,22,-1
 606 1966 l 1,23,-1
 768 1621 l 1,24,-1
 651 1566 l 1,25,-1
 641 1566 l 1,26,-1
 420 1882 l 1,27,-1
 596 1966 l 1,22,-1
EndSplineSet
Validated: 1
EndChar

StartChar: Aacute
Encoding: 193 193 221
Width: 1410
Flags: W
HStem: -40 21G<200 252.222 1010 1062.22> 664 182<400 1010> 1330 180<440.027 969.973>
VStem: 200 200<50 664 846 1287.75> 1010 200<50 664 846 1287.75>
LayerCount: 2
Fore
SplineSet
200 -40 m 1,0,-1
 200 1160 l 2,1,2
 200 1510 200 1510 550 1510 c 2,3,-1
 860 1510 l 2,4,5
 1210 1510 1210 1510 1210 1160 c 2,6,-1
 1210 50 l 1,7,-1
 1020 -40 l 1,8,-1
 1010 -40 l 1,9,-1
 1010 664 l 1,10,-1
 400 664 l 1,11,-1
 400 50 l 1,12,-1
 210 -40 l 1,13,-1
 200 -40 l 1,0,-1
400 846 m 1,14,-1
 1010 846 l 1,15,-1
 1010 1160 l 2,16,17
 1010 1330 1010 1330 860 1330 c 2,18,-1
 550 1330 l 2,19,20
 400 1330 400 1330 400 1160 c 2,21,-1
 400 846 l 1,14,-1
817 1966 m 1,22,-1
 827 1966 l 1,23,-1
 1003 1882 l 1,24,-1
 782 1566 l 1,25,-1
 772 1566 l 1,26,-1
 655 1621 l 1,27,-1
 817 1966 l 1,22,-1
EndSplineSet
Validated: 1
EndChar

StartChar: Acircumflex
Encoding: 194 194 222
Width: 1410
Flags: W
HStem: -40 21G<200 252.222 1010 1062.22> 664 182<400 1010> 1330 180<440.027 969.973>
VStem: 200 200<50 664 846 1287.75> 1010 200<50 664 846 1287.75>
LayerCount: 2
Fore
SplineSet
200 -40 m 1,0,-1
 200 1160 l 2,1,2
 200 1510 200 1510 550 1510 c 2,3,-1
 860 1510 l 2,4,5
 1210 1510 1210 1510 1210 1160 c 2,6,-1
 1210 50 l 1,7,-1
 1020 -40 l 1,8,-1
 1010 -40 l 1,9,-1
 1010 664 l 1,10,-1
 400 664 l 1,11,-1
 400 50 l 1,12,-1
 210 -40 l 1,13,-1
 200 -40 l 1,0,-1
400 846 m 1,14,-1
 1010 846 l 1,15,-1
 1010 1160 l 2,16,17
 1010 1330 1010 1330 860 1330 c 2,18,-1
 550 1330 l 2,19,20
 400 1330 400 1330 400 1160 c 2,21,-1
 400 846 l 1,14,-1
434 1621 m 1,22,-1
 587 1882 l 1,23,-1
 763 1966 l 1,24,-1
 773 1966 l 1,25,-1
 986 1621 l 1,26,-1
 870 1566 l 1,27,-1
 860 1566 l 1,28,-1
 710 1774 l 1,29,-1
 562 1566 l 1,30,-1
 552 1566 l 1,31,-1
 434 1621 l 1,22,-1
EndSplineSet
Validated: 1
EndChar

StartChar: Atilde
Encoding: 195 195 223
Width: 1410
Flags: W
HStem: -40 21G<200 252.222 1010 1062.22> 664 182<400 1010> 1330 180<440.027 969.973> 1638 167<753.775 855.272> 1757 167<589.728 691.225>
VStem: 200 200<50 664 846 1287.75> 471 116<1685 1756.35> 858 116<1805.65 1877> 1010 200<50 664 846 1287.75>
LayerCount: 2
Fore
SplineSet
200 -40 m 1,0,-1
 200 1160 l 2,1,2
 200 1510 200 1510 550 1510 c 2,3,-1
 860 1510 l 2,4,5
 1210 1510 1210 1510 1210 1160 c 2,6,-1
 1210 50 l 1,7,-1
 1020 -40 l 1,8,-1
 1010 -40 l 1,9,-1
 1010 664 l 1,10,-1
 400 664 l 1,11,-1
 400 50 l 1,12,-1
 210 -40 l 1,13,-1
 200 -40 l 1,0,-1
400 846 m 1,14,-1
 1010 846 l 1,15,-1
 1010 1160 l 2,16,17
 1010 1330 1010 1330 860 1330 c 2,18,-1
 550 1330 l 2,19,20
 400 1330 400 1330 400 1160 c 2,21,-1
 400 846 l 1,14,-1
471 1638 m 1,22,23
 471 1924 471 1924 612 1924 c 0,24,25
 676 1924 676 1924 749 1854 c 0,26,27
 800 1805 800 1805 824 1805 c 0,28,29
 858 1805 858 1805 858 1877 c 1,30,-1
 968 1924 l 1,31,-1
 974 1924 l 1,32,33
 974 1638 974 1638 833 1638 c 0,34,35
 769 1638 769 1638 696 1708 c 0,36,37
 645 1757 645 1757 621 1757 c 0,38,39
 587 1757 587 1757 587 1685 c 1,40,-1
 477 1638 l 1,41,-1
 471 1638 l 1,22,23
EndSplineSet
Validated: 1
EndChar

StartChar: Adieresis
Encoding: 196 196 224
Width: 1410
Flags: W
HStem: -40 21G<200 252.222 1010 1062.22> 664 182<400 1010> 1330 180<440.027 969.973> 1680 245<478.097 645.903 778.097 945.903>
VStem: 200 200<50 664 846 1287.75> 442 240<1717.13 1887.87> 742 240<1717.13 1887.87> 1010 200<50 664 846 1287.75>
LayerCount: 2
Fore
SplineSet
200 -40 m 1,0,-1
 200 1160 l 2,1,2
 200 1510 200 1510 550 1510 c 2,3,-1
 860 1510 l 2,4,5
 1210 1510 1210 1510 1210 1160 c 2,6,-1
 1210 50 l 1,7,-1
 1020 -40 l 1,8,-1
 1010 -40 l 1,9,-1
 1010 664 l 1,10,-1
 400 664 l 1,11,-1
 400 50 l 1,12,-1
 210 -40 l 1,13,-1
 200 -40 l 1,0,-1
400 846 m 1,14,-1
 1010 846 l 1,15,-1
 1010 1160 l 2,16,17
 1010 1330 1010 1330 860 1330 c 2,18,-1
 550 1330 l 2,19,20
 400 1330 400 1330 400 1160 c 2,21,-1
 400 846 l 1,14,-1
742 1802.5 m 128,-1,23
 742 1853 742 1853 777 1889 c 128,-1,24
 812 1925 812 1925 862 1925 c 128,-1,25
 912 1925 912 1925 947 1889 c 128,-1,26
 982 1853 982 1853 982 1802.5 c 128,-1,27
 982 1752 982 1752 947 1716 c 128,-1,28
 912 1680 912 1680 862 1680 c 128,-1,29
 812 1680 812 1680 777 1716 c 128,-1,22
 742 1752 742 1752 742 1802.5 c 128,-1,23
442 1802.5 m 128,-1,31
 442 1853 442 1853 477 1889 c 128,-1,32
 512 1925 512 1925 562 1925 c 128,-1,33
 612 1925 612 1925 647 1889 c 128,-1,34
 682 1853 682 1853 682 1802.5 c 128,-1,35
 682 1752 682 1752 647 1716 c 128,-1,36
 612 1680 612 1680 562 1680 c 128,-1,37
 512 1680 512 1680 477 1716 c 128,-1,30
 442 1752 442 1752 442 1802.5 c 128,-1,31
EndSplineSet
Validated: 1
EndChar

StartChar: Aring
Encoding: 197 197 225
Width: 1410
Flags: W
HStem: -40 21G<200 252.222 1010 1062.22> 664 182<400 1010> 1330 180<440.027 969.973> 1588 104<645.161 763.263> 1862 104<645.215 762.294>
VStem: 200 200<50 664 846 1287.75> 508 123<1704.96 1848.01> 777 125<1705.96 1849.51> 1010 200<50 664 846 1287.75>
LayerCount: 2
Fore
SplineSet
200 -40 m 1,0,-1
 200 1160 l 2,1,2
 200 1510 200 1510 550 1510 c 2,3,-1
 860 1510 l 2,4,5
 1210 1510 1210 1510 1210 1160 c 2,6,-1
 1210 50 l 1,7,-1
 1020 -40 l 1,8,-1
 1010 -40 l 1,9,-1
 1010 664 l 1,10,-1
 400 664 l 1,11,-1
 400 50 l 1,12,-1
 210 -40 l 1,13,-1
 200 -40 l 1,0,-1
400 846 m 1,14,-1
 1010 846 l 1,15,-1
 1010 1160 l 2,16,17
 1010 1330 1010 1330 860 1330 c 2,18,-1
 550 1330 l 2,19,20
 400 1330 400 1330 400 1160 c 2,21,-1
 400 846 l 1,14,-1
705 1588 m 128,-1,23
 625 1588 625 1588 570 1637 c 0,24,25
 508 1692 508 1692 508 1777 c 0,26,27
 508 1860 508 1860 570 1917 c 0,28,29
 623 1966 623 1966 705 1966 c 0,30,31
 785 1966 785 1966 840 1917 c 0,32,33
 902 1862 902 1862 902 1777 c 128,-1,34
 902 1692 902 1692 840 1637 c 0,35,22
 785 1588 785 1588 705 1588 c 128,-1,23
705 1862 m 0,36,37
 671 1862 671 1862 651 1841 c 128,-1,38
 631 1820 631 1820 631 1777 c 0,39,40
 631 1731 631 1731 652 1712 c 0,41,42
 674 1692 674 1692 704 1692 c 0,43,44
 735 1692 735 1692 757 1714 c 0,45,46
 777 1733 777 1733 777 1777 c 0,47,48
 777 1822 777 1822 755 1843 c 0,49,50
 735 1862 735 1862 705 1862 c 0,36,37
EndSplineSet
Validated: 1
EndChar

StartChar: AE
Encoding: 198 198 226
Width: 1967
Flags: W
HStem: -40 21G<200 252.222> 0 182<1210 1836> 664 182<400 1010 1210 1669> 1328 182<440.027 974.617 1210 1669>
VStem: 200 200<50 664 846 1287.75> 1010 200<182 664 846 1295.1>
LayerCount: 2
Fore
SplineSet
1010 0 m 1,0,-1
 1010 664 l 1,1,-1
 400 664 l 1,2,-1
 400 50 l 1,3,-1
 210 -40 l 1,4,-1
 200 -40 l 1,5,-1
 200 1160 l 2,6,7
 200 1510 200 1510 550 1510 c 2,8,-1
 860 1510 l 2,9,10
 987 1510 987 1510 1042 1454 c 1,11,-1
 1116 1510 l 1,12,-1
 1750 1510 l 1,13,-1
 1750 1500 l 1,14,-1
 1669 1328 l 1,15,-1
 1210 1328 l 1,16,-1
 1210 846 l 1,17,-1
 1750 846 l 1,18,-1
 1750 836 l 1,19,-1
 1669 664 l 1,20,-1
 1210 664 l 1,21,-1
 1210 182 l 1,22,-1
 1917 182 l 1,23,-1
 1917 172 l 1,24,-1
 1836 0 l 1,25,-1
 1010 0 l 1,0,-1
400 846 m 1,26,-1
 1010 846 l 1,27,-1
 1010 1160 l 2,28,29
 1010 1330 1010 1330 860 1330 c 2,30,-1
 550 1330 l 2,31,32
 400 1330 400 1330 400 1160 c 2,33,-1
 400 846 l 1,26,-1
EndSplineSet
Validated: 1
EndChar

StartChar: Amacron
Encoding: 256 256 227
Width: 1410
Flags: W
HStem: -40 21G<200 252.222 1010 1062.22> 664 182<400 1010> 1330 180<440.027 969.973> 1638 182<548 925>
VStem: 200 200<50 664 846 1287.75> 1010 200<50 664 846 1287.75>
LayerCount: 2
Fore
SplineSet
200 -40 m 1,0,-1
 200 1160 l 2,1,2
 200 1510 200 1510 550 1510 c 2,3,-1
 860 1510 l 2,4,5
 1210 1510 1210 1510 1210 1160 c 2,6,-1
 1210 50 l 1,7,-1
 1020 -40 l 1,8,-1
 1010 -40 l 1,9,-1
 1010 664 l 1,10,-1
 400 664 l 1,11,-1
 400 50 l 1,12,-1
 210 -40 l 1,13,-1
 200 -40 l 1,0,-1
400 846 m 1,14,-1
 1010 846 l 1,15,-1
 1010 1160 l 2,16,17
 1010 1330 1010 1330 860 1330 c 2,18,-1
 550 1330 l 2,19,20
 400 1330 400 1330 400 1160 c 2,21,-1
 400 846 l 1,14,-1
467 1638 m 1,22,-1
 467 1648 l 1,23,-1
 548 1820 l 1,24,-1
 1006 1820 l 1,25,-1
 1006 1810 l 1,26,-1
 925 1638 l 1,27,-1
 467 1638 l 1,22,-1
EndSplineSet
Validated: 1
EndChar

StartChar: Abreve
Encoding: 258 258 228
Width: 1410
Flags: W
HStem: -40 21G<200 252.222 1010 1062.22> 664 182<400 1010> 1330 180<440.027 969.973> 1638 175<608.656 818.399>
VStem: 200 200<50 664 846 1287.75> 1010 200<50 664 846 1287.75>
LayerCount: 2
Fore
SplineSet
200 -40 m 1,0,-1
 200 1160 l 2,1,2
 200 1510 200 1510 550 1510 c 2,3,-1
 860 1510 l 2,4,5
 1210 1510 1210 1510 1210 1160 c 2,6,-1
 1210 50 l 1,7,-1
 1020 -40 l 1,8,-1
 1010 -40 l 1,9,-1
 1010 664 l 1,10,-1
 400 664 l 1,11,-1
 400 50 l 1,12,-1
 210 -40 l 1,13,-1
 200 -40 l 1,0,-1
400 846 m 1,14,-1
 1010 846 l 1,15,-1
 1010 1160 l 2,16,17
 1010 1330 1010 1330 860 1330 c 2,18,-1
 550 1330 l 2,19,20
 400 1330 400 1330 400 1160 c 2,21,-1
 400 846 l 1,14,-1
468 1788 m 1,22,-1
 468 1798 l 1,23,-1
 542 1947 l 1,24,25
 614 1813 614 1813 714 1813 c 128,-1,26
 814 1813 814 1813 886 1947 c 1,27,-1
 962 1798 l 1,28,-1
 962 1788 l 1,29,30
 860 1638 860 1638 712 1638 c 0,31,32
 558 1638 558 1638 468 1788 c 1,22,-1
EndSplineSet
Validated: 1
EndChar

StartChar: Aogonek
Encoding: 260 260 229
Width: 1410
Flags: W
HStem: -450 21G<875.5 982.222> -40 21G<200 252.222> 664 182<400 1010> 1330 180<440.027 969.973>
VStem: 200 200<50 664 846 1287.75> 821 175<-280.616 -54.0942> 1010 200<51.25 664 846 1287.75>
LayerCount: 2
Fore
SplineSet
200 -40 m 1,0,-1
 200 1160 l 2,1,2
 200 1510 200 1510 550 1510 c 2,3,-1
 860 1510 l 2,4,5
 1210 1510 1210 1510 1210 1160 c 2,6,-1
 1210 50 l 1,7,-1
 1031 -35 l 1,8,9
 996 -95 996 -95 996 -152 c 0,10,11
 996 -273 996 -273 1130 -360 c 1,12,-1
 940 -450 l 1,13,-1
 930 -450 l 1,14,15
 821 -343 821 -343 821 -206 c 0,16,17
 821 -38 821 -38 1010 82 c 1,18,-1
 1010 664 l 1,19,-1
 400 664 l 1,20,-1
 400 50 l 1,21,-1
 210 -40 l 1,22,-1
 200 -40 l 1,0,-1
400 846 m 1,23,-1
 1010 846 l 1,24,-1
 1010 1160 l 2,25,26
 1010 1330 1010 1330 860 1330 c 2,27,-1
 550 1330 l 2,28,29
 400 1330 400 1330 400 1160 c 2,30,-1
 400 846 l 1,23,-1
EndSplineSet
Validated: 1
EndChar

StartChar: Ccedilla
Encoding: 199 199 230
Width: 1410
Flags: W
HStem: -450 21G<687.778 794.5> 0 180<440.027 645.417 770 969.973> 1330 180<440.027 969.973>
VStem: 200 200<222.253 1287.75> 674 175<-280.616 -45.165> 1010 200<222.253 460 1050 1287.75>
LayerCount: 2
Fore
SplineSet
550 0 m 2,0,1
 200 0 200 0 200 350 c 2,2,-1
 200 1160 l 2,3,4
 200 1510 200 1510 550 1510 c 2,5,-1
 860 1510 l 2,6,7
 1210 1510 1210 1510 1210 1160 c 2,8,-1
 1210 1050 l 1,9,-1
 1020 960 l 1,10,-1
 1010 960 l 1,11,-1
 1010 1160 l 2,12,13
 1010 1330 1010 1330 860 1330 c 2,14,-1
 550 1330 l 2,15,16
 400 1330 400 1330 400 1160 c 2,17,-1
 400 350 l 2,18,19
 400 180 400 180 550 180 c 2,20,-1
 860 180 l 2,21,22
 1010 180 1010 180 1010 350 c 2,23,-1
 1010 460 l 1,24,-1
 1200 550 l 1,25,-1
 1210 550 l 1,26,-1
 1210 350 l 2,27,28
 1210 0 1210 0 860 0 c 2,29,-1
 770 0 l 1,30,31
 849 -85 849 -85 849 -206 c 0,32,33
 849 -343 849 -343 740 -450 c 1,34,-1
 730 -450 l 1,35,-1
 540 -360 l 1,36,37
 674 -273 674 -273 674 -152 c 0,38,39
 674 -83 674 -83 621 0 c 1,40,-1
 550 0 l 2,0,1
EndSplineSet
Validated: 1
EndChar

StartChar: Cacute
Encoding: 262 262 231
Width: 1410
Flags: W
HStem: 0 180<440.027 969.973> 1330 180<440.027 969.973>
VStem: 200 200<222.253 1287.75> 1010 200<222.253 460 1050 1287.75>
LayerCount: 2
Fore
SplineSet
550 0 m 2,0,1
 200 0 200 0 200 350 c 2,2,-1
 200 1160 l 2,3,4
 200 1510 200 1510 550 1510 c 2,5,-1
 860 1510 l 2,6,7
 1210 1510 1210 1510 1210 1160 c 2,8,-1
 1210 1050 l 1,9,-1
 1020 960 l 1,10,-1
 1010 960 l 1,11,-1
 1010 1160 l 2,12,13
 1010 1330 1010 1330 860 1330 c 2,14,-1
 550 1330 l 2,15,16
 400 1330 400 1330 400 1160 c 2,17,-1
 400 350 l 2,18,19
 400 180 400 180 550 180 c 2,20,-1
 860 180 l 2,21,22
 1010 180 1010 180 1010 350 c 2,23,-1
 1010 460 l 1,24,-1
 1200 550 l 1,25,-1
 1210 550 l 1,26,-1
 1210 350 l 2,27,28
 1210 0 1210 0 860 0 c 2,29,-1
 550 0 l 2,0,1
817 1966 m 1,30,-1
 827 1966 l 1,31,-1
 1003 1882 l 1,32,-1
 782 1566 l 1,33,-1
 772 1566 l 1,34,-1
 655 1621 l 1,35,-1
 817 1966 l 1,30,-1
EndSplineSet
Validated: 1
EndChar

StartChar: Ccircumflex
Encoding: 264 264 232
Width: 1410
Flags: W
HStem: 0 180<440.027 969.973> 1330 180<440.027 969.973>
VStem: 200 200<222.253 1287.75> 1010 200<222.253 460 1050 1287.75>
LayerCount: 2
Fore
SplineSet
550 0 m 2,0,1
 200 0 200 0 200 350 c 2,2,-1
 200 1160 l 2,3,4
 200 1510 200 1510 550 1510 c 2,5,-1
 860 1510 l 2,6,7
 1210 1510 1210 1510 1210 1160 c 2,8,-1
 1210 1050 l 1,9,-1
 1020 960 l 1,10,-1
 1010 960 l 1,11,-1
 1010 1160 l 2,12,13
 1010 1330 1010 1330 860 1330 c 2,14,-1
 550 1330 l 2,15,16
 400 1330 400 1330 400 1160 c 2,17,-1
 400 350 l 2,18,19
 400 180 400 180 550 180 c 2,20,-1
 860 180 l 2,21,22
 1010 180 1010 180 1010 350 c 2,23,-1
 1010 460 l 1,24,-1
 1200 550 l 1,25,-1
 1210 550 l 1,26,-1
 1210 350 l 2,27,28
 1210 0 1210 0 860 0 c 2,29,-1
 550 0 l 2,0,1
434 1621 m 1,30,-1
 587 1882 l 1,31,-1
 763 1966 l 1,32,-1
 773 1966 l 1,33,-1
 986 1621 l 1,34,-1
 870 1566 l 1,35,-1
 860 1566 l 1,36,-1
 710 1774 l 1,37,-1
 562 1566 l 1,38,-1
 552 1566 l 1,39,-1
 434 1621 l 1,30,-1
EndSplineSet
Validated: 1
EndChar

StartChar: Cdotaccent
Encoding: 266 266 233
Width: 1410
Flags: W
HStem: 0 180<440.027 969.973> 1330 180<440.027 969.973> 1680 245<621.097 788.903>
VStem: 200 200<222.253 1287.75> 585 240<1717.13 1887.87> 1010 200<222.253 460 1050 1287.75>
CounterMasks: 1 1c
LayerCount: 2
Fore
SplineSet
550 0 m 2,0,1
 200 0 200 0 200 350 c 2,2,-1
 200 1160 l 2,3,4
 200 1510 200 1510 550 1510 c 2,5,-1
 860 1510 l 2,6,7
 1210 1510 1210 1510 1210 1160 c 2,8,-1
 1210 1050 l 1,9,-1
 1020 960 l 1,10,-1
 1010 960 l 1,11,-1
 1010 1160 l 2,12,13
 1010 1330 1010 1330 860 1330 c 2,14,-1
 550 1330 l 2,15,16
 400 1330 400 1330 400 1160 c 2,17,-1
 400 350 l 2,18,19
 400 180 400 180 550 180 c 2,20,-1
 860 180 l 2,21,22
 1010 180 1010 180 1010 350 c 2,23,-1
 1010 460 l 1,24,-1
 1200 550 l 1,25,-1
 1210 550 l 1,26,-1
 1210 350 l 2,27,28
 1210 0 1210 0 860 0 c 2,29,-1
 550 0 l 2,0,1
585 1802.5 m 128,-1,31
 585 1853 585 1853 620 1889 c 128,-1,32
 655 1925 655 1925 705 1925 c 128,-1,33
 755 1925 755 1925 790 1889 c 128,-1,34
 825 1853 825 1853 825 1802.5 c 128,-1,35
 825 1752 825 1752 790 1716 c 128,-1,36
 755 1680 755 1680 705 1680 c 128,-1,37
 655 1680 655 1680 620 1716 c 128,-1,30
 585 1752 585 1752 585 1802.5 c 128,-1,31
EndSplineSet
Validated: 1
EndChar

StartChar: Ccaron
Encoding: 268 268 234
Width: 1410
Flags: W
HStem: 0 180<440.027 969.973> 1330 180<440.027 969.973>
VStem: 200 200<222.253 1287.75> 1010 200<222.253 460 1050 1287.75>
LayerCount: 2
Fore
SplineSet
550 0 m 2,0,1
 200 0 200 0 200 350 c 2,2,-1
 200 1160 l 2,3,4
 200 1510 200 1510 550 1510 c 2,5,-1
 860 1510 l 2,6,7
 1210 1510 1210 1510 1210 1160 c 2,8,-1
 1210 1050 l 1,9,-1
 1020 960 l 1,10,-1
 1010 960 l 1,11,-1
 1010 1160 l 2,12,13
 1010 1330 1010 1330 860 1330 c 2,14,-1
 550 1330 l 2,15,16
 400 1330 400 1330 400 1160 c 2,17,-1
 400 350 l 2,18,19
 400 180 400 180 550 180 c 2,20,-1
 860 180 l 2,21,22
 1010 180 1010 180 1010 350 c 2,23,-1
 1010 460 l 1,24,-1
 1200 550 l 1,25,-1
 1210 550 l 1,26,-1
 1210 350 l 2,27,28
 1210 0 1210 0 860 0 c 2,29,-1
 550 0 l 2,0,1
647 1566 m 1,30,-1
 434 1911 l 1,31,-1
 550 1966 l 1,32,-1
 560 1966 l 1,33,-1
 710 1758 l 1,34,-1
 858 1966 l 1,35,-1
 868 1966 l 1,36,-1
 986 1911 l 1,37,-1
 833 1650 l 1,38,-1
 657 1566 l 1,39,-1
 647 1566 l 1,30,-1
EndSplineSet
Validated: 1
EndChar

StartChar: Eth
Encoding: 208 208 235
Width: 1390
Flags: W
HStem: 0 180<400 949.973> 664 182<131 200 400 734> 1330 180<400 949.973>
VStem: 200 200<180 664 846 1330> 990 200<222.253 1287.75>
CounterMasks: 1 e0
LayerCount: 2
Fore
SplineSet
200 0 m 1,0,-1
 200 664 l 1,1,-1
 50 664 l 1,2,-1
 50 674 l 1,3,-1
 131 846 l 1,4,-1
 200 846 l 1,5,-1
 200 1460 l 1,6,-1
 306 1510 l 1,7,-1
 840 1510 l 2,8,9
 1190 1510 1190 1510 1190 1160 c 2,10,-1
 1190 350 l 2,11,12
 1190 0 1190 0 840 0 c 2,13,-1
 200 0 l 1,0,-1
400 180 m 1,14,-1
 840 180 l 2,15,16
 990 180 990 180 990 350 c 2,17,-1
 990 1160 l 2,18,19
 990 1330 990 1330 840 1330 c 2,20,-1
 400 1330 l 1,21,-1
 400 846 l 1,22,-1
 815 846 l 1,23,-1
 815 836 l 1,24,-1
 734 664 l 1,25,-1
 400 664 l 1,26,-1
 400 180 l 1,14,-1
EndSplineSet
Validated: 1
EndChar

StartChar: Dcaron
Encoding: 270 270 236
Width: 1390
Flags: W
HStem: 0 180<400 949.973> 1330 180<400 949.973>
VStem: 200 200<180 1330> 990 200<222.253 1287.75>
LayerCount: 2
Fore
SplineSet
400 180 m 1,0,-1
 840 180 l 2,1,2
 990 180 990 180 990 350 c 2,3,-1
 990 1160 l 2,4,5
 990 1330 990 1330 840 1330 c 2,6,-1
 400 1330 l 1,7,-1
 400 180 l 1,0,-1
200 0 m 1,8,-1
 200 1460 l 1,9,-1
 306 1510 l 1,10,-1
 840 1510 l 2,11,12
 1190 1510 1190 1510 1190 1160 c 2,13,-1
 1190 350 l 2,14,15
 1190 0 1190 0 840 0 c 2,16,-1
 200 0 l 1,8,-1
578 1566 m 1,17,-1
 365 1911 l 1,18,-1
 481 1966 l 1,19,-1
 491 1966 l 1,20,-1
 641 1758 l 1,21,-1
 789 1966 l 1,22,-1
 799 1966 l 1,23,-1
 917 1911 l 1,24,-1
 764 1650 l 1,25,-1
 588 1566 l 1,26,-1
 578 1566 l 1,17,-1
EndSplineSet
Validated: 1
EndChar

StartChar: Dcroat
Encoding: 272 272 237
Width: 1390
Flags: W
HStem: 0 180<400 949.973> 664 182<131 200 400 734> 1330 180<400 949.973>
VStem: 200 200<180 664 846 1330> 990 200<222.253 1287.75>
CounterMasks: 1 e0
LayerCount: 2
Fore
SplineSet
200 0 m 1,0,-1
 200 664 l 1,1,-1
 50 664 l 1,2,-1
 50 674 l 1,3,-1
 131 846 l 1,4,-1
 200 846 l 1,5,-1
 200 1460 l 1,6,-1
 306 1510 l 1,7,-1
 840 1510 l 2,8,9
 1190 1510 1190 1510 1190 1160 c 2,10,-1
 1190 350 l 2,11,12
 1190 0 1190 0 840 0 c 2,13,-1
 200 0 l 1,0,-1
400 180 m 1,14,-1
 840 180 l 2,15,16
 990 180 990 180 990 350 c 2,17,-1
 990 1160 l 2,18,19
 990 1330 990 1330 840 1330 c 2,20,-1
 400 1330 l 1,21,-1
 400 846 l 1,22,-1
 815 846 l 1,23,-1
 815 836 l 1,24,-1
 734 664 l 1,25,-1
 400 664 l 1,26,-1
 400 180 l 1,14,-1
EndSplineSet
Validated: 1
EndChar

StartChar: Egrave
Encoding: 200 200 238
Width: 1157
Flags: W
HStem: 0 182<400 1026> 664 182<400 859> 1328 182<400 859>
VStem: 200 200<182 664 846 1328>
CounterMasks: 1 e0
LayerCount: 2
Fore
SplineSet
506 1966 m 1,0,-1
 516 1966 l 1,1,-1
 678 1621 l 1,2,-1
 561 1566 l 1,3,-1
 551 1566 l 1,4,-1
 330 1882 l 1,5,-1
 506 1966 l 1,0,-1
200 0 m 1,6,-1
 200 1460 l 1,7,-1
 306 1510 l 1,8,-1
 940 1510 l 1,9,-1
 940 1500 l 1,10,-1
 859 1328 l 1,11,-1
 400 1328 l 1,12,-1
 400 846 l 1,13,-1
 940 846 l 1,14,-1
 940 836 l 1,15,-1
 859 664 l 1,16,-1
 400 664 l 1,17,-1
 400 182 l 1,18,-1
 1107 182 l 1,19,-1
 1107 172 l 1,20,-1
 1026 0 l 1,21,-1
 200 0 l 1,6,-1
EndSplineSet
Validated: 1
EndChar

StartChar: Eacute
Encoding: 201 201 239
Width: 1157
Flags: W
HStem: 0 182<400 1026> 664 182<400 859> 1328 182<400 859>
VStem: 200 200<182 664 846 1328>
CounterMasks: 1 e0
LayerCount: 2
Fore
SplineSet
684 1966 m 1,0,-1
 694 1966 l 1,1,-1
 870 1882 l 1,2,-1
 649 1566 l 1,3,-1
 639 1566 l 1,4,-1
 522 1621 l 1,5,-1
 684 1966 l 1,0,-1
200 0 m 1,6,-1
 200 1460 l 1,7,-1
 306 1510 l 1,8,-1
 940 1510 l 1,9,-1
 940 1500 l 1,10,-1
 859 1328 l 1,11,-1
 400 1328 l 1,12,-1
 400 846 l 1,13,-1
 940 846 l 1,14,-1
 940 836 l 1,15,-1
 859 664 l 1,16,-1
 400 664 l 1,17,-1
 400 182 l 1,18,-1
 1107 182 l 1,19,-1
 1107 172 l 1,20,-1
 1026 0 l 1,21,-1
 200 0 l 1,6,-1
EndSplineSet
Validated: 1
EndChar

StartChar: Ecircumflex
Encoding: 202 202 240
Width: 1157
Flags: W
HStem: 0 182<400 1026> 664 182<400 859> 1328 182<400 859>
VStem: 200 200<182 664 846 1328>
CounterMasks: 1 e0
LayerCount: 2
Fore
SplineSet
313 1621 m 1,0,-1
 466 1882 l 1,1,-1
 642 1966 l 1,2,-1
 652 1966 l 1,3,-1
 865 1621 l 1,4,-1
 749 1566 l 1,5,-1
 739 1566 l 1,6,-1
 589 1774 l 1,7,-1
 441 1566 l 1,8,-1
 431 1566 l 1,9,-1
 313 1621 l 1,0,-1
200 0 m 1,10,-1
 200 1460 l 1,11,-1
 306 1510 l 1,12,-1
 940 1510 l 1,13,-1
 940 1500 l 1,14,-1
 859 1328 l 1,15,-1
 400 1328 l 1,16,-1
 400 846 l 1,17,-1
 940 846 l 1,18,-1
 940 836 l 1,19,-1
 859 664 l 1,20,-1
 400 664 l 1,21,-1
 400 182 l 1,22,-1
 1107 182 l 1,23,-1
 1107 172 l 1,24,-1
 1026 0 l 1,25,-1
 200 0 l 1,10,-1
EndSplineSet
Validated: 1
EndChar

StartChar: Edieresis
Encoding: 203 203 241
Width: 1157
Flags: W
HStem: 0 182<400 1026> 664 182<400 859> 1328 182<400 859> 1680 245<353.097 520.903 653.097 820.903>
VStem: 200 200<182 664 846 1328> 317 240<1717.13 1887.87> 617 240<1717.13 1887.87>
LayerCount: 2
Fore
SplineSet
617 1802.5 m 128,-1,1
 617 1853 617 1853 652 1889 c 128,-1,2
 687 1925 687 1925 737 1925 c 128,-1,3
 787 1925 787 1925 822 1889 c 128,-1,4
 857 1853 857 1853 857 1802.5 c 128,-1,5
 857 1752 857 1752 822 1716 c 128,-1,6
 787 1680 787 1680 737 1680 c 128,-1,7
 687 1680 687 1680 652 1716 c 128,-1,0
 617 1752 617 1752 617 1802.5 c 128,-1,1
317 1802.5 m 128,-1,9
 317 1853 317 1853 352 1889 c 128,-1,10
 387 1925 387 1925 437 1925 c 128,-1,11
 487 1925 487 1925 522 1889 c 128,-1,12
 557 1853 557 1853 557 1802.5 c 128,-1,13
 557 1752 557 1752 522 1716 c 128,-1,14
 487 1680 487 1680 437 1680 c 128,-1,15
 387 1680 387 1680 352 1716 c 128,-1,8
 317 1752 317 1752 317 1802.5 c 128,-1,9
200 0 m 1,16,-1
 200 1460 l 1,17,-1
 306 1510 l 1,18,-1
 940 1510 l 1,19,-1
 940 1500 l 1,20,-1
 859 1328 l 1,21,-1
 400 1328 l 1,22,-1
 400 846 l 1,23,-1
 940 846 l 1,24,-1
 940 836 l 1,25,-1
 859 664 l 1,26,-1
 400 664 l 1,27,-1
 400 182 l 1,28,-1
 1107 182 l 1,29,-1
 1107 172 l 1,30,-1
 1026 0 l 1,31,-1
 200 0 l 1,16,-1
EndSplineSet
Validated: 1
EndChar

StartChar: Emacron
Encoding: 274 274 242
Width: 1157
Flags: W
HStem: 0 182<400 1026> 664 182<400 859> 1328 182<400 859> 1638 182<427 804>
VStem: 200 200<182 664 846 1328>
LayerCount: 2
Fore
SplineSet
346 1638 m 1,0,-1
 346 1648 l 1,1,-1
 427 1820 l 1,2,-1
 885 1820 l 1,3,-1
 885 1810 l 1,4,-1
 804 1638 l 1,5,-1
 346 1638 l 1,0,-1
200 0 m 1,6,-1
 200 1460 l 1,7,-1
 306 1510 l 1,8,-1
 940 1510 l 1,9,-1
 940 1500 l 1,10,-1
 859 1328 l 1,11,-1
 400 1328 l 1,12,-1
 400 846 l 1,13,-1
 940 846 l 1,14,-1
 940 836 l 1,15,-1
 859 664 l 1,16,-1
 400 664 l 1,17,-1
 400 182 l 1,18,-1
 1107 182 l 1,19,-1
 1107 172 l 1,20,-1
 1026 0 l 1,21,-1
 200 0 l 1,6,-1
EndSplineSet
Validated: 1
EndChar

StartChar: Ebreve
Encoding: 276 276 243
Width: 1157
Flags: W
HStem: 0 182<400 1026> 664 182<400 859> 1328 182<400 859> 1638 175<478.656 688.399>
VStem: 200 200<182 664 846 1328>
LayerCount: 2
Fore
SplineSet
338 1788 m 1,0,-1
 338 1798 l 1,1,-1
 412 1947 l 1,2,3
 484 1813 484 1813 584 1813 c 128,-1,4
 684 1813 684 1813 756 1947 c 1,5,-1
 832 1798 l 1,6,-1
 832 1788 l 1,7,8
 730 1638 730 1638 582 1638 c 0,9,10
 428 1638 428 1638 338 1788 c 1,0,-1
200 0 m 1,11,-1
 200 1460 l 1,12,-1
 306 1510 l 1,13,-1
 940 1510 l 1,14,-1
 940 1500 l 1,15,-1
 859 1328 l 1,16,-1
 400 1328 l 1,17,-1
 400 846 l 1,18,-1
 940 846 l 1,19,-1
 940 836 l 1,20,-1
 859 664 l 1,21,-1
 400 664 l 1,22,-1
 400 182 l 1,23,-1
 1107 182 l 1,24,-1
 1107 172 l 1,25,-1
 1026 0 l 1,26,-1
 200 0 l 1,11,-1
EndSplineSet
Validated: 1
EndChar

StartChar: Edotaccent
Encoding: 278 278 244
Width: 1157
Flags: W
HStem: 0 182<400 1026> 664 182<400 859> 1328 182<400 859> 1680 245<502.097 669.903>
VStem: 200 200<182 664 846 1328> 466 240<1717.13 1887.87>
LayerCount: 2
Fore
SplineSet
466 1802.5 m 128,-1,1
 466 1853 466 1853 501 1889 c 128,-1,2
 536 1925 536 1925 586 1925 c 128,-1,3
 636 1925 636 1925 671 1889 c 128,-1,4
 706 1853 706 1853 706 1802.5 c 128,-1,5
 706 1752 706 1752 671 1716 c 128,-1,6
 636 1680 636 1680 586 1680 c 128,-1,7
 536 1680 536 1680 501 1716 c 128,-1,0
 466 1752 466 1752 466 1802.5 c 128,-1,1
200 0 m 1,8,-1
 200 1460 l 1,9,-1
 306 1510 l 1,10,-1
 940 1510 l 1,11,-1
 940 1500 l 1,12,-1
 859 1328 l 1,13,-1
 400 1328 l 1,14,-1
 400 846 l 1,15,-1
 940 846 l 1,16,-1
 940 836 l 1,17,-1
 859 664 l 1,18,-1
 400 664 l 1,19,-1
 400 182 l 1,20,-1
 1107 182 l 1,21,-1
 1107 172 l 1,22,-1
 1026 0 l 1,23,-1
 200 0 l 1,8,-1
EndSplineSet
Validated: 1
EndChar

StartChar: Eogonek
Encoding: 280 280 245
Width: 1157
Flags: W
HStem: -450 21G<816.5 923.222> 0 182<400 849 966.963 1026> 664 182<400 859> 1328 182<400 859>
VStem: 200 200<182 664 846 1328> 762 175<-280.616 -53.7725>
LayerCount: 2
Fore
SplineSet
200 0 m 1,0,-1
 200 1460 l 1,1,-1
 306 1510 l 1,2,-1
 940 1510 l 1,3,-1
 940 1500 l 1,4,-1
 859 1328 l 1,5,-1
 400 1328 l 1,6,-1
 400 846 l 1,7,-1
 940 846 l 1,8,-1
 940 836 l 1,9,-1
 859 664 l 1,10,-1
 400 664 l 1,11,-1
 400 182 l 1,12,-1
 1107 182 l 1,13,-1
 1107 172 l 1,14,-1
 1026 0 l 1,15,-1
 995 0 l 1,16,17
 937 -80 937 -80 937 -152 c 0,18,19
 937 -273 937 -273 1071 -360 c 1,20,-1
 881 -450 l 1,21,-1
 871 -450 l 1,22,23
 762 -343 762 -343 762 -206 c 0,24,25
 762 -92 762 -92 849 0 c 1,26,-1
 200 0 l 1,0,-1
EndSplineSet
Validated: 1
EndChar

StartChar: Ecaron
Encoding: 282 282 246
Width: 1157
Flags: W
HStem: 0 182<400 1026> 664 182<400 859> 1328 182<400 859>
VStem: 200 200<182 664 846 1328>
CounterMasks: 1 e0
LayerCount: 2
Fore
SplineSet
533 1566 m 1,0,-1
 320 1911 l 1,1,-1
 436 1966 l 1,2,-1
 446 1966 l 1,3,-1
 596 1758 l 1,4,-1
 744 1966 l 1,5,-1
 754 1966 l 1,6,-1
 872 1911 l 1,7,-1
 719 1650 l 1,8,-1
 543 1566 l 1,9,-1
 533 1566 l 1,0,-1
200 0 m 1,10,-1
 200 1460 l 1,11,-1
 306 1510 l 1,12,-1
 940 1510 l 1,13,-1
 940 1500 l 1,14,-1
 859 1328 l 1,15,-1
 400 1328 l 1,16,-1
 400 846 l 1,17,-1
 940 846 l 1,18,-1
 940 836 l 1,19,-1
 859 664 l 1,20,-1
 400 664 l 1,21,-1
 400 182 l 1,22,-1
 1107 182 l 1,23,-1
 1107 172 l 1,24,-1
 1026 0 l 1,25,-1
 200 0 l 1,10,-1
EndSplineSet
Validated: 1
EndChar

StartChar: uni0191
Encoding: 401 401 247
Width: 1120
Flags: W
HStem: -410 180<80 178.442> 664 182<400 859> 1328 182<400 859>
VStem: 200 200<-211.953 664 846 1328>
LayerCount: 2
Fore
SplineSet
0 -410 m 1,0,-1
 0 -400 l 1,1,-1
 80 -230 l 1,2,-1
 100 -230 l 2,3,4
 200 -230 200 -230 200 -110 c 2,5,-1
 200 1460 l 1,6,-1
 306 1510 l 1,7,-1
 940 1510 l 1,8,-1
 940 1500 l 1,9,-1
 859 1328 l 1,10,-1
 400 1328 l 1,11,-1
 400 846 l 1,12,-1
 940 846 l 1,13,-1
 940 836 l 1,14,-1
 859 664 l 1,15,-1
 400 664 l 1,16,-1
 400 -110 l 2,17,18
 400 -410 400 -410 100 -410 c 2,19,-1
 0 -410 l 1,0,-1
EndSplineSet
Validated: 1
EndChar

StartChar: Gcircumflex
Encoding: 284 284 248
Width: 1410
Flags: W
HStem: 0 180<440.027 969.973> 664 182<743 1010> 1330 180<440.027 969.973>
VStem: 200 200<222.253 1287.75> 1010 200<222.253 664 1050 1287.75>
CounterMasks: 1 e0
LayerCount: 2
Fore
SplineSet
550 0 m 2,0,1
 200 0 200 0 200 350 c 2,2,-1
 200 1160 l 2,3,4
 200 1510 200 1510 550 1510 c 2,5,-1
 860 1510 l 2,6,7
 1210 1510 1210 1510 1210 1160 c 2,8,-1
 1210 1050 l 1,9,-1
 1020 960 l 1,10,-1
 1010 960 l 1,11,-1
 1010 1160 l 2,12,13
 1010 1330 1010 1330 860 1330 c 2,14,-1
 550 1330 l 2,15,16
 400 1330 400 1330 400 1160 c 2,17,-1
 400 350 l 2,18,19
 400 180 400 180 550 180 c 2,20,-1
 860 180 l 2,21,22
 1010 180 1010 180 1010 350 c 2,23,-1
 1010 664 l 1,24,-1
 662 664 l 1,25,-1
 662 674 l 1,26,-1
 743 846 l 1,27,-1
 1210 846 l 1,28,-1
 1210 350 l 2,29,30
 1210 0 1210 0 860 0 c 2,31,-1
 550 0 l 2,0,1
434 1621 m 1,32,-1
 587 1882 l 1,33,-1
 763 1966 l 1,34,-1
 773 1966 l 1,35,-1
 986 1621 l 1,36,-1
 870 1566 l 1,37,-1
 860 1566 l 1,38,-1
 710 1774 l 1,39,-1
 562 1566 l 1,40,-1
 552 1566 l 1,41,-1
 434 1621 l 1,32,-1
EndSplineSet
Validated: 1
EndChar

StartChar: Gbreve
Encoding: 286 286 249
Width: 1410
Flags: W
HStem: 0 180<440.027 969.973> 664 182<743 1010> 1330 180<440.027 969.973> 1638 175<608.656 818.399>
VStem: 200 200<222.253 1287.75> 1010 200<222.253 664 1050 1287.75>
LayerCount: 2
Fore
SplineSet
550 0 m 2,0,1
 200 0 200 0 200 350 c 2,2,-1
 200 1160 l 2,3,4
 200 1510 200 1510 550 1510 c 2,5,-1
 860 1510 l 2,6,7
 1210 1510 1210 1510 1210 1160 c 2,8,-1
 1210 1050 l 1,9,-1
 1020 960 l 1,10,-1
 1010 960 l 1,11,-1
 1010 1160 l 2,12,13
 1010 1330 1010 1330 860 1330 c 2,14,-1
 550 1330 l 2,15,16
 400 1330 400 1330 400 1160 c 2,17,-1
 400 350 l 2,18,19
 400 180 400 180 550 180 c 2,20,-1
 860 180 l 2,21,22
 1010 180 1010 180 1010 350 c 2,23,-1
 1010 664 l 1,24,-1
 662 664 l 1,25,-1
 662 674 l 1,26,-1
 743 846 l 1,27,-1
 1210 846 l 1,28,-1
 1210 350 l 2,29,30
 1210 0 1210 0 860 0 c 2,31,-1
 550 0 l 2,0,1
468 1788 m 1,32,-1
 468 1798 l 1,33,-1
 542 1947 l 1,34,35
 614 1813 614 1813 714 1813 c 128,-1,36
 814 1813 814 1813 886 1947 c 1,37,-1
 962 1798 l 1,38,-1
 962 1788 l 1,39,40
 860 1638 860 1638 712 1638 c 0,41,42
 558 1638 558 1638 468 1788 c 1,32,-1
EndSplineSet
Validated: 1
EndChar

StartChar: Gdotaccent
Encoding: 288 288 250
Width: 1410
Flags: W
HStem: 0 180<440.027 969.973> 664 182<743 1010> 1330 180<440.027 969.973> 1680 245<621.097 788.903>
VStem: 200 200<222.253 1287.75> 585 240<1717.13 1887.87> 1010 200<222.253 664 1050 1287.75>
CounterMasks: 1 0e
LayerCount: 2
Fore
SplineSet
550 0 m 2,0,1
 200 0 200 0 200 350 c 2,2,-1
 200 1160 l 2,3,4
 200 1510 200 1510 550 1510 c 2,5,-1
 860 1510 l 2,6,7
 1210 1510 1210 1510 1210 1160 c 2,8,-1
 1210 1050 l 1,9,-1
 1020 960 l 1,10,-1
 1010 960 l 1,11,-1
 1010 1160 l 2,12,13
 1010 1330 1010 1330 860 1330 c 2,14,-1
 550 1330 l 2,15,16
 400 1330 400 1330 400 1160 c 2,17,-1
 400 350 l 2,18,19
 400 180 400 180 550 180 c 2,20,-1
 860 180 l 2,21,22
 1010 180 1010 180 1010 350 c 2,23,-1
 1010 664 l 1,24,-1
 662 664 l 1,25,-1
 662 674 l 1,26,-1
 743 846 l 1,27,-1
 1210 846 l 1,28,-1
 1210 350 l 2,29,30
 1210 0 1210 0 860 0 c 2,31,-1
 550 0 l 2,0,1
585 1802.5 m 128,-1,33
 585 1853 585 1853 620 1889 c 128,-1,34
 655 1925 655 1925 705 1925 c 128,-1,35
 755 1925 755 1925 790 1889 c 128,-1,36
 825 1853 825 1853 825 1802.5 c 128,-1,37
 825 1752 825 1752 790 1716 c 128,-1,38
 755 1680 755 1680 705 1680 c 128,-1,39
 655 1680 655 1680 620 1716 c 128,-1,32
 585 1752 585 1752 585 1802.5 c 128,-1,33
EndSplineSet
Validated: 1
EndChar

StartChar: Gcommaaccent
Encoding: 290 290 251
Width: 1410
Flags: W
HStem: -450 21G<544.095 605.391> 0 180<440.027 969.973> 664 182<743 1010> 1330 180<440.027 969.973>
VStem: 200 200<222.253 1287.75> 1010 200<222.253 664 1050 1287.75>
LayerCount: 2
Fore
SplineSet
550 0 m 2,0,1
 200 0 200 0 200 350 c 2,2,-1
 200 1160 l 2,3,4
 200 1510 200 1510 550 1510 c 2,5,-1
 860 1510 l 2,6,7
 1210 1510 1210 1510 1210 1160 c 2,8,-1
 1210 1050 l 1,9,-1
 1020 960 l 1,10,-1
 1010 960 l 1,11,-1
 1010 1160 l 2,12,13
 1010 1330 1010 1330 860 1330 c 2,14,-1
 550 1330 l 2,15,16
 400 1330 400 1330 400 1160 c 2,17,-1
 400 350 l 2,18,19
 400 180 400 180 550 180 c 2,20,-1
 860 180 l 2,21,22
 1010 180 1010 180 1010 350 c 2,23,-1
 1010 664 l 1,24,-1
 662 664 l 1,25,-1
 662 674 l 1,26,-1
 743 846 l 1,27,-1
 1210 846 l 1,28,-1
 1210 350 l 2,29,30
 1210 0 1210 0 860 0 c 2,31,-1
 550 0 l 2,0,1
596 -450 m 1,32,-1
 586 -450 l 1,33,-1
 410 -366 l 1,34,-1
 631 -50 l 1,35,-1
 641 -50 l 1,36,-1
 758 -105 l 1,37,-1
 596 -450 l 1,32,-1
EndSplineSet
Validated: 1
EndChar

StartChar: uni01E4
Encoding: 484 484 252
Width: 1410
Flags: W
HStem: 0 180<440.027 969.973> 350 182<829 1010 1210 1279> 664 182<743 1010> 1330 180<440.027 969.973>
VStem: 200 200<222.253 1287.75> 1010 200<222.253 350 532 664 1050 1287.75>
LayerCount: 2
Fore
SplineSet
550 0 m 2,0,1
 200 0 200 0 200 350 c 2,2,-1
 200 1160 l 2,3,4
 200 1510 200 1510 550 1510 c 2,5,-1
 860 1510 l 2,6,7
 1210 1510 1210 1510 1210 1160 c 2,8,-1
 1210 1050 l 1,9,-1
 1020 960 l 1,10,-1
 1010 960 l 1,11,-1
 1010 1160 l 2,12,13
 1010 1330 1010 1330 860 1330 c 2,14,-1
 550 1330 l 2,15,16
 400 1330 400 1330 400 1160 c 2,17,-1
 400 350 l 2,18,19
 400 180 400 180 550 180 c 2,20,-1
 860 180 l 2,21,22
 1010 180 1010 180 1010 350 c 1,23,-1
 748 350 l 1,24,-1
 748 360 l 1,25,-1
 829 532 l 1,26,-1
 1010 532 l 1,27,-1
 1010 664 l 1,28,-1
 662 664 l 1,29,-1
 662 674 l 1,30,-1
 743 846 l 1,31,-1
 1210 846 l 1,32,-1
 1210 532 l 1,33,-1
 1360 532 l 1,34,-1
 1360 522 l 1,35,-1
 1279 350 l 1,36,-1
 1210 350 l 1,37,38
 1210 0 1210 0 860 0 c 2,39,-1
 550 0 l 2,0,1
EndSplineSet
Validated: 1
EndChar

StartChar: Hcircumflex
Encoding: 292 292 253
Width: 1390
Flags: W
HStem: -40 21G<200 252.222 990 1042.22> 664 182<400 990> 1530 20G<347.778 400 1137.78 1190>
VStem: 200 200<50 664 846 1460> 990 200<50 664 846 1460>
LayerCount: 2
Fore
SplineSet
434 1621 m 1,0,-1
 587 1882 l 1,1,-1
 763 1966 l 1,2,-1
 773 1966 l 1,3,-1
 986 1621 l 1,4,-1
 870 1566 l 1,5,-1
 860 1566 l 1,6,-1
 710 1774 l 1,7,-1
 562 1566 l 1,8,-1
 552 1566 l 1,9,-1
 434 1621 l 1,0,-1
200 -40 m 1,10,-1
 200 1460 l 1,11,-1
 390 1550 l 1,12,-1
 400 1550 l 1,13,-1
 400 846 l 1,14,-1
 990 846 l 1,15,-1
 990 1460 l 1,16,-1
 1180 1550 l 1,17,-1
 1190 1550 l 1,18,-1
 1190 50 l 1,19,-1
 1000 -40 l 1,20,-1
 990 -40 l 1,21,-1
 990 664 l 1,22,-1
 400 664 l 1,23,-1
 400 50 l 1,24,-1
 210 -40 l 1,25,-1
 200 -40 l 1,10,-1
EndSplineSet
Validated: 1
EndChar

